<svg xmlns="http://www.w3.org/2000/svg" xmlns:xlink="http://www.w3.org/1999/xlink" version="1.1" width="80" height="80" viewBox="0 0 80 80" xml:space="preserve">
<desc>Created with Fabric.js 3.5.0</desc>
<defs>
</defs>
<rect x="0" y="0" width="100%" height="100%" fill="#fff"/>
<g transform="matrix(1 0 0 1 40 40)" id="469412">
<g style="">
		<g transform="matrix(10.6767 0 0 10.6767 -19.3558 0)" id="89087">
<g style="">
		<g transform="matrix(0.1214 0 0 0.233 -0.7906 0.0004)" id="path889">
<path style="stroke: none; stroke-width: 1; stroke-dasharray: none; stroke-linecap: butt; stroke-dashoffset: 0; stroke-linejoin: miter; stroke-miterlimit: 4; is-custom-font: none; font-file-url: none; fill: rgb(0,0,0); fill-rule: nonzero; opacity: 1;" transform=" translate(-17.3143, -535.1386)" d="m 23.835468 544.63039 q 0 0.35364 -0.127311 0.62241 q -0.339497 0.11317 -0.735576 0.11317 H 12.533063 q -0.933616 0 -0.933616 -0.9902 q 0 -0.16975 0.02829 -0.53754 q 0.02829 -0.38193 0.02829 -0.57997 q 0 -0.93362 0.82045 -0.93362 h 3.522276 v -13.07061 h -4.300289 q -0.905324 0 -0.905324 -0.9902 q 0 -0.21219 0.04244 -0.67899 q 0.05658 -0.48096 0.05658 -0.72143 q 0 -0.48096 0.905324 -0.48096 q 0.254622 0 0.961907 0.0566 q 0.707284 0.0424 1.103364 0.0424 q 2.26331 0 2.744263 -1.57017 h 2.701827 v 17.41334 q 0.947761 0 2.036979 -0.0566 q 1.103363 -0.0707 1.315549 -0.0707 q 0.82045 0 1.018489 0.43852 q 0.155603 0.38193 0.155603 1.99454 z" stroke-linecap="round"/>
</g>
		<g transform="matrix(0.1176 0 0 0.2405 0.7927 -0.0002)" id="path886">
<path style="stroke: none; stroke-width: 1; stroke-dasharray: none; stroke-linecap: butt; stroke-dashoffset: 0; stroke-linejoin: miter; stroke-miterlimit: 4; is-custom-font: none; font-file-url: none; fill: rgb(0,0,0); fill-rule: nonzero; opacity: 1;" transform=" translate(-31.3404, -518.3404)" d="m 38.072907 518.57679 q 0 9.66994 -6.685228 9.66994 q -6.779767 0 -6.779767 -9.72396 q 0 -10.08862 6.914822 -10.08862 q 6.550173 0 6.550173 10.14264 z m -3.511433 -0.28362 q 0 -6.92833 -3.227817 -6.92833 q -1.890772 0 -2.687597 2.74162 q -0.499704 1.72871 -0.499704 4.30826 q 0 6.92833 3.187301 6.92833 q 1.904277 0 2.714608 -2.72811 q 0.513209 -1.75572 0.513209 -4.32177 z" stroke-linecap="round"/>
</g>
</g>
</g>
		<g transform="matrix(3.6162 0 0 3.6162 19.6667 0)" id="461144">
<g style="">
		<g transform="matrix(0.0095 0 0 0.0095 -0.0006 3.3517)" id="rect4124-6">
<rect style="stroke: none; stroke-width: 3.1813; stroke-dasharray: none; stroke-linecap: butt; stroke-dashoffset: 0; stroke-linejoin: miter; stroke-miterlimit: 4; is-custom-font: none; font-file-url: none; fill: rgb(0,0,0); fill-rule: nonzero; opacity: 1;" x="-42.6282" y="-147.84275" rx="0" ry="0" width="85.2564" height="295.6855"/>
</g>
		<g transform="matrix(0.0095 0 0 0.0095 0.0003 -0.3256)" id="path3979-1-6-1">
<path style="stroke: none; stroke-width: 3.1813; stroke-dasharray: none; stroke-linecap: butt; stroke-dashoffset: 0; stroke-linejoin: miter; stroke-miterlimit: 4; is-custom-font: none; font-file-url: none; fill: rgb(0,0,0); fill-rule: nonzero; opacity: 1;" transform=" translate(-2449.4023, -299.5777)" d="m 2917.8563 395.12877 c 67.135 120.80453 23.601 273.14486 -97.235 340.26188 c -120.8361 67.11691 -273.2161 23.5947 -340.3501 -97.20972 c -17.88 -32.17311 -28.44 -67.89332 -30.889 -104.57183 c -9.342 137.92083 -128.747 242.09126 -266.6621 232.71366 c -137.914 -9.37771 -242.111 -128.75233 -232.731 -266.63076 c 9.38 -137.87843 128.786 -242.04886 266.7 -232.67126 c 36.206 2.4619 71.4431 12.76531 103.7251 30.22171 c -118.1921 -70.88592 -156.8751 -224.529044 -85.9451 -343.145874 c 70.9301 -118.616826 224.6131 -157.289636 343.2611 -86.378126 c 118.647 70.911526 157.3301 224.554657 86.4 343.17148 c -21.341 35.68961 -51.243 65.49972 -86.812 86.88252 c 121.024 -66.97031 273.4041 -23.4481 340.5381 97.35632 z" stroke-linecap="round"/>
</g>
</g>
</g>
</g>
</g>
</svg>