<svg xmlns="http://www.w3.org/2000/svg" xmlns:xlink="http://www.w3.org/1999/xlink" version="1.1" width="80" height="80" viewBox="0 0 80 80" xml:space="preserve">
<desc>Created with Fabric.js 3.5.0</desc>
<defs>
</defs>
<rect x="0" y="0" width="100%" height="100%" fill="#fff"/>
<g transform="matrix(1 0 0 1 40.0001 40)" id="629439">
<g style="">
		<g transform="matrix(10.7455 0 0 10.7455 -19.3207 0)" id="153520">
<g style="">
		<g transform="matrix(0.1214 0 0 0.233 -0.7906 0.0004)" id="path900">
<path style="stroke: none; stroke-width: 1; stroke-dasharray: none; stroke-linecap: butt; stroke-dashoffset: 0; stroke-linejoin: miter; stroke-miterlimit: 4; is-custom-font: none; font-file-url: none; fill: rgb(255,0,0); fill-rule: nonzero; opacity: 1;" transform=" translate(-17.3143, -535.1386)" d="m 23.835468 544.63039 q 0 0.35364 -0.127311 0.62241 q -0.339497 0.11317 -0.735576 0.11317 H 12.533063 q -0.933616 0 -0.933616 -0.9902 q 0 -0.16975 0.02829 -0.53754 q 0.02829 -0.38193 0.02829 -0.57997 q 0 -0.93362 0.82045 -0.93362 h 3.522276 v -13.07061 h -4.300289 q -0.905324 0 -0.905324 -0.9902 q 0 -0.21219 0.04244 -0.67899 q 0.05658 -0.48096 0.05658 -0.72143 q 0 -0.48096 0.905324 -0.48096 q 0.254622 0 0.961907 0.0566 q 0.707284 0.0424 1.103364 0.0424 q 2.26331 0 2.744263 -1.57017 h 2.701827 v 17.41334 q 0.947761 0 2.036979 -0.0566 q 1.103363 -0.0707 1.315549 -0.0707 q 0.82045 0 1.018489 0.43852 q 0.155603 0.38193 0.155603 1.99454 z" stroke-linecap="round"/>
</g>
		<g transform="matrix(0.1176 0 0 0.2405 0.7927 -0.0002)" id="path897">
<path style="stroke: none; stroke-width: 1; stroke-dasharray: none; stroke-linecap: butt; stroke-dashoffset: 0; stroke-linejoin: miter; stroke-miterlimit: 4; is-custom-font: none; font-file-url: none; fill: rgb(255,0,0); fill-rule: nonzero; opacity: 1;" transform=" translate(-31.3404, -518.3404)" d="m 38.072907 518.57679 q 0 9.66994 -6.685228 9.66994 q -6.779767 0 -6.779767 -9.72396 q 0 -10.08862 6.914822 -10.08862 q 6.550173 0 6.550173 10.14264 z m -3.511433 -0.28362 q 0 -6.92833 -3.227817 -6.92833 q -1.890772 0 -2.687597 2.74162 q -0.499704 1.72871 -0.499704 4.30826 q 0 6.92833 3.187301 6.92833 q 1.904277 0 2.714608 -2.72811 q 0.513209 -1.75572 0.513209 -4.32177 z" stroke-linecap="round"/>
</g>
</g>
</g>
		<g transform="matrix(0.6044 0 0 0.6044 19.6023 0)" id="832388">
<path style="stroke: none; stroke-width: 1; stroke-dasharray: none; stroke-linecap: butt; stroke-dashoffset: 0; stroke-linejoin: miter; stroke-miterlimit: 4; is-custom-font: none; font-file-url: none; fill: rgb(255,0,0); fill-rule: nonzero; opacity: 1;" transform=" translate(-117, -785.7397)" d="m 116.96746 814.07624 c -2.65321 -5.69589 -6.07814 -11.01838 -10.14737 -15.76947 c -2.62425 -3.06398 -5.50887 -5.88504 -8.431277 -8.65507 c -2.282813 -2.16375 -4.606141 -4.31575 -6.473991 -6.85891 c -1.261866 -1.71812 -2.314886 -3.62962 -2.816557 -5.7134 c -0.908631 -3.77411 0.07987 -7.82001 1.944736 -11.21027 c 1.092153 -1.98547 2.489526 -3.81145 4.210761 -5.26296 c 2.557404 -2.15664 5.894118 -3.44611 9.203118 -3.16466 c 3.03457 0.25811 5.87237 1.80791 8.0868 3.93638 c 1.95983 1.88375 3.48637 4.23197 4.45632 6.80491 c 0.96996 -2.57294 2.4965 -4.92116 4.45633 -6.80491 c 2.21443 -2.12847 5.05223 -3.67827 8.08677 -3.93638 c 3.309 -0.28145 6.64571 1.00802 9.20312 3.16466 c 1.72126 1.45151 3.1186 3.27749 4.21076 5.26296 c 1.8649 3.39026 2.8534 7.43616 1.94476 11.21027 c -0.50167 2.08378 -1.55472 3.99528 -2.81659 5.7134 c -1.86781 2.54316 -4.19117 4.69516 -6.47396 6.85891 c -2.9224 2.77003 -5.80706 5.59109 -8.43131 8.65507 c -4.06922 4.75109 -7.49415 10.07358 -10.14736 15.76947" stroke-linecap="round"/>
</g>
</g>
</g>
</svg>