<svg xmlns="http://www.w3.org/2000/svg" xmlns:xlink="http://www.w3.org/1999/xlink" version="1.1" width="80" height="80" viewBox="0 0 80 80" xml:space="preserve">
<desc>Created with Fabric.js 3.5.0</desc>
<defs>
</defs>
<rect x="0" y="0" width="100%" height="100%" fill="#fff"/>
<g transform="matrix(1 0 0 1 40 40)" id="115636">
<g style="">
		<g transform="matrix(10.6767 0 0 10.6767 -19.1429 0)" id="874265">
<g style="">
		<g transform="matrix(0.1214 0 0 0.233 -0.7906 0.0004)" id="path889">
<path style="stroke: none; stroke-width: 1; stroke-dasharray: none; stroke-linecap: butt; stroke-dashoffset: 0; stroke-linejoin: miter; stroke-miterlimit: 4; is-custom-font: none; font-file-url: none; fill: rgb(0,0,0); fill-rule: nonzero; opacity: 1;" transform=" translate(-17.3143, -535.1386)" d="m 23.835468 544.63039 q 0 0.35364 -0.127311 0.62241 q -0.339497 0.11317 -0.735576 0.11317 H 12.533063 q -0.933616 0 -0.933616 -0.9902 q 0 -0.16975 0.02829 -0.53754 q 0.02829 -0.38193 0.02829 -0.57997 q 0 -0.93362 0.82045 -0.93362 h 3.522276 v -13.07061 h -4.300289 q -0.905324 0 -0.905324 -0.9902 q 0 -0.21219 0.04244 -0.67899 q 0.05658 -0.48096 0.05658 -0.72143 q 0 -0.48096 0.905324 -0.48096 q 0.254622 0 0.961907 0.0566 q 0.707284 0.0424 1.103364 0.0424 q 2.26331 0 2.744263 -1.57017 h 2.701827 v 17.41334 q 0.947761 0 2.036979 -0.0566 q 1.103363 -0.0707 1.315549 -0.0707 q 0.82045 0 1.018489 0.43852 q 0.155603 0.38193 0.155603 1.99454 z" stroke-linecap="round"/>
</g>
		<g transform="matrix(0.1176 0 0 0.2405 0.7927 -0.0002)" id="path886">
<path style="stroke: none; stroke-width: 1; stroke-dasharray: none; stroke-linecap: butt; stroke-dashoffset: 0; stroke-linejoin: miter; stroke-miterlimit: 4; is-custom-font: none; font-file-url: none; fill: rgb(0,0,0); fill-rule: nonzero; opacity: 1;" transform=" translate(-31.3404, -518.3404)" d="m 38.072907 518.57679 q 0 9.66994 -6.685228 9.66994 q -6.779767 0 -6.779767 -9.72396 q 0 -10.08862 6.914822 -10.08862 q 6.550173 0 6.550173 10.14264 z m -3.511433 -0.28362 q 0 -6.92833 -3.227817 -6.92833 q -1.890772 0 -2.687597 2.74162 q -0.499704 1.72871 -0.499704 4.30826 q 0 6.92833 3.187301 6.92833 q 1.904277 0 2.714608 -2.72811 q 0.513209 -1.75572 0.513209 -4.32177 z" stroke-linecap="round"/>
</g>
</g>
</g>
		<g transform="matrix(1.7508 0 0 1.7508 19.3257 0)" id="905027">
<path style="stroke: none; stroke-width: 1; stroke-dasharray: none; stroke-linecap: butt; stroke-dashoffset: 0; stroke-linejoin: miter; stroke-miterlimit: 4; is-custom-font: none; font-file-url: none; fill: rgb(0,0,0); fill-rule: nonzero; opacity: 1;" transform=" translate(-17.2056, -771.2566)" d="m 12.898825 780.70209 c 0 -0.55605 -0.03079 -0.95768 -0.03079 -1.51377 c 1.149566 0 2.395148 0 3.544708 0 c 0 -1.3218 0 -1.41528 0 -2.73712 c -2.243931 0.0723 -4.67246 0.23894 -6.7739019 -0.687 c -1.6266179 -0.89273 -2.075448 -2.97087 -1.7474947 -4.67934 c 0.2807048 -1.92755 1.3522742 -3.6393 2.7501936 -4.95764 c 1.819108 -1.94577 4.139071 -3.2593 6.561151 -4.31616 c 2.472354 1.07475 4.843466 2.43125 6.685643 4.42831 c 1.659299 1.55933 2.764852 3.76316 2.730888 6.0706 c 0.03599 1.6655 -0.995685 3.42548 -2.697384 3.78891 c -1.903705 0.52719 -3.830472 0.43365 -5.784745 0.35232 c 0 1.32184 0 1.41532 0 2.73712 c 1.14956 0 2.203119 0 3.352688 0 c 0 0.55609 0.03079 0.95772 0.03079 1.51377 c -2.632285 -0.0186 -5.778625 -0.0186 -8.621752 0 z" stroke-linecap="round"/>
</g>
</g>
</g>
</svg>