<svg xmlns="http://www.w3.org/2000/svg" xmlns:xlink="http://www.w3.org/1999/xlink" version="1.1" width="320" height="456" viewBox="0 0 320 456" xml:space="preserve">
<desc>Created with Fabric.js 3.5.0</desc>
<defs>
</defs>
<rect x="0" y="0" width="100%" height="100%" fill="#fff"/>
<g transform="matrix(1.3733 0 0 1.3733 160.6761 228.6544)" id="524276">
<rect style="stroke: rgb(128,128,128); stroke-width: 0.7559; stroke-dasharray: none; stroke-linecap: butt; stroke-dashoffset: 0; stroke-linejoin: miter; stroke-miterlimit: 4; is-custom-font: none; font-file-url: none; fill: rgb(255,255,255); fill-rule: nonzero; opacity: 1;" x="-116.62205" y="-166.12205" rx="8.9191856" ry="8.9457436" width="233.2441" height="332.2441"/>
</g>
<g transform="matrix(5.8726 0 0 5.8726 58.2243 205.5733)" id="122974">
<path style="stroke: none; stroke-width: 1; stroke-dasharray: none; stroke-linecap: butt; stroke-dashoffset: 0; stroke-linejoin: miter; stroke-miterlimit: 4; is-custom-font: none; font-file-url: none; fill: rgb(0,0,0); fill-rule: nonzero; opacity: 1;" transform=" translate(-17.2056, -51.8944)" d="m 12.898825 61.339964 c 0 -0.55606 -0.03079 -0.95769 -0.03079 -1.51377 c 1.149566 0 2.395148 0 3.544708 0 c 0 -1.32181 0 -1.41529 0 -2.73713 c -2.243931 0.0723 -4.67246 0.23894 -6.7739019 -0.687 c -1.6266179 -0.89273 -2.0754481 -2.97087 -1.7474947 -4.67934 c 0.2807048 -1.92755 1.3522742 -3.63929 2.7501936 -4.95763 c 1.819108 -1.94578 4.139071 -3.25931 6.561151 -4.31616 c 2.472354 1.07474 4.843466 2.43124 6.685643 4.4283 c 1.659299 1.55933 2.764852 3.76316 2.730888 6.07061 c 0.03599 1.66549 -0.995685 3.42547 -2.697384 3.78891 c -1.903705 0.52718 -3.830472 0.43364 -5.784745 0.35231 c 0 1.32184 0 1.41532 0 2.73713 c 1.14956 0 2.203119 0 3.352688 0 c 0 0.55608 0.03079 0.95771 0.03079 1.51377 c -2.632285 -0.0186 -5.778625 -0.0186 -8.621752 0 z" stroke-linecap="round"/>
</g>
<g transform="matrix(9.2967 0 0 9.2967 209.2719 331.5268)" id="170030">
<path style="stroke: none; stroke-width: 1; stroke-dasharray: none; stroke-linecap: butt; stroke-dashoffset: 0; stroke-linejoin: miter; stroke-miterlimit: 4; is-custom-font: none; font-file-url: none; fill: rgb(0,0,0); fill-rule: nonzero; opacity: 1;" transform=" translate(-17.2056, -51.8944)" d="m 12.898825 61.339964 c 0 -0.55606 -0.03079 -0.95769 -0.03079 -1.51377 c 1.149566 0 2.395148 0 3.544708 0 c 0 -1.32181 0 -1.41529 0 -2.73713 c -2.243931 0.0723 -4.67246 0.23894 -6.7739019 -0.687 c -1.6266179 -0.89273 -2.0754481 -2.97087 -1.7474947 -4.67934 c 0.2807048 -1.92755 1.3522742 -3.63929 2.7501936 -4.95763 c 1.819108 -1.94578 4.139071 -3.25931 6.561151 -4.31616 c 2.472354 1.07474 4.843466 2.43124 6.685643 4.4283 c 1.659299 1.55933 2.764852 3.76316 2.730888 6.07061 c 0.03599 1.66549 -0.995685 3.42547 -2.697384 3.78891 c -1.903705 0.52718 -3.830472 0.43364 -5.784745 0.35231 c 0 1.32184 0 1.41532 0 2.73713 c 1.14956 0 2.203119 0 3.352688 0 c 0 0.55608 0.03079 0.95771 0.03079 1.51377 c -2.632285 -0.0186 -5.778625 -0.0186 -8.621752 0 z" stroke-linecap="round"/>
</g>
<g transform="matrix(4.3084 0 0 4.3084 58.224 70.1236)" id="220831">
<g style="">
		<g transform="matrix(0.7218 0 0 1.3853 -4.7019 -0.0004)" id="path889">
<path style="stroke: none; stroke-width: 1; stroke-dasharray: none; stroke-linecap: butt; stroke-dashoffset: 0; stroke-linejoin: miter; stroke-miterlimit: 4; is-custom-font: none; font-file-url: none; fill: rgb(0,0,0); fill-rule: nonzero; opacity: 1;" transform=" translate(-17.3143, -535.1386)" d="m 23.835468 544.63039 q 0 0.35364 -0.127311 0.62241 q -0.339497 0.11317 -0.735576 0.11317 H 12.533063 q -0.933616 0 -0.933616 -0.9902 q 0 -0.16975 0.02829 -0.53754 q 0.02829 -0.38193 0.02829 -0.57997 q 0 -0.93362 0.82045 -0.93362 h 3.522276 v -13.07061 h -4.300289 q -0.905324 0 -0.905324 -0.9902 q 0 -0.21219 0.04244 -0.67899 q 0.05658 -0.48096 0.05658 -0.72143 q 0 -0.48096 0.905324 -0.48096 q 0.254622 0 0.961907 0.0566 q 0.707284 0.0424 1.103364 0.0424 q 2.26331 0 2.744263 -1.57017 h 2.701827 v 17.41334 q 0.947761 0 2.036979 -0.0566 q 1.103363 -0.0707 1.315549 -0.0707 q 0.82045 0 1.018489 0.43852 q 0.155603 0.38193 0.155603 1.99454 z" stroke-linecap="round"/>
</g>
		<g transform="matrix(0.6992 0 0 1.4302 4.7131 -0.0003)" id="path886">
<path style="stroke: none; stroke-width: 1; stroke-dasharray: none; stroke-linecap: butt; stroke-dashoffset: 0; stroke-linejoin: miter; stroke-miterlimit: 4; is-custom-font: none; font-file-url: none; fill: rgb(0,0,0); fill-rule: nonzero; opacity: 1;" transform=" translate(-31.3404, -518.3404)" d="m 38.072907 518.57679 q 0 9.66994 -6.685228 9.66994 q -6.779767 0 -6.779767 -9.72396 q 0 -10.08862 6.914822 -10.08862 q 6.550173 0 6.550173 10.14264 z m -3.511433 -0.28362 q 0 -6.92833 -3.227817 -6.92833 q -1.890772 0 -2.687597 2.74162 q -0.499704 1.72871 -0.499704 4.30826 q 0 6.92833 3.187301 6.92833 q 1.904277 0 2.714608 -2.72811 q 0.513209 -1.75572 0.513209 -4.32177 z" stroke-linecap="round"/>
</g>
</g>
</g>
</svg>