<svg xmlns="http://www.w3.org/2000/svg" xmlns:xlink="http://www.w3.org/1999/xlink" version="1.1" width="80" height="80" viewBox="0 0 80 80" xml:space="preserve">
<desc>Created with Fabric.js 3.5.0</desc>
<defs>
</defs>
<rect x="0" y="0" width="100%" height="100%" fill="#ffffff"/>
<g transform="matrix(1 0 0 1 40 39.9999)" id="927377">
<g style="">
		<g transform="matrix(1.7763 0 0 1.7763 19.1049 0.0005)" id="path4884-1-4-5-3">
<path style="stroke: none; stroke-width: 1; stroke-dasharray: none; stroke-linecap: butt; stroke-dashoffset: 0; stroke-linejoin: miter; stroke-miterlimit: 4; is-custom-font: none; font-file-url: none; fill: rgb(255,0,0); fill-rule: nonzero; opacity: 1;" transform=" translate(-17.2056, -771.2566)" d="m 17.205569 780.7021 l 9.414569 -9.44551 l -9.414569 -9.44552 l -9.4145688 9.44552 z" stroke-linecap="round"/>
</g>
		<g transform="matrix(1.7619 0 0 1.8306 -18.9917 0.0002)" id="path890">
<path style="stroke: none; stroke-width: 1; stroke-dasharray: none; stroke-linecap: butt; stroke-dashoffset: 0; stroke-linejoin: miter; stroke-miterlimit: 4; is-custom-font: none; font-file-url: none; fill: rgb(255,0,0); fill-rule: nonzero; opacity: 1;" transform=" translate(-17.5008, -727.3009)" d="m 26.999715 735.55243 l -0.710843 5.64831 H 7.9414512 q 0.4226631 -4.86062 3.9192398 -8.58774 l 6.224675 -5.3025 q 3.246821 -2.80495 3.246821 -5.62911 q 0 -1.88277 -1.07587 -2.99706 q -1.056658 -1.13351 -2.920218 -1.13351 q -2.151739 0 -3.208397 1.15272 q -0.691631 0.76848 -1.056658 2.36307 q -0.365027 1.69065 -0.576359 1.95962 q -0.307391 0.0961 -0.710842 0.0961 H 9.3631362 q -0.4226631 0 -0.7300545 -0.17291 q -0.1344837 -0.40345 -0.1344837 -0.90296 q 0 -4.0153 2.632038 -6.37837 q 2.516767 -2.26701 6.551278 -2.26701 q 3.746332 0 6.128615 1.99804 q 2.535979 2.11332 2.535979 5.80202 q 0 3.63106 -2.804946 6.64733 q -0.97981 1.07587 -5.571468 4.59166 q -3.342881 2.59362 -4.111359 4.66851 h 8.952773 l 0.153695 -1.72908 q 0.211332 -0.92217 1.133506 -0.92217 h 1.921196 q 1.114293 0 0.97981 1.09508 z" stroke-linecap="round"/>
</g>
</g>
</g>
</svg>