<svg xmlns="http://www.w3.org/2000/svg" xmlns:xlink="http://www.w3.org/1999/xlink" version="1.1" width="320" height="456" viewBox="0 0 320 456" xml:space="preserve">
<desc>Created with Fabric.js 3.5.0</desc>
<defs>
</defs>
<rect x="0" y="0" width="100%" height="100%" fill="#fff"/>
<g transform="matrix(1.3733 0 0 1.3733 160.6761 228.6544)" id="rect4266">
<rect style="stroke: rgb(128,128,128); stroke-width: 0.7559; stroke-dasharray: none; stroke-linecap: butt; stroke-dashoffset: 0; stroke-linejoin: miter; stroke-miterlimit: 4; is-custom-font: none; font-file-url: none; fill: rgb(255,255,255); fill-rule: nonzero; opacity: 1;" x="-116.62205" y="-166.12205" rx="8.9191856" ry="8.9457436" width="233.2441" height="332.2441"/>
</g>
<g transform="matrix(3.2049 0 0 3.2049 209.324 326.1393)" id="path4884-1-7">
<path style="stroke: none; stroke-width: 1; stroke-dasharray: none; stroke-linecap: butt; stroke-dashoffset: 0; stroke-linejoin: miter; stroke-miterlimit: 4; is-custom-font: none; font-file-url: none; fill: rgb(255,0,0); fill-rule: nonzero; opacity: 1;" transform=" translate(-117, -885.8622)" d="M 117 914.1987 L 145.24371 885.86217 L 117 857.52563 L 88.756294 885.86217 Z" stroke-linecap="round"/>
</g>
<g transform="matrix(5.8504 0 0 5.8504 58.5439 205.1273)" id="path4884-1-4-5-3">
<path style="stroke: none; stroke-width: 1; stroke-dasharray: none; stroke-linecap: butt; stroke-dashoffset: 0; stroke-linejoin: miter; stroke-miterlimit: 4; is-custom-font: none; font-file-url: none; fill: rgb(255,0,0); fill-rule: nonzero; opacity: 1;" transform=" translate(-17.2056, -771.2566)" d="m 17.205569 780.7021 l 9.414569 -9.44551 l -9.414569 -9.44552 l -9.4145688 9.44552 z" stroke-linecap="round"/>
</g>
<g transform="matrix(4.1945 0 0 4.3579 58.5434 74.1519)" id="515549">
<path style="stroke: none; stroke-width: 1; stroke-dasharray: none; stroke-linecap: butt; stroke-dashoffset: 0; stroke-linejoin: miter; stroke-miterlimit: 4; is-custom-font: none; font-file-url: none; fill: rgb(255,0,0); fill-rule: nonzero; opacity: 1;" transform=" translate(-17.5008, -727.3009)" d="m 26.999715 735.55243 l -0.710843 5.64831 H 7.9414512 q 0.4226631 -4.86062 3.9192398 -8.58774 l 6.224675 -5.3025 q 3.246821 -2.80495 3.246821 -5.62911 q 0 -1.88277 -1.07587 -2.99706 q -1.056658 -1.13351 -2.920218 -1.13351 q -2.151739 0 -3.208397 1.15272 q -0.691631 0.76848 -1.056658 2.36307 q -0.365027 1.69065 -0.576359 1.95962 q -0.307391 0.0961 -0.710842 0.0961 H 9.3631362 q -0.4226631 0 -0.7300545 -0.17291 q -0.1344837 -0.40345 -0.1344837 -0.90296 q 0 -4.0153 2.632038 -6.37837 q 2.516767 -2.26701 6.551278 -2.26701 q 3.746332 0 6.128615 1.99804 q 2.535979 2.11332 2.535979 5.80202 q 0 3.63106 -2.804946 6.64733 q -0.97981 1.07587 -5.571468 4.59166 q -3.342881 2.59362 -4.111359 4.66851 h 8.952773 l 0.153695 -1.72908 q 0.211332 -0.92217 1.133506 -0.92217 h 1.921196 q 1.114293 0 0.97981 1.09508 z" stroke-linecap="round"/>
</g>
</svg>