<svg xmlns="http://www.w3.org/2000/svg" xmlns:xlink="http://www.w3.org/1999/xlink" version="1.1" width="80" height="80" viewBox="0 0 80 80" xml:space="preserve">
<desc>Created with Fabric.js 3.5.0</desc>
<defs>
</defs>
<rect x="0" y="0" width="100%" height="100%" fill="#ffffff"/>
<g transform="matrix(1 0 0 1 40 40)" id="893189">
<g style="">
		<g transform="matrix(1.7468 0 0 1.8149 -19.319 0.0003)" id="path901">
<path style="stroke: none; stroke-width: 1; stroke-dasharray: none; stroke-linecap: butt; stroke-dashoffset: 0; stroke-linejoin: miter; stroke-miterlimit: 4; is-custom-font: none; font-file-url: none; fill: rgb(0,0,0); fill-rule: nonzero; opacity: 1;" transform=" translate(-17.5008, -727.3009)" d="m 26.999707 735.55243 l -0.710843 5.64831 H 7.9414487 q 0.422663 -4.86062 3.9192383 -8.58774 l 6.224673 -5.3025 q 3.24682 -2.80494 3.24682 -5.6291 q 0 -1.88277 -1.075869 -2.99706 q -1.056658 -1.13351 -2.920217 -1.13351 q -2.151739 0 -3.208396 1.15272 q -0.691631 0.76848 -1.056658 2.36307 q -0.365027 1.69065 -0.576358 1.95962 q -0.307392 0.0961 -0.710843 0.0961 H 9.3631333 q -0.422663 0 -0.7300543 -0.17291 q -0.1344836 -0.40345 -0.1344836 -0.90296 q 0 -4.0153 2.6320376 -6.37837 q 2.516766 -2.26701 6.551276 -2.26701 q 3.746331 0 6.128613 1.99804 q 2.535978 2.11332 2.535978 5.80201 q 0 3.63106 -2.804945 6.64734 q -0.97981 1.07587 -5.571467 4.59165 q -3.342879 2.59362 -4.111358 4.66851 h 8.952771 l 0.153695 -1.72908 q 0.211332 -0.92217 1.133506 -0.92217 h 1.921195 q 1.114293 0 0.97981 1.09508 z" stroke-linecap="round"/>
</g>
		<g transform="matrix(1 0 0 1 19.2822 0)" id="435559">
<g style="">
		<g transform="matrix(0.0351 0 0 0.0352 -0.0026 -1.1596)" id="path3979-1-6-1-2-4">
<path style="stroke: none; stroke-width: 3.1813; stroke-dasharray: none; stroke-linecap: butt; stroke-dashoffset: 0; stroke-linejoin: miter; stroke-miterlimit: 4; is-custom-font: none; font-file-url: none; fill: rgb(0,0,0); fill-rule: nonzero; opacity: 1;" transform=" translate(-2449.4023, -299.5777)" d="m 2917.8563 395.12877 c 67.135 120.80453 23.601 273.14486 -97.235 340.26188 c -120.8361 67.11691 -273.2161 23.5947 -340.3501 -97.20972 c -17.88 -32.17311 -28.44 -67.89332 -30.889 -104.57183 c -9.342 137.92083 -128.747 242.09126 -266.6621 232.71366 c -137.914 -9.37771 -242.111 -128.75233 -232.731 -266.63076 c 9.38 -137.87843 128.786 -242.04886 266.7 -232.67126 c 36.206 2.4619 71.4431 12.76531 103.7251 30.22171 c -118.1921 -70.88592 -156.8751 -224.529044 -85.9451 -343.145874 c 70.9301 -118.616826 224.6131 -157.289636 343.2611 -86.378126 c 118.647 70.911526 157.3301 224.554657 86.4 343.17148 c -21.341 35.68961 -51.243 65.49972 -86.812 86.88252 c 121.024 -66.97031 273.4041 -23.4481 340.5381 97.35632 z" stroke-linecap="round"/>
</g>
		<g transform="matrix(0.0351 0 0 0.0352 -0.0026 12.4002)" id="rect4124-6-9-7">
<rect style="stroke: none; stroke-width: 3.1813; stroke-dasharray: none; stroke-linecap: butt; stroke-dashoffset: 0; stroke-linejoin: miter; stroke-miterlimit: 4; is-custom-font: none; font-file-url: none; fill: rgb(0,0,0); fill-rule: nonzero; opacity: 1;" x="-42.6282" y="-147.84275" rx="0" ry="0" width="85.2564" height="295.6855"/>
</g>
</g>
</g>
</g>
</g>
</svg>