<svg xmlns="http://www.w3.org/2000/svg" xmlns:xlink="http://www.w3.org/1999/xlink" version="1.1" width="80" height="80" viewBox="0 0 80 80" xml:space="preserve">
<desc>Created with Fabric.js 3.5.0</desc>
<defs>
</defs>
<rect x="0" y="0" width="100%" height="100%" fill="#ffffff"/>
<g transform="matrix(1 0 0 1 40 40)" id="832844">
<g style="">
		<g transform="matrix(1.7516 0 0 1.7458 18.6705 -0.0003)" id="path3940-9-0">
<path style="stroke: none; stroke-width: 1; stroke-dasharray: none; stroke-linecap: butt; stroke-dashoffset: 0; stroke-linejoin: miter; stroke-miterlimit: 4; is-custom-font: none; font-file-url: none; fill: rgb(255,0,0); fill-rule: nonzero; opacity: 1;" transform=" translate(-17.2056, -771.2566)" d="m 17.194709 780.70209 c -0.884404 -1.89864 -2.026046 -3.67279 -3.382435 -5.25649 c -0.87477 -1.02134 -1.836311 -1.96168 -2.810437 -2.88504 c -0.760948 -0.72123 -1.5353906 -1.43858 -2.1580074 -2.28628 c -0.4206116 -0.57272 -0.7716181 -1.20988 -0.9388522 -1.90447 c -0.3028667 -1.25805 0.026675 -2.60668 0.6482558 -3.73677 c 0.3640614 -0.66182 0.8298315 -1.27049 1.4035868 -1.75432 c 0.852458 -0.71887 1.964695 -1.1487 3.067706 -1.05487 c 1.011533 0.086 1.957446 0.60262 2.695611 1.3121 c 0.653277 0.62794 1.162103 1.41066 1.48543 2.26831 c 0.323328 -0.85765 0.832154 -1.64037 1.485431 -2.26831 c 0.738165 -0.70948 1.684078 -1.22609 2.695611 -1.3121 c 1.102986 -0.0938 2.215223 0.336 3.06769 1.05487 c 0.573755 0.48383 1.039538 1.0925 1.403587 1.75432 c 0.621635 1.13009 0.951135 2.47872 0.648256 3.73677 c -0.167222 0.69459 -0.518241 1.33175 -0.938862 1.90447 c -0.622607 0.8477 -1.397059 1.56505 -2.157985 2.28628 c -0.974135 0.92336 -1.935695 1.8637 -2.810434 2.88504 c -1.35642 1.5837 -2.498062 3.35785 -3.382467 5.25649" stroke-linecap="round"/>
</g>
		<g transform="matrix(1.7346 0 0 1.8022 -18.5872 -0.0005)" id="path893">
<path style="stroke: none; stroke-width: 1; stroke-dasharray: none; stroke-linecap: butt; stroke-dashoffset: 0; stroke-linejoin: miter; stroke-miterlimit: 4; is-custom-font: none; font-file-url: none; fill: rgb(255,0,0); fill-rule: nonzero; opacity: 1;" transform=" translate(-17.5008, -727.3009)" d="m 26.999715 735.55243 l -0.710843 5.64831 H 7.9414512 q 0.4226631 -4.86062 3.9192398 -8.58774 l 6.224675 -5.3025 q 3.246821 -2.80495 3.246821 -5.62911 q 0 -1.88277 -1.07587 -2.99706 q -1.056658 -1.13351 -2.920218 -1.13351 q -2.151739 0 -3.208397 1.15272 q -0.691631 0.76848 -1.056658 2.36307 q -0.365027 1.69065 -0.576359 1.95962 q -0.307391 0.0961 -0.710842 0.0961 H 9.3631362 q -0.4226631 0 -0.7300545 -0.17291 q -0.1344837 -0.40345 -0.1344837 -0.90296 q 0 -4.0153 2.632038 -6.37837 q 2.516767 -2.26701 6.551278 -2.26701 q 3.746332 0 6.128615 1.99804 q 2.535979 2.11332 2.535979 5.80202 q 0 3.63106 -2.804946 6.64733 q -0.97981 1.07587 -5.571468 4.59166 q -3.342881 2.59362 -4.111359 4.66851 h 8.952773 l 0.153695 -1.72908 q 0.211332 -0.92217 1.133506 -0.92217 h 1.921196 q 1.114293 0 0.97981 1.09508 z" stroke-linecap="round"/>
</g>
</g>
</g>
</svg>