<svg xmlns="http://www.w3.org/2000/svg" xmlns:xlink="http://www.w3.org/1999/xlink" version="1.1" width="80" height="80" viewBox="0 0 80 80" xml:space="preserve">
<desc>Created with Fabric.js 3.5.0</desc>
<defs>
</defs>
<rect x="0" y="0" width="100%" height="100%" fill="#ffffff"/>
<g transform="matrix(1 0 0 1 40 40)" id="210037">
<g style="">
		<g transform="matrix(1.7538 0 0 1.7538 19.0157 -0.0003)" id="path2985-3-11">
<path style="stroke: none; stroke-width: 1; stroke-dasharray: none; stroke-linecap: butt; stroke-dashoffset: 0; stroke-linejoin: miter; stroke-miterlimit: 4; is-custom-font: none; font-file-url: none; fill: rgb(0,0,0); fill-rule: nonzero; opacity: 1;" transform=" translate(-17.2056, -771.2566)" d="m 12.898825 780.70209 c 0 -0.55605 -0.03079 -0.95768 -0.03079 -1.51377 c 1.149566 0 2.395148 0 3.544708 0 c 0 -1.3218 0 -1.41528 0 -2.73712 c -2.243931 0.0723 -4.67246 0.23894 -6.7739019 -0.687 c -1.6266179 -0.89273 -2.075448 -2.97087 -1.7474947 -4.67934 c 0.2807048 -1.92755 1.3522742 -3.6393 2.7501936 -4.95764 c 1.819108 -1.94577 4.139071 -3.2593 6.561151 -4.31616 c 2.472354 1.07475 4.843466 2.43125 6.685643 4.42831 c 1.659299 1.55933 2.764852 3.76316 2.730888 6.0706 c 0.03599 1.6655 -0.995685 3.42548 -2.697384 3.78891 c -1.903705 0.52719 -3.830472 0.43365 -5.784745 0.35232 c 0 1.32184 0 1.41532 0 2.73712 c 1.14956 0 2.203119 0 3.352688 0 c 0 0.55609 0.03079 0.95772 0.03079 1.51377 c -2.632285 -0.0186 -5.778625 -0.0186 -8.621752 0 z" stroke-linecap="round"/>
</g>
		<g transform="matrix(1.7375 0 0 1.8052 -18.9263 -0.0002)" id="path900">
<path style="stroke: none; stroke-width: 1; stroke-dasharray: none; stroke-linecap: butt; stroke-dashoffset: 0; stroke-linejoin: miter; stroke-miterlimit: 4; is-custom-font: none; font-file-url: none; fill: rgb(0,0,0); fill-rule: nonzero; opacity: 1;" transform=" translate(-17.5008, -727.3009)" d="m 26.999715 735.55243 l -0.710843 5.64831 H 7.9414512 q 0.4226631 -4.86062 3.9192398 -8.58774 l 6.224675 -5.3025 q 3.246821 -2.80495 3.246821 -5.62911 q 0 -1.88277 -1.07587 -2.99706 q -1.056658 -1.13351 -2.920218 -1.13351 q -2.151739 0 -3.208397 1.15272 q -0.691631 0.76848 -1.056658 2.36307 q -0.365027 1.69065 -0.576359 1.95962 q -0.307391 0.0961 -0.710842 0.0961 H 9.3631362 q -0.4226631 0 -0.7300545 -0.17291 q -0.1344837 -0.40345 -0.1344837 -0.90296 q 0 -4.0153 2.632038 -6.37837 q 2.516767 -2.26701 6.551278 -2.26701 q 3.746332 0 6.128615 1.99804 q 2.535979 2.11332 2.535979 5.80202 q 0 3.63106 -2.804946 6.64733 q -0.97981 1.07587 -5.571468 4.59166 q -3.342881 2.59362 -4.111359 4.66851 h 8.952773 l 0.153695 -1.72908 q 0.211332 -0.92217 1.133506 -0.92217 h 1.921196 q 1.114293 0 0.97981 1.09508 z" stroke-linecap="round"/>
</g>
</g>
</g>
</svg>