<svg xmlns="http://www.w3.org/2000/svg" xmlns:xlink="http://www.w3.org/1999/xlink" version="1.1" width="80" height="80" viewBox="0 0 80 80" xml:space="preserve">
<desc>Created with Fabric.js 3.5.0</desc>
<defs>
</defs>
<rect x="0" y="0" width="100%" height="100%" fill="#ffffff"/>
<g transform="matrix(1 0 0 1 40.0001 40.0001)" id="787969">
<g style="">
		<g transform="matrix(1.7669 0 0 1.7669 18.9841 -0.0003)" id="path4884-1-4-5-3">
<path style="stroke: none; stroke-width: 1; stroke-dasharray: none; stroke-linecap: butt; stroke-dashoffset: 0; stroke-linejoin: miter; stroke-miterlimit: 4; is-custom-font: none; font-file-url: none; fill: rgb(255,0,0); fill-rule: nonzero; opacity: 1;" transform=" translate(-17.2056, -771.2566)" d="m 17.205569 780.7021 l 9.414569 -9.44551 l -9.414569 -9.44552 l -9.4145688 9.44552 z" stroke-linecap="round"/>
</g>
		<g transform="matrix(1.7918 0 0 1.7591 -18.8924 0.0002)" id="path892">
<path style="stroke: none; stroke-width: 1; stroke-dasharray: none; stroke-linecap: butt; stroke-dashoffset: 0; stroke-linejoin: miter; stroke-miterlimit: 4; is-custom-font: none; font-file-url: none; fill: rgb(255,0,0); fill-rule: nonzero; opacity: 1;" transform=" translate(-17.0478, -748.2068)" d="m 26.376029 754.4354 q 0 3.97693 -2.787749 6.12135 q -2.514823 1.94948 -6.589225 1.94948 q -9.2794998 0 -9.2794998 -8.77264 q 0 -0.40939 0.1364633 -0.77979 q 0.2924212 -0.17545 0.6628214 -0.17545 h 2.5343171 q 0.3704 0 0.682316 0.17545 q 0.09747 0.27293 0.155958 0.64333 q 0.331411 2.41735 1.364633 3.50905 q 1.15019 1.20868 3.528549 1.20868 q 1.949475 0 3.177644 -1.05272 q 1.286653 -1.13069 1.286653 -3.04118 q 0 -4.05491 -4.425308 -4.75672 q -0.545853 -0.078 -0.818779 -0.23394 q -0.155958 -0.31191 -0.155958 -3.15814 q 0 -0.3704 0.175453 -0.70182 q 1.462106 -0.42888 2.924212 -0.87726 q 1.540085 -0.70181 1.540085 -2.94371 q 0 -3.39208 -3.976929 -3.39208 q -1.832506 0 -2.865727 0.89676 q -0.545853 0.48737 -1.130696 1.65705 q -0.428884 0.89676 -0.857769 0.89676 H 9.1426718 q -0.9552426 0 -0.9552426 -0.85777 q 0 -3.25562 2.5538118 -5.14661 q 2.30038 -1.69605 5.653477 -1.69605 q 3.85996 0 6.296803 1.61807 q 2.865728 1.89099 2.865728 5.57549 q 0 4.44481 -4.386318 6.04338 q 5.205098 2.2029 5.205098 7.29103 z" stroke-linecap="round"/>
</g>
</g>
</g>
</svg>