<svg xmlns="http://www.w3.org/2000/svg" xmlns:xlink="http://www.w3.org/1999/xlink" version="1.1" width="80" height="80" viewBox="0 0 80 80" xml:space="preserve">
<desc>Created with Fabric.js 3.5.0</desc>
<defs>
</defs>
<rect x="0" y="0" width="100%" height="100%" fill="#ffffff"/>
<g transform="matrix(1 0 0 1 40 40)" id="445896">
<g style="">
		<g transform="matrix(1.7542 0 0 1.7542 19.3769 -0.0003)" id="path3940-9-0">
<path style="stroke: none; stroke-width: 1; stroke-dasharray: none; stroke-linecap: butt; stroke-dashoffset: 0; stroke-linejoin: miter; stroke-miterlimit: 4; is-custom-font: none; font-file-url: none; fill: rgb(255,0,0); fill-rule: nonzero; opacity: 1;" transform=" translate(-17.2056, -771.2566)" d="m 17.194709 780.70209 c -0.884404 -1.89864 -2.026046 -3.67279 -3.382435 -5.25649 c -0.87477 -1.02134 -1.836311 -1.96168 -2.810437 -2.88504 c -0.760948 -0.72123 -1.5353906 -1.43858 -2.1580074 -2.28628 c -0.4206116 -0.57272 -0.7716181 -1.20988 -0.9388522 -1.90447 c -0.3028667 -1.25805 0.026675 -2.60668 0.6482558 -3.73677 c 0.3640614 -0.66182 0.8298315 -1.27049 1.4035868 -1.75432 c 0.852458 -0.71887 1.964695 -1.1487 3.067706 -1.05487 c 1.011533 0.086 1.957446 0.60262 2.695611 1.3121 c 0.653277 0.62794 1.162103 1.41066 1.48543 2.26831 c 0.323328 -0.85765 0.832154 -1.64037 1.485431 -2.26831 c 0.738165 -0.70948 1.684078 -1.22609 2.695611 -1.3121 c 1.102986 -0.0938 2.215223 0.336 3.06769 1.05487 c 0.573755 0.48383 1.039538 1.0925 1.403587 1.75432 c 0.621635 1.13009 0.951135 2.47872 0.648256 3.73677 c -0.167222 0.69459 -0.518241 1.33175 -0.938862 1.90447 c -0.622607 0.8477 -1.397059 1.56505 -2.157985 2.28628 c -0.974135 0.92336 -1.935695 1.8637 -2.810434 2.88504 c -1.35642 1.5837 -2.498062 3.35785 -3.382467 5.25649" stroke-linecap="round"/>
</g>
		<g transform="matrix(1.7563 0 0 1.7242 -19.5084 0)" id="path894">
<path style="stroke: none; stroke-width: 1; stroke-dasharray: none; stroke-linecap: butt; stroke-dashoffset: 0; stroke-linejoin: miter; stroke-miterlimit: 4; is-custom-font: none; font-file-url: none; fill: rgb(255,0,0); fill-rule: nonzero; opacity: 1;" transform=" translate(-17.0478, -748.2068)" d="m 26.376029 754.4354 q 0 3.97693 -2.787749 6.12135 q -2.514823 1.94948 -6.589225 1.94948 q -9.2794998 0 -9.2794998 -8.77264 q 0 -0.40939 0.1364633 -0.77979 q 0.2924212 -0.17545 0.6628214 -0.17545 h 2.5343171 q 0.3704 0 0.682316 0.17545 q 0.09747 0.27293 0.155958 0.64333 q 0.331411 2.41735 1.364633 3.50905 q 1.15019 1.20868 3.528549 1.20868 q 1.949475 0 3.177644 -1.05272 q 1.286653 -1.13069 1.286653 -3.04118 q 0 -4.05491 -4.425308 -4.75672 q -0.545853 -0.078 -0.818779 -0.23394 q -0.155958 -0.31191 -0.155958 -3.15814 q 0 -0.3704 0.175453 -0.70182 q 1.462106 -0.42888 2.924212 -0.87726 q 1.540085 -0.70181 1.540085 -2.94371 q 0 -3.39208 -3.976929 -3.39208 q -1.832506 0 -2.865727 0.89676 q -0.545853 0.48737 -1.130696 1.65705 q -0.428884 0.89676 -0.857769 0.89676 H 9.1426718 q -0.9552426 0 -0.9552426 -0.85777 q 0 -3.25562 2.5538118 -5.14661 q 2.30038 -1.69605 5.653477 -1.69605 q 3.85996 0 6.296803 1.61807 q 2.865728 1.89099 2.865728 5.57549 q 0 4.44481 -4.386318 6.04338 q 5.205098 2.2029 5.205098 7.29103 z" stroke-linecap="round"/>
</g>
</g>
</g>
</svg>