<svg xmlns="http://www.w3.org/2000/svg" xmlns:xlink="http://www.w3.org/1999/xlink" version="1.1" width="80" height="80" viewBox="0 0 80 80" xml:space="preserve">
<desc>Created with Fabric.js 3.5.0</desc>
<defs>
</defs>
<rect x="0" y="0" width="100%" height="100%" fill="#ffffff"/>
<g transform="matrix(1 0 0 1 40 40.0001)" id="400636">
<g style="">
		<g transform="matrix(1.775 0 0 1.775 19.5098 0.0004)" id="path2985-3-11">
<path style="stroke: none; stroke-width: 1; stroke-dasharray: none; stroke-linecap: butt; stroke-dashoffset: 0; stroke-linejoin: miter; stroke-miterlimit: 4; is-custom-font: none; font-file-url: none; fill: rgb(0,0,0); fill-rule: nonzero; opacity: 1;" transform=" translate(-17.2056, -771.2566)" d="m 12.898825 780.70209 c 0 -0.55605 -0.03079 -0.95768 -0.03079 -1.51377 c 1.149566 0 2.395148 0 3.544708 0 c 0 -1.3218 0 -1.41528 0 -2.73712 c -2.243931 0.0723 -4.67246 0.23894 -6.7739019 -0.687 c -1.6266179 -0.89273 -2.075448 -2.97087 -1.7474947 -4.67934 c 0.2807048 -1.92755 1.3522742 -3.6393 2.7501936 -4.95764 c 1.819108 -1.94577 4.139071 -3.2593 6.561151 -4.31616 c 2.472354 1.07475 4.843466 2.43125 6.685643 4.42831 c 1.659299 1.55933 2.764852 3.76316 2.730888 6.0706 c 0.03599 1.6655 -0.995685 3.42548 -2.697384 3.78891 c -1.903705 0.52719 -3.830472 0.43365 -5.784745 0.35232 c 0 1.32184 0 1.41532 0 2.73712 c 1.14956 0 2.203119 0 3.352688 0 c 0 0.55609 0.03079 0.95772 0.03079 1.51377 c -2.632285 -0.0186 -5.778625 -0.0186 -8.621752 0 z" stroke-linecap="round"/>
</g>
		<g transform="matrix(1.7659 0 0 1.7337 -19.7517 -0.0001)" id="path901">
<path style="stroke: none; stroke-width: 1; stroke-dasharray: none; stroke-linecap: butt; stroke-dashoffset: 0; stroke-linejoin: miter; stroke-miterlimit: 4; is-custom-font: none; font-file-url: none; fill: rgb(0,0,0); fill-rule: nonzero; opacity: 1;" transform=" translate(-17.0478, -748.2068)" d="m 26.376029 754.4354 q 0 3.97693 -2.787749 6.12135 q -2.514823 1.94948 -6.589225 1.94948 q -9.2794998 0 -9.2794998 -8.77264 q 0 -0.40939 0.1364633 -0.77979 q 0.2924212 -0.17545 0.6628214 -0.17545 h 2.5343171 q 0.3704 0 0.682316 0.17545 q 0.09747 0.27293 0.155958 0.64333 q 0.331411 2.41735 1.364633 3.50905 q 1.15019 1.20868 3.528549 1.20868 q 1.949475 0 3.177644 -1.05272 q 1.286653 -1.13069 1.286653 -3.04118 q 0 -4.05491 -4.425308 -4.75672 q -0.545853 -0.078 -0.818779 -0.23394 q -0.155958 -0.31191 -0.155958 -3.15814 q 0 -0.3704 0.175453 -0.70182 q 1.462106 -0.42888 2.924212 -0.87726 q 1.540085 -0.70181 1.540085 -2.94371 q 0 -3.39208 -3.976929 -3.39208 q -1.832506 0 -2.865727 0.89676 q -0.545853 0.48737 -1.130696 1.65705 q -0.428884 0.89676 -0.857769 0.89676 H 9.1426718 q -0.9552426 0 -0.9552426 -0.85777 q 0 -3.25562 2.5538118 -5.14661 q 2.30038 -1.69605 5.653477 -1.69605 q 3.85996 0 6.296803 1.61807 q 2.865728 1.89099 2.865728 5.57549 q 0 4.44481 -4.386318 6.04338 q 5.205098 2.2029 5.205098 7.29103 z" stroke-linecap="round"/>
</g>
</g>
</g>
</svg>