<svg xmlns="http://www.w3.org/2000/svg" xmlns:xlink="http://www.w3.org/1999/xlink" version="1.1" width="80" height="80" viewBox="0 0 80 80" xml:space="preserve">
<desc>Created with Fabric.js 3.5.0</desc>
<defs>
</defs>
<rect x="0" y="0" width="100%" height="100%" fill="#fff"/>
<g transform="matrix(1 0 0 1 40 40.0001)" id="266558">
<g style="">
		<g transform="matrix(1.7466 0 0 1.7466 19.0482 0.0002)" id="path4884-1-4-5-3">
<path style="stroke: none; stroke-width: 1; stroke-dasharray: none; stroke-linecap: butt; stroke-dashoffset: 0; stroke-linejoin: miter; stroke-miterlimit: 4; is-custom-font: none; font-file-url: none; fill: rgb(255,0,0); fill-rule: nonzero; opacity: 1;" transform=" translate(-17.2056, -771.2566)" d="m 17.205569 780.7021 l 9.414569 -9.44551 l -9.414569 -9.44552 l -9.4145688 9.44552 z" stroke-linecap="round"/>
</g>
		<g transform="matrix(1.6685 0 0 1.9015 -18.761 -0.0004)" id="path892">
<path style="stroke: none; stroke-width: 1; stroke-dasharray: none; stroke-linecap: butt; stroke-dashoffset: 0; stroke-linejoin: miter; stroke-miterlimit: 4; is-custom-font: none; font-file-url: none; fill: rgb(255,0,0); fill-rule: nonzero; opacity: 1;" transform=" translate(-18.3678, -694.4387)" d="m 28.418244 706.77169 q 0 0.38656 -0.14726 0.75471 q -0.331335 0.18407 -0.699485 0.18407 H 15.753885 q -1.362154 0 -1.362154 -1.38056 q 0 -0.22089 0.03682 -0.77311 q 0.03681 -0.55223 0.03681 -0.84675 q 0 -0.64426 0.276112 -0.82834 q 0.202483 -0.12885 0.901967 -0.12885 h 4.601875 v -2.83475 H 9.9187087 q -1.6014522 0 -1.6014522 -1.49101 q 0 -0.2577 0.055223 -0.93878 q 0.055222 -0.69949 0.055222 -1.10445 q 0 -0.62586 0.7178924 -1.56464 l 10.6395332 -13.9897 q 0.497003 -0.66267 1.25171 -0.66267 h 2.42979 q 0.865152 0 0.865152 0.95719 v 15.02052 q 0.66267 0 1.509415 -0.0368 q 0.865153 -0.0368 1.10445 -0.0368 q 0.994005 0 1.233302 0.497 q 0.239298 0.4786 0.239298 2.39298 q 0 0.34974 -0.05522 0.53382 q -0.110445 0.42337 -0.846745 0.42337 h -3.184497 v 2.83475 q 0.681078 0 1.54623 -0.0368 q 0.865153 -0.0368 1.086042 -0.0368 q 1.049228 0 1.270118 0.53382 q 0.184075 0.44178 0.184075 2.55864 z m -8.099299 -19.69602 q -1.012413 1.54623 -7.473444 10.0689 h 7.399814 q 0 -0.9756 -0.03682 -3.35016 q -0.05522 -2.15368 -0.03682 -3.36858 q 0.01841 -1.84075 0.14726 -3.35016 z" stroke-linecap="round"/>
</g>
</g>
</g>
</svg>