<svg xmlns="http://www.w3.org/2000/svg" xmlns:xlink="http://www.w3.org/1999/xlink" version="1.1" width="80" height="80" viewBox="0 0 80 80" xml:space="preserve">
<desc>Created with Fabric.js 3.5.0</desc>
<defs>
</defs>
<rect x="0" y="0" width="100%" height="100%" fill="#fff"/>
<g transform="matrix(1 0 0 1 40.0001 40.0001)" id="282910">
<g style="">
		<g transform="matrix(1.6667 0 0 1.8995 -19.0567 -0.0002)" id="path4618">
<path style="stroke: none; stroke-width: 1; stroke-dasharray: none; stroke-linecap: butt; stroke-dashoffset: 0; stroke-linejoin: miter; stroke-miterlimit: 4; is-custom-font: none; font-file-url: none; fill: rgb(0,0,0); fill-rule: nonzero; opacity: 1;" transform=" translate(-18.3677, -694.4387)" d="m 28.418233 706.77175 q 0 0.38656 -0.14726 0.75471 q -0.331335 0.18408 -0.699485 0.18408 H 15.75388 q -1.362155 0 -1.362155 -1.38057 q 0 -0.22089 0.03682 -0.77311 q 0.03682 -0.55223 0.03682 -0.84675 q 0 -0.64426 0.276113 -0.82833 q 0.202482 -0.12885 0.901967 -0.12885 h 4.601872 v -2.83476 H 9.9187053 q -1.6014516 0 -1.6014516 -1.49101 q 0 -0.2577 0.055222 -0.93878 q 0.055222 -0.69948 0.055222 -1.10445 q 0 -0.62585 0.7178922 -1.56463 L 19.78512 681.8296 q 0.497002 -0.66267 1.251709 -0.66267 h 2.429789 q 0.865152 0 0.865152 0.95719 v 15.02052 q 0.66267 0 1.509414 -0.0368 q 0.865152 -0.0368 1.10445 -0.0368 q 0.994004 0 1.233302 0.497 q 0.239297 0.47859 0.239297 2.39297 q 0 0.34974 -0.05522 0.53382 q -0.110445 0.42337 -0.846744 0.42337 H 24.33177 v 2.83476 q 0.681077 0 1.546229 -0.0368 q 0.865152 -0.0368 1.086042 -0.0368 q 1.049227 0 1.270117 0.53381 q 0.184075 0.44178 0.184075 2.55864 z m -8.099296 -19.69601 q -1.012412 1.54623 -7.473441 10.0689 h 7.399811 q 0 -0.9756 -0.03682 -3.35017 q -0.05522 -2.15367 -0.03682 -3.36857 q 0.01841 -1.84075 0.14726 -3.35016 z" stroke-linecap="round"/>
</g>
		<g transform="matrix(3.6734 0 0 3.6734 19.1381 -0.0001)" id="975916">
<g style="">
		<g transform="matrix(0.0095 0 0 0.0095 -0.0006 3.3517)" id="rect4124-6">
<rect style="stroke: none; stroke-width: 3.1813; stroke-dasharray: none; stroke-linecap: butt; stroke-dashoffset: 0; stroke-linejoin: miter; stroke-miterlimit: 4; is-custom-font: none; font-file-url: none; fill: rgb(0,0,0); fill-rule: nonzero; opacity: 1;" x="-42.6282" y="-147.84275" rx="0" ry="0" width="85.2564" height="295.6855"/>
</g>
		<g transform="matrix(0.0095 0 0 0.0095 0.0003 -0.3256)" id="path3979-1-6-1">
<path style="stroke: none; stroke-width: 3.1813; stroke-dasharray: none; stroke-linecap: butt; stroke-dashoffset: 0; stroke-linejoin: miter; stroke-miterlimit: 4; is-custom-font: none; font-file-url: none; fill: rgb(0,0,0); fill-rule: nonzero; opacity: 1;" transform=" translate(-2449.4023, -299.5777)" d="m 2917.8563 395.12877 c 67.135 120.80453 23.601 273.14486 -97.235 340.26188 c -120.8361 67.11691 -273.2161 23.5947 -340.3501 -97.20972 c -17.88 -32.17311 -28.44 -67.89332 -30.889 -104.57183 c -9.342 137.92083 -128.747 242.09126 -266.6621 232.71366 c -137.914 -9.37771 -242.111 -128.75233 -232.731 -266.63076 c 9.38 -137.87843 128.786 -242.04886 266.7 -232.67126 c 36.206 2.4619 71.4431 12.76531 103.7251 30.22171 c -118.1921 -70.88592 -156.8751 -224.529044 -85.9451 -343.145874 c 70.9301 -118.616826 224.6131 -157.289636 343.2611 -86.378126 c 118.647 70.911526 157.3301 224.554657 86.4 343.17148 c -21.341 35.68961 -51.243 65.49972 -86.812 86.88252 c 121.024 -66.97031 273.4041 -23.4481 340.5381 97.35632 z" stroke-linecap="round"/>
</g>
</g>
</g>
</g>
</g>
</svg>