<svg xmlns="http://www.w3.org/2000/svg" xmlns:xlink="http://www.w3.org/1999/xlink" version="1.1" width="80" height="80" viewBox="0 0 80 80" xml:space="preserve">
<desc>Created with Fabric.js 3.5.0</desc>
<defs>
</defs>
<rect x="0" y="0" width="100%" height="100%" fill="#fff"/>
<g transform="matrix(1 0 0 1 40 40.0001)" id="682182">
<g style="">
		<g transform="matrix(0.6024 0 0 0.6024 19.1488 0)" id="path3940-9">
<path style="stroke: none; stroke-width: 1; stroke-dasharray: none; stroke-linecap: butt; stroke-dashoffset: 0; stroke-linejoin: miter; stroke-miterlimit: 4; is-custom-font: none; font-file-url: none; fill: rgb(255,0,0); fill-rule: nonzero; opacity: 1;" transform=" translate(-58.6297, -785.7397)" d="m 58.597133 814.07624 c -2.653214 -5.69589 -6.07814 -11.01838 -10.147368 -15.76947 c -2.624249 -3.06398 -5.508873 -5.88504 -8.43128 -8.65507 c -2.282814 -2.16375 -4.606141 -4.31575 -6.473992 -6.85891 c -1.261866 -1.71812 -2.314885 -3.62962 -2.816556 -5.7134 c -0.908632 -3.77411 0.07987 -7.82001 1.944736 -11.21027 c 1.092153 -1.98547 2.489526 -3.81145 4.21076 -5.26296 c 2.557405 -2.15664 5.894117 -3.44611 9.203118 -3.16466 c 3.034567 0.25811 5.872369 1.80791 8.086801 3.93638 c 1.959831 1.88375 3.486372 4.23197 4.456324 6.80491 c 0.969951 -2.57294 2.496492 -4.92116 4.456323 -6.80491 c 2.214432 -2.12847 5.052234 -3.67827 8.08677 -3.93638 c 3.309001 -0.28145 6.645713 1.00802 9.203118 3.16466 c 1.721265 1.45151 3.118607 3.27749 4.21076 5.26296 c 1.8649 3.39026 2.853402 7.43616 1.944767 11.21027 c -0.501671 2.08378 -1.554722 3.99528 -2.816588 5.7134 c -1.867819 2.54316 -4.191178 4.69516 -6.47396 6.85891 c -2.922407 2.77003 -5.807063 5.59109 -8.431311 8.65507 c -4.069228 4.75109 -7.494154 10.07358 -10.147368 15.76947" stroke-linecap="round"/>
</g>
		<g transform="matrix(1.6742 0 0 1.908 -18.8004 -0.0001)" id="path900">
<path style="stroke: none; stroke-width: 1; stroke-dasharray: none; stroke-linecap: butt; stroke-dashoffset: 0; stroke-linejoin: miter; stroke-miterlimit: 4; is-custom-font: none; font-file-url: none; fill: rgb(255,0,0); fill-rule: nonzero; opacity: 1;" transform=" translate(-18.3678, -694.4387)" d="m 28.418244 706.77169 q 0 0.38656 -0.14726 0.75471 q -0.331335 0.18407 -0.699485 0.18407 H 15.753885 q -1.362154 0 -1.362154 -1.38056 q 0 -0.22089 0.03682 -0.77311 q 0.03681 -0.55223 0.03681 -0.84675 q 0 -0.64426 0.276112 -0.82834 q 0.202483 -0.12885 0.901967 -0.12885 h 4.601875 v -2.83475 H 9.9187087 q -1.6014522 0 -1.6014522 -1.49101 q 0 -0.2577 0.055223 -0.93878 q 0.055222 -0.69949 0.055222 -1.10445 q 0 -0.62586 0.7178924 -1.56464 l 10.6395332 -13.9897 q 0.497003 -0.66267 1.25171 -0.66267 h 2.42979 q 0.865152 0 0.865152 0.95719 v 15.02052 q 0.66267 0 1.509415 -0.0368 q 0.865153 -0.0368 1.10445 -0.0368 q 0.994005 0 1.233302 0.497 q 0.239298 0.4786 0.239298 2.39298 q 0 0.34974 -0.05522 0.53382 q -0.110445 0.42337 -0.846745 0.42337 h -3.184497 v 2.83475 q 0.681078 0 1.54623 -0.0368 q 0.865153 -0.0368 1.086042 -0.0368 q 1.049228 0 1.270118 0.53382 q 0.184075 0.44178 0.184075 2.55864 z m -8.099299 -19.69602 q -1.012413 1.54623 -7.473444 10.0689 h 7.399814 q 0 -0.9756 -0.03682 -3.35016 q -0.05522 -2.15368 -0.03682 -3.36858 q 0.01841 -1.84075 0.14726 -3.35016 z" stroke-linecap="round"/>
</g>
</g>
</g>
</svg>