<svg xmlns="http://www.w3.org/2000/svg" xmlns:xlink="http://www.w3.org/1999/xlink" version="1.1" width="320" height="456" viewBox="0 0 320 456" xml:space="preserve">
<desc>Created with Fabric.js 3.5.0</desc>
<defs>
</defs>
<rect x="0" y="0" width="100%" height="100%" fill="#fff"/>
<g transform="matrix(1.3733 0 0 1.3733 160.6761 228.6544)" id="rect4266">
<rect style="stroke: rgb(128,128,128); stroke-width: 0.7559; stroke-dasharray: none; stroke-linecap: butt; stroke-dashoffset: 0; stroke-linejoin: miter; stroke-miterlimit: 4; is-custom-font: none; font-file-url: none; fill: rgb(255,255,255); fill-rule: nonzero; opacity: 1;" x="-116.62205" y="-166.12205" rx="8.9191856" ry="8.9457436" width="233.2441" height="332.2441"/>
</g>
<g transform="matrix(5.8726 0 0 5.8726 58.2243 209.1883)" id="438248">
<path style="stroke: none; stroke-width: 1; stroke-dasharray: none; stroke-linecap: butt; stroke-dashoffset: 0; stroke-linejoin: miter; stroke-miterlimit: 4; is-custom-font: none; font-file-url: none; fill: rgb(255,0,0); fill-rule: nonzero; opacity: 1;" transform=" translate(-17.2056, -771.2565)" d="m 17.194709 780.70206 c -0.884404 -1.89863 -2.026046 -3.67278 -3.382435 -5.25648 c -0.87477 -1.02135 -1.836311 -1.96168 -2.810437 -2.88504 c -0.760948 -0.72123 -1.5353906 -1.43859 -2.1580074 -2.28629 c -0.4206116 -0.57272 -0.7716181 -1.20987 -0.9388522 -1.90446 c -0.3028667 -1.25806 0.026675 -2.60669 0.6482558 -3.73679 c 0.3640614 -0.66181 0.8298315 -1.27048 1.4035868 -1.7543 c 0.852458 -0.71887 1.964695 -1.14871 3.067706 -1.05488 c 1.011533 0.086 1.957446 0.60263 2.695611 1.3121 c 0.653277 0.62794 1.162103 1.41066 1.48543 2.26832 c 0.323328 -0.85766 0.832154 -1.64038 1.485431 -2.26832 c 0.738165 -0.70947 1.684078 -1.22609 2.695611 -1.3121 c 1.102986 -0.0939 2.215223 0.33601 3.06769 1.05488 c 0.573755 0.48382 1.039538 1.09249 1.403587 1.7543 c 0.621635 1.1301 0.951135 2.47873 0.648256 3.73679 c -0.167222 0.69459 -0.518241 1.33174 -0.938862 1.90446 c -0.622607 0.8477 -1.397059 1.56506 -2.157985 2.28629 c -0.974135 0.92336 -1.935695 1.86369 -2.810434 2.88504 c -1.35642 1.5837 -2.498062 3.35785 -3.382467 5.25648" stroke-linecap="round"/>
</g>
<g transform="matrix(9.2703 0 0 9.2703 205.911 326.3595)" id="468918">
<path style="stroke: none; stroke-width: 1; stroke-dasharray: none; stroke-linecap: butt; stroke-dashoffset: 0; stroke-linejoin: miter; stroke-miterlimit: 4; is-custom-font: none; font-file-url: none; fill: rgb(255,0,0); fill-rule: nonzero; opacity: 1;" transform=" translate(-17.2056, -771.2565)" d="m 17.194709 780.70206 c -0.884404 -1.89863 -2.026046 -3.67278 -3.382435 -5.25648 c -0.87477 -1.02135 -1.836311 -1.96168 -2.810437 -2.88504 c -0.760948 -0.72123 -1.5353906 -1.43859 -2.1580074 -2.28629 c -0.4206116 -0.57272 -0.7716181 -1.20987 -0.9388522 -1.90446 c -0.3028667 -1.25806 0.026675 -2.60669 0.6482558 -3.73679 c 0.3640614 -0.66181 0.8298315 -1.27048 1.4035868 -1.7543 c 0.852458 -0.71887 1.964695 -1.14871 3.067706 -1.05488 c 1.011533 0.086 1.957446 0.60263 2.695611 1.3121 c 0.653277 0.62794 1.162103 1.41066 1.48543 2.26832 c 0.323328 -0.85766 0.832154 -1.64038 1.485431 -2.26832 c 0.738165 -0.70947 1.684078 -1.22609 2.695611 -1.3121 c 1.102986 -0.0939 2.215223 0.33601 3.06769 1.05488 c 0.573755 0.48382 1.039538 1.09249 1.403587 1.7543 c 0.621635 1.1301 0.951135 2.47873 0.648256 3.73679 c -0.167222 0.69459 -0.518241 1.33174 -0.938862 1.90446 c -0.622607 0.8477 -1.397059 1.56506 -2.157985 2.28629 c -0.974135 0.92336 -1.935695 1.86369 -2.810434 2.88504 c -1.35642 1.5837 -2.498062 3.35785 -3.382467 5.25648" stroke-linecap="round"/>
</g>
<g transform="matrix(3.9987 0 0 4.5571 49.1776 72.8112)" id="747683">
<path style="stroke: none; stroke-width: 1; stroke-dasharray: none; stroke-linecap: butt; stroke-dashoffset: 0; stroke-linejoin: miter; stroke-miterlimit: 4; is-custom-font: none; font-file-url: none; fill: rgb(255,0,0); fill-rule: nonzero; opacity: 1;" transform=" translate(-18.3678, -694.4387)" d="m 28.418244 706.77169 q 0 0.38656 -0.14726 0.75471 q -0.331335 0.18407 -0.699485 0.18407 H 15.753885 q -1.362154 0 -1.362154 -1.38056 q 0 -0.22089 0.03682 -0.77311 q 0.03681 -0.55223 0.03681 -0.84675 q 0 -0.64426 0.276112 -0.82834 q 0.202483 -0.12885 0.901967 -0.12885 h 4.601875 v -2.83475 H 9.9187087 q -1.6014522 0 -1.6014522 -1.49101 q 0 -0.2577 0.055223 -0.93878 q 0.055222 -0.69949 0.055222 -1.10445 q 0 -0.62586 0.7178924 -1.56464 l 10.6395332 -13.9897 q 0.497003 -0.66267 1.25171 -0.66267 h 2.42979 q 0.865152 0 0.865152 0.95719 v 15.02052 q 0.66267 0 1.509415 -0.0368 q 0.865153 -0.0368 1.10445 -0.0368 q 0.994005 0 1.233302 0.497 q 0.239298 0.4786 0.239298 2.39298 q 0 0.34974 -0.05522 0.53382 q -0.110445 0.42337 -0.846745 0.42337 h -3.184497 v 2.83475 q 0.681078 0 1.54623 -0.0368 q 0.865153 -0.0368 1.086042 -0.0368 q 1.049228 0 1.270118 0.53382 q 0.184075 0.44178 0.184075 2.55864 z m -8.099299 -19.69602 q -1.012413 1.54623 -7.473444 10.0689 h 7.399814 q 0 -0.9756 -0.03682 -3.35016 q -0.05522 -2.15368 -0.03682 -3.36858 q 0.01841 -1.84075 0.14726 -3.35016 z" stroke-linecap="round"/>
</g>
</svg>