<svg xmlns="http://www.w3.org/2000/svg" xmlns:xlink="http://www.w3.org/1999/xlink" version="1.1" width="80" height="80" viewBox="0 0 80 80" xml:space="preserve">
<desc>Created with Fabric.js 3.5.0</desc>
<defs>
</defs>
<rect x="0" y="0" width="100%" height="100%" fill="#fff"/>
<g transform="matrix(1 0 0 1 40 39.9999)" id="241389">
<g style="">
		<g transform="matrix(0.611 0 0 0.611 18.8094 0.0012)" id="path2985-3-3">
<path style="stroke: none; stroke-width: 1; stroke-dasharray: none; stroke-linecap: butt; stroke-dashoffset: 0; stroke-linejoin: miter; stroke-miterlimit: 4; is-custom-font: none; font-file-url: none; fill: rgb(0,0,0); fill-rule: nonzero; opacity: 1;" transform=" translate(-58.6297, -785.7397)" d="m 45.70946 814.07624 c 0 -1.66823 -0.09238 -2.87307 -0.09238 -4.5413 c 3.448704 0 7.185441 0 10.634123 0 c 0 -3.96545 0 -4.24592 0 -8.2114 c -6.731793 0.2169 -14.01738 0.71685 -20.321702 -2.06095 c -4.879854 -2.67821 -6.226348 -8.91266 -5.242485 -14.03808 c 0.842118 -5.78261 4.056821 -10.91785 8.250581 -14.87291 c 5.457325 -5.83729 12.417214 -9.77784 19.683448 -12.94844 c 7.417061 3.22422 14.530399 7.29373 20.056933 13.28492 c 4.977887 4.67796 8.294558 11.2895 8.192664 18.21177 c 0.107967 4.99649 -2.987067 10.27644 -8.092154 11.36674 c -5.711113 1.58155 -11.491414 1.30096 -17.35423 1.05695 c 0 3.96548 0 4.24595 0 8.2114 c 3.448679 0 6.609354 0 10.058058 0 c 0 1.66823 0.0924 2.87307 0.0924 4.5413 c -7.896858 -0.0556 -17.335871 -0.0556 -25.865256 0 z" stroke-linecap="round"/>
</g>
		<g transform="matrix(1.6551 0 0 1.8863 -18.9073 0.0005)" id="path899">
<path style="stroke: none; stroke-width: 1; stroke-dasharray: none; stroke-linecap: butt; stroke-dashoffset: 0; stroke-linejoin: miter; stroke-miterlimit: 4; is-custom-font: none; font-file-url: none; fill: rgb(0,0,0); fill-rule: nonzero; opacity: 1;" transform=" translate(-18.3678, -694.4387)" d="m 28.418244 706.77169 q 0 0.38656 -0.14726 0.75471 q -0.331335 0.18407 -0.699485 0.18407 H 15.753885 q -1.362154 0 -1.362154 -1.38056 q 0 -0.22089 0.03682 -0.77311 q 0.03681 -0.55223 0.03681 -0.84675 q 0 -0.64426 0.276112 -0.82834 q 0.202483 -0.12885 0.901967 -0.12885 h 4.601875 v -2.83475 H 9.9187087 q -1.6014522 0 -1.6014522 -1.49101 q 0 -0.2577 0.055223 -0.93878 q 0.055222 -0.69949 0.055222 -1.10445 q 0 -0.62586 0.7178924 -1.56464 l 10.6395332 -13.9897 q 0.497003 -0.66267 1.25171 -0.66267 h 2.42979 q 0.865152 0 0.865152 0.95719 v 15.02052 q 0.66267 0 1.509415 -0.0368 q 0.865153 -0.0368 1.10445 -0.0368 q 0.994005 0 1.233302 0.497 q 0.239298 0.4786 0.239298 2.39298 q 0 0.34974 -0.05522 0.53382 q -0.110445 0.42337 -0.846745 0.42337 h -3.184497 v 2.83475 q 0.681078 0 1.54623 -0.0368 q 0.865153 -0.0368 1.086042 -0.0368 q 1.049228 0 1.270118 0.53382 q 0.184075 0.44178 0.184075 2.55864 z m -8.099299 -19.69602 q -1.012413 1.54623 -7.473444 10.0689 h 7.399814 q 0 -0.9756 -0.03682 -3.35016 q -0.05522 -2.15368 -0.03682 -3.36858 q 0.01841 -1.84075 0.14726 -3.35016 z" stroke-linecap="round"/>
</g>
</g>
</g>
</svg>