<svg xmlns="http://www.w3.org/2000/svg" xmlns:xlink="http://www.w3.org/1999/xlink" version="1.1" width="80" height="80" viewBox="0 0 80 80" xml:space="preserve">
<desc>Created with Fabric.js 3.5.0</desc>
<defs>
</defs>
<rect x="0" y="0" width="100%" height="100%" fill="#fff"/>
<g transform="matrix(1 0 0 1 40 40.0001)" id="541089">
<g style="">
		<g transform="matrix(1.7576 0 0 1.7576 19.1798 0.0004)" id="path4884-1-4-5-3">
<path style="stroke: none; stroke-width: 1; stroke-dasharray: none; stroke-linecap: butt; stroke-dashoffset: 0; stroke-linejoin: miter; stroke-miterlimit: 4; is-custom-font: none; font-file-url: none; fill: rgb(255,0,0); fill-rule: nonzero; opacity: 1;" transform=" translate(-17.2056, -771.2566)" d="m 17.205569 780.7021 l 9.414569 -9.44551 l -9.414569 -9.44552 l -9.4145688 9.44552 z" stroke-linecap="round"/>
</g>
		<g transform="matrix(1.752 0 0 1.7693 -19.1533 0.0005)" id="path893">
<path style="stroke: none; stroke-width: 1; stroke-dasharray: none; stroke-linecap: butt; stroke-dashoffset: 0; stroke-linejoin: miter; stroke-miterlimit: 4; is-custom-font: none; font-file-url: none; fill: rgb(255,0,0); fill-rule: nonzero; opacity: 1;" transform=" translate(-17.2903, -737.7127)" d="m 26.751238 742.30184 q 0 4.36509 -2.650231 6.93737 q -2.630744 2.57228 -6.99583 2.57228 q -4.189703 0 -6.625577 -2.04613 q -2.6502312 -2.18254 -2.6502312 -6.2943 q 0 -0.66256 1.0522976 -0.66256 h 2.5527956 q 0.409227 0 0.759993 0.11692 q 0.116922 0.19487 0.155896 0.50667 q 0.331279 2.20203 1.266654 3.15689 q 1.052298 1.07178 3.234841 1.07178 q 2.182543 0 3.527145 -1.53947 q 1.266655 -1.46152 1.266655 -3.66355 q 0 -5.43687 -4.501495 -5.43687 q -1.636907 0 -3.293302 1.13024 h -3.215353 q -0.448201 0 -0.857428 -0.11692 q -0.1948699 -0.19487 -0.1948699 -0.4482 q 0 -2.76715 0.2923048 -6.97634 q 0.2533311 -3.50766 0.5066621 -6.99583 h 14.615243 q 0.506662 0 0.915889 0.15589 q 0.175383 0.38974 0.175383 2.72818 q 0 0.38974 -0.03897 0.64307 q -0.136409 0.62359 -1.130245 0.62359 H 14.338024 q 0.05846 1.05229 -0.175383 3.21535 q -0.233844 2.14357 -0.175383 3.19587 q 2.00716 -1.24717 4.189703 -1.24717 q 4.014321 0 6.35276 2.72818 q 2.221517 2.57228 2.221517 6.64506 z" stroke-linecap="round"/>
</g>
</g>
</g>
</svg>