<svg xmlns="http://www.w3.org/2000/svg" xmlns:xlink="http://www.w3.org/1999/xlink" version="1.1" width="80" height="80" viewBox="0 0 80 80" xml:space="preserve">
<desc>Created with Fabric.js 3.5.0</desc>
<defs>
</defs>
<rect x="0" y="0" width="100%" height="100%" fill="#fff"/>
<g transform="matrix(1.7662 0 0 1.7837 20.9719 40.0003)" id="path910">
<path style="stroke: none; stroke-width: 1; stroke-dasharray: none; stroke-linecap: butt; stroke-dashoffset: 0; stroke-linejoin: miter; stroke-miterlimit: 4; is-custom-font: none; font-file-url: none; fill: rgb(0,0,0); fill-rule: nonzero; opacity: 1;" transform=" translate(-17.2903, -737.7127)" d="m 26.751228 742.30191 q 0 4.36508 -2.65023 6.93736 q -2.630743 2.57228 -6.995827 2.57228 q -4.189702 0 -6.625575 -2.04613 q -2.6502299 -2.18254 -2.6502299 -6.2943 q 0 -0.66255 1.0522972 -0.66255 h 2.5527947 q 0.409227 0 0.759993 0.11692 q 0.116921 0.19487 0.155895 0.50666 q 0.331279 2.20203 1.266654 3.15689 q 1.052298 1.07179 3.23484 1.07179 q 2.182542 0 3.527144 -1.53948 q 1.266654 -1.46152 1.266654 -3.66355 q 0 -5.43687 -4.501493 -5.43687 q -1.636907 0 -3.293301 1.13025 h -3.215352 q -0.448201 0 -0.8574275 -0.11692 q -0.1948698 -0.19487 -0.1948698 -0.4482 q 0 -2.76716 0.2923048 -6.97635 q 0.2533305 -3.50765 0.5066615 -6.99582 h 14.615238 q 0.506662 0 0.915888 0.15589 q 0.175383 0.38974 0.175383 2.72818 q 0 0.38974 -0.03897 0.64307 q -0.136409 0.62359 -1.130245 0.62359 H 14.338019 q 0.05846 1.05229 -0.175383 3.21535 q -0.233844 2.14357 -0.175383 3.19586 q 2.00716 -1.24716 4.189702 -1.24716 q 4.014318 0 6.352757 2.72817 q 2.221516 2.57229 2.221516 6.64507 z" stroke-linecap="round"/>
</g>
<g transform="matrix(10.5545 0 0 10.5545 59.8578 40)" id="279796">
<g style="">
		<g transform="matrix(0.0032 0 0 0.0032 0.0013 1.1222)" id="rect4124-6-9-7">
<rect style="stroke: none; stroke-width: 3.1813; stroke-dasharray: none; stroke-linecap: butt; stroke-dashoffset: 0; stroke-linejoin: miter; stroke-miterlimit: 4; is-custom-font: none; font-file-url: none; fill: rgb(0,0,0); fill-rule: nonzero; opacity: 1;" x="-42.6282" y="-147.84275" rx="0" ry="0" width="85.2564" height="295.6855"/>
</g>
		<g transform="matrix(0.0032 0 0 0.0032 0.0168 -0.0929)" id="path3979-1-6-1-2-4">
<path style="stroke: none; stroke-width: 3.1813; stroke-dasharray: none; stroke-linecap: butt; stroke-dashoffset: 0; stroke-linejoin: miter; stroke-miterlimit: 4; is-custom-font: none; font-file-url: none; fill: rgb(0,0,0); fill-rule: nonzero; opacity: 1;" transform=" translate(-2449.4023, -299.5777)" d="m 2917.8563 395.12877 c 67.135 120.80453 23.601 273.14486 -97.235 340.26188 c -120.8361 67.11691 -273.2161 23.5947 -340.3501 -97.20972 c -17.88 -32.17311 -28.44 -67.89332 -30.889 -104.57183 c -9.342 137.92083 -128.747 242.09126 -266.6621 232.71366 c -137.914 -9.37771 -242.111 -128.75233 -232.731 -266.63076 c 9.38 -137.87843 128.786 -242.04886 266.7 -232.67126 c 36.206 2.4619 71.4431 12.76531 103.7251 30.22171 c -118.1921 -70.88592 -156.8751 -224.529044 -85.9451 -343.145874 c 70.9301 -118.616826 224.6131 -157.289636 343.2611 -86.378126 c 118.647 70.911526 157.3301 224.554657 86.4 343.17148 c -21.341 35.68961 -51.243 65.49972 -86.812 86.88252 c 121.024 -66.97031 273.4041 -23.4481 340.5381 97.35632 z" stroke-linecap="round"/>
</g>
</g>
</g>
</svg>