<svg xmlns="http://www.w3.org/2000/svg" xmlns:xlink="http://www.w3.org/1999/xlink" version="1.1" width="320" height="456" viewBox="0 0 320 456" xml:space="preserve">
<desc>Created with Fabric.js 3.5.0</desc>
<defs>
</defs>
<rect x="0" y="0" width="100%" height="100%" fill="#fff"/>
<g transform="matrix(1.3733 0 0 1.3733 160.6761 228.6544)" id="rect4266">
<rect style="stroke: rgb(128,128,128); stroke-width: 0.7559; stroke-dasharray: none; stroke-linecap: butt; stroke-dashoffset: 0; stroke-linejoin: miter; stroke-miterlimit: 4; is-custom-font: none; font-file-url: none; fill: rgb(255,255,255); fill-rule: nonzero; opacity: 1;" x="-116.62205" y="-166.12205" rx="8.9191856" ry="8.9457436" width="233.2441" height="332.2441"/>
</g>
<g transform="matrix(1.8635 0 0 1.8635 58.5425 205.7574)" id="85379">
<g style="">
		<g transform="matrix(0.0565 0 0 0.0567 -0.0032 19.962)" id="rect4124-6-1">
<rect style="stroke: none; stroke-width: 3.1813; stroke-dasharray: none; stroke-linecap: butt; stroke-dashoffset: 0; stroke-linejoin: miter; stroke-miterlimit: 4; is-custom-font: none; font-file-url: none; fill: rgb(0,0,0); fill-rule: nonzero; opacity: 1;" x="-42.6282" y="-147.84275" rx="0" ry="0" width="85.2564" height="295.6855"/>
</g>
		<g transform="matrix(0.0565 0 0 0.0567 0.0064 -1.8377)" id="path3979-1-6-1-52">
<path style="stroke: none; stroke-width: 3.1813; stroke-dasharray: none; stroke-linecap: butt; stroke-dashoffset: 0; stroke-linejoin: miter; stroke-miterlimit: 4; is-custom-font: none; font-file-url: none; fill: rgb(0,0,0); fill-rule: nonzero; opacity: 1;" transform=" translate(-2449.4023, -299.5777)" d="m 2917.8563 395.12877 c 67.135 120.80453 23.601 273.14486 -97.235 340.26188 c -120.8361 67.11691 -273.2161 23.5947 -340.3501 -97.20972 c -17.88 -32.17311 -28.44 -67.89332 -30.889 -104.57183 c -9.342 137.92083 -128.747 242.09126 -266.6621 232.71366 c -137.914 -9.37771 -242.111 -128.75233 -232.731 -266.63076 c 9.38 -137.87843 128.786 -242.04886 266.7 -232.67126 c 36.206 2.4619 71.4431 12.76531 103.7251 30.22171 c -118.1921 -70.88592 -156.8751 -224.529044 -85.9451 -343.145874 c 70.9301 -118.616826 224.6131 -157.289636 343.2611 -86.378126 c 118.647 70.911526 157.3301 224.554657 86.4 343.17148 c -21.341 35.68961 -51.243 65.49972 -86.812 86.88252 c 121.024 -66.97031 273.4041 -23.4481 340.5381 97.35632 z" stroke-linecap="round"/>
</g>
</g>
</g>
<g transform="matrix(1 0 0 1 207.1766 331.5466)" id="615407">
<g style="">
		<g transform="matrix(0.1838 0 0 0.1844 -0.0295 64.9091)" id="rect4124-6-1">
<rect style="stroke: none; stroke-width: 3.1813; stroke-dasharray: none; stroke-linecap: butt; stroke-dashoffset: 0; stroke-linejoin: miter; stroke-miterlimit: 4; is-custom-font: none; font-file-url: none; fill: rgb(0,0,0); fill-rule: nonzero; opacity: 1;" x="-42.6282" y="-147.84275" rx="0" ry="0" width="85.2564" height="295.6855"/>
</g>
		<g transform="matrix(0.1838 0 0 0.1844 0.0205 -5.9948)" id="path3979-1-6-1-52">
<path style="stroke: none; stroke-width: 3.1813; stroke-dasharray: none; stroke-linecap: butt; stroke-dashoffset: 0; stroke-linejoin: miter; stroke-miterlimit: 4; is-custom-font: none; font-file-url: none; fill: rgb(0,0,0); fill-rule: nonzero; opacity: 1;" transform=" translate(-2449.4023, -299.5777)" d="m 2917.8563 395.12877 c 67.135 120.80453 23.601 273.14486 -97.235 340.26188 c -120.8361 67.11691 -273.2161 23.5947 -340.3501 -97.20972 c -17.88 -32.17311 -28.44 -67.89332 -30.889 -104.57183 c -9.342 137.92083 -128.747 242.09126 -266.6621 232.71366 c -137.914 -9.37771 -242.111 -128.75233 -232.731 -266.63076 c 9.38 -137.87843 128.786 -242.04886 266.7 -232.67126 c 36.206 2.4619 71.4431 12.76531 103.7251 30.22171 c -118.1921 -70.88592 -156.8751 -224.529044 -85.9451 -343.145874 c 70.9301 -118.616826 224.6131 -157.289636 343.2611 -86.378126 c 118.647 70.911526 157.3301 224.554657 86.4 343.17148 c -21.341 35.68961 -51.243 65.49972 -86.812 86.88252 c 121.024 -66.97031 273.4041 -23.4481 340.5381 97.35632 z" stroke-linecap="round"/>
</g>
</g>
</g>
<g transform="matrix(4.2293 0 0 4.271 58.5425 72.5561)" id="588140">
<path style="stroke: none; stroke-width: 1; stroke-dasharray: none; stroke-linecap: butt; stroke-dashoffset: 0; stroke-linejoin: miter; stroke-miterlimit: 4; is-custom-font: none; font-file-url: none; fill: rgb(0,0,0); fill-rule: nonzero; opacity: 1;" transform=" translate(-17.2903, -737.7127)" d="m 26.751238 742.30184 q 0 4.36509 -2.650231 6.93737 q -2.630744 2.57228 -6.99583 2.57228 q -4.189703 0 -6.625577 -2.04613 q -2.6502312 -2.18254 -2.6502312 -6.2943 q 0 -0.66256 1.0522976 -0.66256 h 2.5527956 q 0.409227 0 0.759993 0.11692 q 0.116922 0.19487 0.155896 0.50667 q 0.331279 2.20203 1.266654 3.15689 q 1.052298 1.07178 3.234841 1.07178 q 2.182543 0 3.527145 -1.53947 q 1.266655 -1.46152 1.266655 -3.66355 q 0 -5.43687 -4.501495 -5.43687 q -1.636907 0 -3.293302 1.13024 h -3.215353 q -0.448201 0 -0.857428 -0.11692 q -0.1948699 -0.19487 -0.1948699 -0.4482 q 0 -2.76715 0.2923048 -6.97634 q 0.2533311 -3.50766 0.5066621 -6.99583 h 14.615243 q 0.506662 0 0.915889 0.15589 q 0.175383 0.38974 0.175383 2.72818 q 0 0.38974 -0.03897 0.64307 q -0.136409 0.62359 -1.130245 0.62359 H 14.338024 q 0.05846 1.05229 -0.175383 3.21535 q -0.233844 2.14357 -0.175383 3.19587 q 2.00716 -1.24717 4.189703 -1.24717 q 4.014321 0 6.35276 2.72818 q 2.221517 2.57228 2.221517 6.64506 z" stroke-linecap="round"/>
</g>
</svg>