<svg xmlns="http://www.w3.org/2000/svg" xmlns:xlink="http://www.w3.org/1999/xlink" version="1.1" width="80" height="80" viewBox="0 0 80 80" xml:space="preserve">
<desc>Created with Fabric.js 3.5.0</desc>
<defs>
</defs>
<rect x="0" y="0" width="100%" height="100%" fill="#fff"/>
<g transform="matrix(1 0 0 1 39.9999 39.9999)" id="647703">
<g style="">
		<g transform="matrix(1.7522 0 0 1.7522 19.5508 0)" id="path3940-9-0">
<path style="stroke: none; stroke-width: 1; stroke-dasharray: none; stroke-linecap: butt; stroke-dashoffset: 0; stroke-linejoin: miter; stroke-miterlimit: 4; is-custom-font: none; font-file-url: none; fill: rgb(255,0,0); fill-rule: nonzero; opacity: 1;" transform=" translate(-17.2056, -771.2565)" d="m 17.194709 780.70206 c -0.884404 -1.89863 -2.026046 -3.67278 -3.382435 -5.25648 c -0.87477 -1.02135 -1.836311 -1.96168 -2.810437 -2.88504 c -0.760948 -0.72123 -1.5353906 -1.43859 -2.1580074 -2.28629 c -0.4206116 -0.57272 -0.7716181 -1.20987 -0.9388522 -1.90446 c -0.3028667 -1.25806 0.026675 -2.60669 0.6482558 -3.73679 c 0.3640614 -0.66181 0.8298315 -1.27048 1.4035868 -1.7543 c 0.852458 -0.71887 1.964695 -1.14871 3.067706 -1.05488 c 1.011533 0.086 1.957446 0.60263 2.695611 1.3121 c 0.653277 0.62794 1.162103 1.41066 1.48543 2.26832 c 0.323328 -0.85766 0.832154 -1.64038 1.485431 -2.26832 c 0.738165 -0.70947 1.684078 -1.22609 2.695611 -1.3121 c 1.102986 -0.0939 2.215223 0.33601 3.06769 1.05488 c 0.573755 0.48382 1.039538 1.09249 1.403587 1.7543 c 0.621635 1.1301 0.951135 2.47873 0.648256 3.73679 c -0.167222 0.69459 -0.518241 1.33174 -0.938862 1.90446 c -0.622607 0.8477 -1.397059 1.56506 -2.157985 2.28629 c -0.974135 0.92336 -1.935695 1.86369 -2.810434 2.88504 c -1.35642 1.5837 -2.498062 3.35785 -3.382467 5.25648" stroke-linecap="round"/>
</g>
		<g transform="matrix(1.7436 0 0 1.7608 -19.5551 -0.0004)" id="path898">
<path style="stroke: none; stroke-width: 1; stroke-dasharray: none; stroke-linecap: butt; stroke-dashoffset: 0; stroke-linejoin: miter; stroke-miterlimit: 4; is-custom-font: none; font-file-url: none; fill: rgb(255,0,0); fill-rule: nonzero; opacity: 1;" transform=" translate(-17.2903, -737.7127)" d="m 26.751238 742.3019 q 0 4.36509 -2.650231 6.93737 q -2.630744 2.57228 -6.99583 2.57228 q -4.189703 0 -6.625577 -2.04613 q -2.6502312 -2.18254 -2.6502312 -6.2943 q 0 -0.66256 1.0522976 -0.66256 h 2.5527956 q 0.409227 0 0.759993 0.11693 q 0.116922 0.19487 0.155896 0.50666 q 0.331279 2.20203 1.266654 3.15689 q 1.052298 1.07178 3.234841 1.07178 q 2.182543 0 3.527145 -1.53947 q 1.266655 -1.46152 1.266655 -3.66355 q 0 -5.43687 -4.501495 -5.43687 q -1.636907 0 -3.293302 1.13024 h -3.215353 q -0.448201 0 -0.857428 -0.11692 q -0.1948699 -0.19487 -0.1948699 -0.4482 q 0 -2.76715 0.2923048 -6.97634 q 0.2533311 -3.50766 0.5066621 -6.99583 h 14.615243 q 0.506662 0 0.915889 0.15589 q 0.175383 0.38974 0.175383 2.72818 q 0 0.38974 -0.03897 0.64307 q -0.136409 0.62359 -1.130245 0.62359 H 14.338024 q 0.05846 1.05229 -0.175383 3.21535 q -0.233844 2.14357 -0.175383 3.19587 q 2.00716 -1.24717 4.189703 -1.24717 q 4.014321 0 6.35276 2.72818 q 2.221517 2.57228 2.221517 6.64506 z" stroke-linecap="round"/>
</g>
</g>
</g>
</svg>