<svg xmlns="http://www.w3.org/2000/svg" xmlns:xlink="http://www.w3.org/1999/xlink" version="1.1" width="320" height="456" viewBox="0 0 320 456" xml:space="preserve">
<desc>Created with Fabric.js 3.5.0</desc>
<defs>
</defs>
<rect x="0" y="0" width="100%" height="100%" fill="#fff"/>
<g transform="matrix(1.3733 0 0 1.3733 160.6761 228.6544)" id="439083">
<rect style="stroke: rgb(128,128,128); stroke-width: 0.7559; stroke-dasharray: none; stroke-linecap: butt; stroke-dashoffset: 0; stroke-linejoin: miter; stroke-miterlimit: 4; is-custom-font: none; font-file-url: none; fill: rgb(255,255,255); fill-rule: nonzero; opacity: 1;" x="-116.62205" y="-166.12205" rx="8.9191856" ry="8.9457436" width="233.2441" height="332.2441"/>
</g>
<g transform="matrix(5.8726 0 0 5.8726 58.2243 205.5734)" id="38856">
<path style="stroke: none; stroke-width: 1; stroke-dasharray: none; stroke-linecap: butt; stroke-dashoffset: 0; stroke-linejoin: miter; stroke-miterlimit: 4; is-custom-font: none; font-file-url: none; fill: rgb(0,0,0); fill-rule: nonzero; opacity: 1;" transform=" translate(-17.2056, -51.8944)" d="m 12.898825 61.339964 c 0 -0.55606 -0.03079 -0.95769 -0.03079 -1.51377 c 1.149566 0 2.395148 0 3.544708 0 c 0 -1.32181 0 -1.41529 0 -2.73713 c -2.243931 0.0723 -4.67246 0.23894 -6.7739019 -0.687 c -1.6266179 -0.89273 -2.0754481 -2.97087 -1.7474947 -4.67934 c 0.2807048 -1.92755 1.3522742 -3.63929 2.7501936 -4.95763 c 1.819108 -1.94578 4.139071 -3.25931 6.561151 -4.31616 c 2.472354 1.07474 4.843466 2.43124 6.685643 4.4283 c 1.659299 1.55933 2.764852 3.76316 2.730888 6.07061 c 0.03599 1.66549 -0.995685 3.42547 -2.697384 3.78891 c -1.903705 0.52718 -3.830472 0.43364 -5.784745 0.35231 c 0 1.32184 0 1.41532 0 2.73713 c 1.14956 0 2.203119 0 3.352688 0 c 0 0.55608 0.03079 0.95771 0.03079 1.51377 c -2.632285 -0.0186 -5.778625 -0.0186 -8.621752 0 z" stroke-linecap="round"/>
</g>
<g transform="matrix(9.2967 0 0 9.2967 209.2719 331.527)" id="92930">
<path style="stroke: none; stroke-width: 1; stroke-dasharray: none; stroke-linecap: butt; stroke-dashoffset: 0; stroke-linejoin: miter; stroke-miterlimit: 4; is-custom-font: none; font-file-url: none; fill: rgb(0,0,0); fill-rule: nonzero; opacity: 1;" transform=" translate(-17.2056, -51.8944)" d="m 12.898825 61.339964 c 0 -0.55606 -0.03079 -0.95769 -0.03079 -1.51377 c 1.149566 0 2.395148 0 3.544708 0 c 0 -1.32181 0 -1.41529 0 -2.73713 c -2.243931 0.0723 -4.67246 0.23894 -6.7739019 -0.687 c -1.6266179 -0.89273 -2.0754481 -2.97087 -1.7474947 -4.67934 c 0.2807048 -1.92755 1.3522742 -3.63929 2.7501936 -4.95763 c 1.819108 -1.94578 4.139071 -3.25931 6.561151 -4.31616 c 2.472354 1.07474 4.843466 2.43124 6.685643 4.4283 c 1.659299 1.55933 2.764852 3.76316 2.730888 6.07061 c 0.03599 1.66549 -0.995685 3.42547 -2.697384 3.78891 c -1.903705 0.52718 -3.830472 0.43364 -5.784745 0.35231 c 0 1.32184 0 1.41532 0 2.73713 c 1.14956 0 2.203119 0 3.352688 0 c 0 0.55608 0.03079 0.95771 0.03079 1.51377 c -2.632285 -0.0186 -5.778625 -0.0186 -8.621752 0 z" stroke-linecap="round"/>
</g>
<g transform="matrix(4.2293 0 0 4.271 58.2239 72.5551)" id="783625">
<path style="stroke: none; stroke-width: 1; stroke-dasharray: none; stroke-linecap: butt; stroke-dashoffset: 0; stroke-linejoin: miter; stroke-miterlimit: 4; is-custom-font: none; font-file-url: none; fill: rgb(0,0,0); fill-rule: nonzero; opacity: 1;" transform=" translate(-17.2903, -737.7127)" d="m 26.751238 742.30184 q 0 4.36509 -2.650231 6.93737 q -2.630744 2.57228 -6.99583 2.57228 q -4.189703 0 -6.625577 -2.04613 q -2.6502312 -2.18254 -2.6502312 -6.2943 q 0 -0.66256 1.0522976 -0.66256 h 2.5527956 q 0.409227 0 0.759993 0.11692 q 0.116922 0.19487 0.155896 0.50667 q 0.331279 2.20203 1.266654 3.15689 q 1.052298 1.07178 3.234841 1.07178 q 2.182543 0 3.527145 -1.53947 q 1.266655 -1.46152 1.266655 -3.66355 q 0 -5.43687 -4.501495 -5.43687 q -1.636907 0 -3.293302 1.13024 h -3.215353 q -0.448201 0 -0.857428 -0.11692 q -0.1948699 -0.19487 -0.1948699 -0.4482 q 0 -2.76715 0.2923048 -6.97634 q 0.2533311 -3.50766 0.5066621 -6.99583 h 14.615243 q 0.506662 0 0.915889 0.15589 q 0.175383 0.38974 0.175383 2.72818 q 0 0.38974 -0.03897 0.64307 q -0.136409 0.62359 -1.130245 0.62359 H 14.338024 q 0.05846 1.05229 -0.175383 3.21535 q -0.233844 2.14357 -0.175383 3.19587 q 2.00716 -1.24717 4.189703 -1.24717 q 4.014321 0 6.35276 2.72818 q 2.221517 2.57228 2.221517 6.64506 z" stroke-linecap="round"/>
</g>
</svg>