<svg xmlns="http://www.w3.org/2000/svg" xmlns:xlink="http://www.w3.org/1999/xlink" version="1.1" width="320" height="456" viewBox="0 0 320 456" xml:space="preserve">
<desc>Created with Fabric.js 3.5.0</desc>
<defs>
</defs>
<rect x="0" y="0" width="100%" height="100%" fill="#fff"/>
<g transform="matrix(1.3733 0 0 1.3733 160.6761 228.6544)" id="257067">
<rect style="stroke: rgb(128,128,128); stroke-width: 0.7559; stroke-dasharray: none; stroke-linecap: butt; stroke-dashoffset: 0; stroke-linejoin: miter; stroke-miterlimit: 4; is-custom-font: none; font-file-url: none; fill: rgb(255,255,255); fill-rule: nonzero; opacity: 1;" x="-116.62205" y="-166.12205" rx="8.9191856" ry="8.9457436" width="233.2441" height="332.2441"/>
</g>
<g transform="matrix(3.2049 0 0 3.2049 209.324 326.1393)" id="685584">
<path style="stroke: none; stroke-width: 1; stroke-dasharray: none; stroke-linecap: butt; stroke-dashoffset: 0; stroke-linejoin: miter; stroke-miterlimit: 4; is-custom-font: none; font-file-url: none; fill: rgb(255,0,0); fill-rule: nonzero; opacity: 1;" transform=" translate(-117, -885.8622)" d="M 117 914.1987 L 145.24371 885.86217 L 117 857.52563 L 88.756294 885.86217 Z" stroke-linecap="round"/>
</g>
<g transform="matrix(5.8504 0 0 5.8504 58.5439 205.1273)" id="892868">
<path style="stroke: none; stroke-width: 1; stroke-dasharray: none; stroke-linecap: butt; stroke-dashoffset: 0; stroke-linejoin: miter; stroke-miterlimit: 4; is-custom-font: none; font-file-url: none; fill: rgb(255,0,0); fill-rule: nonzero; opacity: 1;" transform=" translate(-17.2056, -771.2566)" d="m 17.205569 780.7021 l 9.414569 -9.44551 l -9.414569 -9.44552 l -9.4145688 9.44552 z" stroke-linecap="round"/>
</g>
<g transform="matrix(4.174 0 0 4.2562 58.5442 71.0599)" id="920262">
<path style="stroke: none; stroke-width: 1; stroke-dasharray: none; stroke-linecap: butt; stroke-dashoffset: 0; stroke-linejoin: miter; stroke-miterlimit: 4; is-custom-font: none; font-file-url: none; fill: rgb(255,0,0); fill-rule: nonzero; opacity: 1;" transform=" translate(-17.3742, -734.1494)" d="m 26.881078 738.99851 q 0 4.24652 -2.467574 6.71409 q -2.448446 2.46758 -6.694968 2.46758 q -9.8511667 0 -9.8511667 -13.61948 q 0 -6.00634 2.1232612 -9.7364 q 2.6397305 -4.7056 8.1869895 -4.7056 q 3.213584 0 5.336845 1.31986 q 2.544088 1.56854 2.544088 4.59084 q 0 0.6695 -0.937296 0.6695 h -2.831014 q -0.554726 0 -0.937296 -0.63124 q -0.554726 -0.9373 -0.87991 -1.2051 q -0.784268 -0.63124 -2.295417 -0.63124 q -2.544088 0 -3.959596 2.37193 q -1.109451 1.91285 -1.243351 4.70561 q 2.238032 -1.77895 5.355974 -1.77895 q 3.959596 0 6.312398 2.79276 q 2.238033 2.63973 2.238033 6.67584 z m -4.992534 -0.11477 q 0 -2.18065 -1.090323 -3.59616 q -1.205094 -1.56853 -3.328355 -1.56853 q -2.104133 0 -3.290099 1.56853 q -1.071194 1.41551 -1.071194 3.59616 q 0 2.085 1.12858 3.53876 q 1.224223 1.58767 3.251841 1.58767 q 2.065876 0 3.290099 -1.56854 q 1.109451 -1.43463 1.109451 -3.55789 z" stroke-linecap="round"/>
</g>
</svg>