<svg xmlns="http://www.w3.org/2000/svg" xmlns:xlink="http://www.w3.org/1999/xlink" version="1.1" width="80" height="80" viewBox="0 0 80 80" xml:space="preserve">
<desc>Created with Fabric.js 3.5.0</desc>
<defs>
</defs>
<rect x="0" y="0" width="100%" height="100%" fill="#fff"/>
<g transform="matrix(1 0 0 1 40 40.0001)" id="113478">
<g style="">
		<g transform="matrix(1.7675 0 0 1.8023 -18.9117 0)" id="347242">
<path style="stroke: none; stroke-width: 1; stroke-dasharray: none; stroke-linecap: butt; stroke-dashoffset: 0; stroke-linejoin: miter; stroke-miterlimit: 4; is-custom-font: none; font-file-url: none; fill: rgb(0,0,0); fill-rule: nonzero; opacity: 1;" transform=" translate(-17.3742, -734.1494)" d="m 26.881078 738.99851 q 0 4.24652 -2.467574 6.71409 q -2.448446 2.46758 -6.694968 2.46758 q -9.8511667 0 -9.8511667 -13.61948 q 0 -6.00634 2.1232612 -9.7364 q 2.6397305 -4.7056 8.1869895 -4.7056 q 3.213584 0 5.336845 1.31986 q 2.544088 1.56854 2.544088 4.59084 q 0 0.6695 -0.937296 0.6695 h -2.831014 q -0.554726 0 -0.937296 -0.63124 q -0.554726 -0.9373 -0.87991 -1.2051 q -0.784268 -0.63124 -2.295417 -0.63124 q -2.544088 0 -3.959596 2.37193 q -1.109451 1.91285 -1.243351 4.70561 q 2.238032 -1.77895 5.355974 -1.77895 q 3.959596 0 6.312398 2.79276 q 2.238033 2.63973 2.238033 6.67584 z m -4.992534 -0.11477 q 0 -2.18065 -1.090323 -3.59616 q -1.205094 -1.56853 -3.328355 -1.56853 q -2.104133 0 -3.290099 1.56853 q -1.071194 1.41551 -1.071194 3.59616 q 0 2.085 1.12858 3.53876 q 1.224223 1.58767 3.251841 1.58767 q 2.065876 0 3.290099 -1.56854 q 1.109451 -1.43463 1.109451 -3.55789 z" stroke-linecap="round"/>
</g>
		<g transform="matrix(10.5545 0 0 10.5545 19.8356 0)" id="870363">
<g style="">
		<g transform="matrix(0.0032 0 0 0.0032 0.0013 1.1222)" id="rect4124-6-9-7">
<rect style="stroke: none; stroke-width: 3.1813; stroke-dasharray: none; stroke-linecap: butt; stroke-dashoffset: 0; stroke-linejoin: miter; stroke-miterlimit: 4; is-custom-font: none; font-file-url: none; fill: rgb(0,0,0); fill-rule: nonzero; opacity: 1;" x="-42.6282" y="-147.84275" rx="0" ry="0" width="85.2564" height="295.6855"/>
</g>
		<g transform="matrix(0.0032 0 0 0.0032 0.0168 -0.0929)" id="path3979-1-6-1-2-4">
<path style="stroke: none; stroke-width: 3.1813; stroke-dasharray: none; stroke-linecap: butt; stroke-dashoffset: 0; stroke-linejoin: miter; stroke-miterlimit: 4; is-custom-font: none; font-file-url: none; fill: rgb(0,0,0); fill-rule: nonzero; opacity: 1;" transform=" translate(-2449.4023, -299.5777)" d="m 2917.8563 395.12877 c 67.135 120.80453 23.601 273.14486 -97.235 340.26188 c -120.8361 67.11691 -273.2161 23.5947 -340.3501 -97.20972 c -17.88 -32.17311 -28.44 -67.89332 -30.889 -104.57183 c -9.342 137.92083 -128.747 242.09126 -266.6621 232.71366 c -137.914 -9.37771 -242.111 -128.75233 -232.731 -266.63076 c 9.38 -137.87843 128.786 -242.04886 266.7 -232.67126 c 36.206 2.4619 71.4431 12.76531 103.7251 30.22171 c -118.1921 -70.88592 -156.8751 -224.529044 -85.9451 -343.145874 c 70.9301 -118.616826 224.6131 -157.289636 343.2611 -86.378126 c 118.647 70.911526 157.3301 224.554657 86.4 343.17148 c -21.341 35.68961 -51.243 65.49972 -86.812 86.88252 c 121.024 -66.97031 273.4041 -23.4481 340.5381 97.35632 z" stroke-linecap="round"/>
</g>
</g>
</g>
</g>
</g>
</svg>