<svg xmlns="http://www.w3.org/2000/svg" xmlns:xlink="http://www.w3.org/1999/xlink" version="1.1" width="80" height="80" viewBox="0 0 80 80" xml:space="preserve">
<desc>Created with Fabric.js 3.5.0</desc>
<defs>
</defs>
<rect x="0" y="0" width="100%" height="100%" fill="#fff"/>
<g transform="matrix(1 0 0 1 40 40)" id="630854">
<g style="">
		<g transform="matrix(1.7533 0 0 1.7533 19.6168 0)" id="path3940-9-0">
<path style="stroke: none; stroke-width: 1; stroke-dasharray: none; stroke-linecap: butt; stroke-dashoffset: 0; stroke-linejoin: miter; stroke-miterlimit: 4; is-custom-font: none; font-file-url: none; fill: rgb(255,0,0); fill-rule: nonzero; opacity: 1;" transform=" translate(-17.2056, -771.2566)" d="m 17.194709 780.70209 c -0.884404 -1.89864 -2.026046 -3.67279 -3.382435 -5.25649 c -0.87477 -1.02134 -1.836311 -1.96168 -2.810437 -2.88504 c -0.760948 -0.72123 -1.5353906 -1.43858 -2.1580074 -2.28628 c -0.4206116 -0.57272 -0.7716181 -1.20988 -0.9388522 -1.90447 c -0.3028667 -1.25805 0.026675 -2.60668 0.6482558 -3.73677 c 0.3640614 -0.66182 0.8298315 -1.27049 1.4035868 -1.75432 c 0.852458 -0.71887 1.964695 -1.1487 3.067706 -1.05487 c 1.011533 0.086 1.957446 0.60262 2.695611 1.3121 c 0.653277 0.62794 1.162103 1.41066 1.48543 2.26831 c 0.323328 -0.85765 0.832154 -1.64037 1.485431 -2.26831 c 0.738165 -0.70948 1.684078 -1.22609 2.695611 -1.3121 c 1.102986 -0.0938 2.215223 0.336 3.06769 1.05487 c 0.573755 0.48383 1.039538 1.0925 1.403587 1.75432 c 0.621635 1.13009 0.951135 2.47872 0.648256 3.73677 c -0.167222 0.69459 -0.518241 1.33175 -0.938862 1.90447 c -0.622607 0.8477 -1.397059 1.56505 -2.157985 2.28628 c -0.974135 0.92336 -1.935695 1.8637 -2.810434 2.88504 c -1.35642 1.5837 -2.498062 3.35785 -3.382467 5.25649" stroke-linecap="round"/>
</g>
		<g transform="matrix(1.768 0 0 1.8028 -19.3079 0)" id="29174">
<path style="stroke: none; stroke-width: 1; stroke-dasharray: none; stroke-linecap: butt; stroke-dashoffset: 0; stroke-linejoin: miter; stroke-miterlimit: 4; is-custom-font: none; font-file-url: none; fill: rgb(255,0,0); fill-rule: nonzero; opacity: 1;" transform=" translate(-17.3742, -734.1494)" d="m 26.881078 738.99851 q 0 4.24652 -2.467574 6.71409 q -2.448446 2.46758 -6.694968 2.46758 q -9.8511667 0 -9.8511667 -13.61948 q 0 -6.00634 2.1232612 -9.7364 q 2.6397305 -4.7056 8.1869895 -4.7056 q 3.213584 0 5.336845 1.31986 q 2.544088 1.56854 2.544088 4.59084 q 0 0.6695 -0.937296 0.6695 h -2.831014 q -0.554726 0 -0.937296 -0.63124 q -0.554726 -0.9373 -0.87991 -1.2051 q -0.784268 -0.63124 -2.295417 -0.63124 q -2.544088 0 -3.959596 2.37193 q -1.109451 1.91285 -1.243351 4.70561 q 2.238032 -1.77895 5.355974 -1.77895 q 3.959596 0 6.312398 2.79276 q 2.238033 2.63973 2.238033 6.67584 z m -4.992534 -0.11477 q 0 -2.18065 -1.090323 -3.59616 q -1.205094 -1.56853 -3.328355 -1.56853 q -2.104133 0 -3.290099 1.56853 q -1.071194 1.41551 -1.071194 3.59616 q 0 2.085 1.12858 3.53876 q 1.224223 1.58767 3.251841 1.58767 q 2.065876 0 3.290099 -1.56854 q 1.109451 -1.43463 1.109451 -3.55789 z" stroke-linecap="round"/>
</g>
</g>
</g>
</svg>