<svg xmlns="http://www.w3.org/2000/svg" xmlns:xlink="http://www.w3.org/1999/xlink" version="1.1" width="320" height="456" viewBox="0 0 320 456" xml:space="preserve">
<desc>Created with Fabric.js 3.5.0</desc>
<defs>
</defs>
<rect x="0" y="0" width="100%" height="100%" fill="#fff"/>
<g transform="matrix(1.3733 0 0 1.3733 160.6761 228.6544)" id="344471">
<rect style="stroke: rgb(128,128,128); stroke-width: 0.7559; stroke-dasharray: none; stroke-linecap: butt; stroke-dashoffset: 0; stroke-linejoin: miter; stroke-miterlimit: 4; is-custom-font: none; font-file-url: none; fill: rgb(255,255,255); fill-rule: nonzero; opacity: 1;" x="-116.62205" y="-166.12205" rx="8.9191856" ry="8.9457436" width="233.2441" height="332.2441"/>
</g>
<g transform="matrix(3.2049 0 0 3.2049 209.324 326.1393)" id="524152">
<path style="stroke: none; stroke-width: 1; stroke-dasharray: none; stroke-linecap: butt; stroke-dashoffset: 0; stroke-linejoin: miter; stroke-miterlimit: 4; is-custom-font: none; font-file-url: none; fill: rgb(255,0,0); fill-rule: nonzero; opacity: 1;" transform=" translate(-117, -885.8622)" d="M 117 914.1987 L 145.24371 885.86217 L 117 857.52563 L 88.756294 885.86217 Z" stroke-linecap="round"/>
</g>
<g transform="matrix(5.8504 0 0 5.8504 58.5439 205.1273)" id="725946">
<path style="stroke: none; stroke-width: 1; stroke-dasharray: none; stroke-linecap: butt; stroke-dashoffset: 0; stroke-linejoin: miter; stroke-miterlimit: 4; is-custom-font: none; font-file-url: none; fill: rgb(255,0,0); fill-rule: nonzero; opacity: 1;" transform=" translate(-17.2056, -771.2566)" d="m 17.205569 780.7021 l 9.414569 -9.44551 l -9.414569 -9.44552 l -9.4145688 9.44552 z" stroke-linecap="round"/>
</g>
<g transform="matrix(4.3408 0 0 4.0925 58.5442 70.4764)" id="230010">
<path style="stroke: none; stroke-width: 1; stroke-dasharray: none; stroke-linecap: butt; stroke-dashoffset: 0; stroke-linejoin: miter; stroke-miterlimit: 4; is-custom-font: none; font-file-url: none; fill: rgb(255,0,0); fill-rule: nonzero; opacity: 1;" transform=" translate(-16.7064, -763.4944)" d="m 25.847902 752.97249 l -7.70991 24.17272 q -0.30676 0.94073 -1.554252 0.94073 h -3.026702 q -0.940732 0 -0.940732 -0.59307 q 0 -0.57262 3.865181 -11.57509 q 2.249575 -6.33972 4.478701 -12.65898 h -9.059656 q -0.06135 0.89983 -0.368112 2.61769 q -0.28631 0.18406 -0.613521 0.18406 H 8.5466193 q -0.981633 0 -0.981633 -0.71578 q 0 -0.34766 0.59307 -6.44197 H 25.847902 Z" stroke-linecap="round"/>
</g>
</svg>