<svg xmlns="http://www.w3.org/2000/svg" xmlns:xlink="http://www.w3.org/1999/xlink" version="1.1" width="80" height="80" viewBox="0 0 80 80" xml:space="preserve">
<desc>Created with Fabric.js 3.5.0</desc>
<defs>
</defs>
<rect x="0" y="0" width="100%" height="100%" fill="#fff"/>
<g transform="matrix(1 0 0 1 40 40.0001)" id="749260">
<g style="">
		<g transform="matrix(1.84 0 0 1.7348 -19.2935 0)" id="245749">
<path style="stroke: none; stroke-width: 1; stroke-dasharray: none; stroke-linecap: butt; stroke-dashoffset: 0; stroke-linejoin: miter; stroke-miterlimit: 4; is-custom-font: none; font-file-url: none; fill: rgb(255,0,0); fill-rule: nonzero; opacity: 1;" transform=" translate(-16.7064, -763.4944)" d="m 25.847902 752.97249 l -7.70991 24.17272 q -0.30676 0.94073 -1.554252 0.94073 h -3.026702 q -0.940732 0 -0.940732 -0.59307 q 0 -0.57262 3.865181 -11.57509 q 2.249575 -6.33972 4.478701 -12.65898 h -9.059656 q -0.06135 0.89983 -0.368112 2.61769 q -0.28631 0.18406 -0.613521 0.18406 H 8.5466193 q -0.981633 0 -0.981633 -0.71578 q 0 -0.34766 0.59307 -6.44197 H 25.847902 Z" stroke-linecap="round"/>
</g>
		<g transform="matrix(1.7853 0 0 1.7853 19.3334 0)" id="495258">
<path style="stroke: none; stroke-width: 1; stroke-dasharray: none; stroke-linecap: butt; stroke-dashoffset: 0; stroke-linejoin: miter; stroke-miterlimit: 4; is-custom-font: none; font-file-url: none; fill: rgb(255,0,0); fill-rule: nonzero; opacity: 1;" transform=" translate(-17.2056, -771.2566)" d="m 17.205569 780.7021 l 9.414569 -9.44551 l -9.414569 -9.44552 l -9.4145688 9.44552 z" stroke-linecap="round"/>
</g>
</g>
</g>
</svg>