<svg xmlns="http://www.w3.org/2000/svg" xmlns:xlink="http://www.w3.org/1999/xlink" version="1.1" width="80" height="80" viewBox="0 0 80 80" xml:space="preserve">
<desc>Created with Fabric.js 3.5.0</desc>
<defs>
</defs>
<rect x="0" y="0" width="100%" height="100%" fill="#fff"/>
<g transform="matrix(1 0 0 1 40 40)" id="578765">
<g style="">
		<g transform="matrix(1.8095 0 0 1.706 -19.6585 0)" id="464781">
<path style="stroke: none; stroke-width: 1; stroke-dasharray: none; stroke-linecap: butt; stroke-dashoffset: 0; stroke-linejoin: miter; stroke-miterlimit: 4; is-custom-font: none; font-file-url: none; fill: rgb(0,0,0); fill-rule: nonzero; opacity: 1;" transform=" translate(-16.7064, -763.4944)" d="m 25.8479 752.97249 l -7.709909 24.17272 q -0.30676 0.94073 -1.554252 0.94073 h -3.026702 q -0.940731 0 -0.940731 -0.59307 q 0 -0.57262 3.86518 -11.57509 q 2.249575 -6.33971 4.4787 -12.65898 h -9.059654 q -0.06135 0.89983 -0.368113 2.61769 q -0.286309 0.18406 -0.61352 0.18406 h -2.37228 q -0.981633 0 -0.981633 -0.71578 q 0 -0.34766 0.5930699 -6.44196 H 25.8479 Z" stroke-linecap="round"/>
</g>
		<g transform="matrix(1.7508 0 0 1.7508 19.7463 0)" id="727867">
<path style="stroke: none; stroke-width: 1; stroke-dasharray: none; stroke-linecap: butt; stroke-dashoffset: 0; stroke-linejoin: miter; stroke-miterlimit: 4; is-custom-font: none; font-file-url: none; fill: rgb(0,0,0); fill-rule: nonzero; opacity: 1;" transform=" translate(-17.2056, -771.2566)" d="m 12.898825 780.70209 c 0 -0.55605 -0.03079 -0.95768 -0.03079 -1.51377 c 1.149566 0 2.395148 0 3.544708 0 c 0 -1.3218 0 -1.41528 0 -2.73712 c -2.243931 0.0723 -4.67246 0.23894 -6.7739019 -0.687 c -1.6266179 -0.89273 -2.075448 -2.97087 -1.7474947 -4.67934 c 0.2807048 -1.92755 1.3522742 -3.6393 2.7501936 -4.95764 c 1.819108 -1.94577 4.139071 -3.2593 6.561151 -4.31616 c 2.472354 1.07475 4.843466 2.43125 6.685643 4.42831 c 1.659299 1.55933 2.764852 3.76316 2.730888 6.0706 c 0.03599 1.6655 -0.995685 3.42548 -2.697384 3.78891 c -1.903705 0.52719 -3.830472 0.43365 -5.784745 0.35232 c 0 1.32184 0 1.41532 0 2.73712 c 1.14956 0 2.203119 0 3.352688 0 c 0 0.55609 0.03079 0.95772 0.03079 1.51377 c -2.632285 -0.0186 -5.778625 -0.0186 -8.621752 0 z" stroke-linecap="round"/>
</g>
</g>
</g>
</svg>