<svg xmlns="http://www.w3.org/2000/svg" xmlns:xlink="http://www.w3.org/1999/xlink" version="1.1" width="80" height="80" viewBox="0 0 80 80" xml:space="preserve">
<desc>Created with Fabric.js 3.5.0</desc>
<defs>
</defs>
<rect x="0" y="0" width="100%" height="100%" fill="#fff"/>
<g transform="matrix(1 0 0 1 40 39.9999)" id="876589">
<g style="">
		<g transform="matrix(1.7272 0 0 1.8038 -19.6362 0)" id="829496">
<path style="stroke: none; stroke-width: 1; stroke-dasharray: none; stroke-linecap: butt; stroke-dashoffset: 0; stroke-linejoin: miter; stroke-miterlimit: 4; is-custom-font: none; font-file-url: none; fill: rgb(255,0,0); fill-rule: nonzero; opacity: 1;" transform=" translate(-17.5827, -725.4438)" d="m 27.203661 731.19934 q 0 4.10166 -2.910854 6.23754 q -2.551723 1.87127 -6.785692 1.87127 q -4.196166 0 -6.747889 -2.00358 q -2.7974443 -2.21149 -2.7974443 -6.29425 q 0 -4.29067 4.5174943 -6.31315 q -3.4779036 -2.21149 -3.4779036 -6.31315 q 0 -3.61021 2.8352476 -5.36807 q 2.324903 -1.43652 6.124134 -1.43652 q 3.459002 0 5.689397 1.68224 q 2.457215 1.89017 2.457215 5.25466 q 0 3.85594 -3.459002 6.16194 q 4.555297 1.92797 4.555297 6.52107 z M 21.325248 719.2346 q 0 -3.53461 -3.78033 -3.53461 q -1.72005 0 -2.740739 0.92618 q -1.020689 0.90728 -1.020689 2.60843 q 0 1.64444 1.077394 2.60842 q 1.020689 0.94509 2.684034 0.94509 q 1.625542 0 2.702936 -0.96399 q 1.077394 -0.96398 1.077394 -2.58952 z m 0.888378 11.79463 q 0 -1.96578 -1.342017 -3.09988 q -1.266411 -1.07739 -3.269986 -1.07739 q -1.965771 0 -3.232182 1.0963 q -1.360919 1.153 -1.360919 3.08097 q 0 2.02247 1.323116 3.13767 q 1.228607 1.03959 3.288887 1.03959 q 2.041378 0 3.269985 -1.05849 q 1.323116 -1.1152 1.323116 -3.11877 z" stroke-linecap="round"/>
</g>
		<g transform="matrix(1.7853 0 0 1.7853 19.4167 0)" id="749709">
<path style="stroke: none; stroke-width: 1; stroke-dasharray: none; stroke-linecap: butt; stroke-dashoffset: 0; stroke-linejoin: miter; stroke-miterlimit: 4; is-custom-font: none; font-file-url: none; fill: rgb(255,0,0); fill-rule: nonzero; opacity: 1;" transform=" translate(-17.2056, -771.2566)" d="m 17.205569 780.7021 l 9.414569 -9.44551 l -9.414569 -9.44552 l -9.4145688 9.44552 z" stroke-linecap="round"/>
</g>
</g>
</g>
</svg>