<svg xmlns="http://www.w3.org/2000/svg" xmlns:xlink="http://www.w3.org/1999/xlink" version="1.1" width="80" height="80" viewBox="0 0 80 80" xml:space="preserve">
<desc>Created with Fabric.js 3.5.0</desc>
<defs>
</defs>
<rect x="0" y="0" width="100%" height="100%" fill="#fff"/>
<g transform="matrix(1 0 0 1 40 40)" id="3049">
<g style="">
		<g transform="matrix(1.742 0 0 1.8284 -19.2125 0)" id="843045">
<path style="stroke: none; stroke-width: 1; stroke-dasharray: none; stroke-linecap: butt; stroke-dashoffset: 0; stroke-linejoin: miter; stroke-miterlimit: 4; is-custom-font: none; font-file-url: none; fill: rgb(0,0,0); fill-rule: nonzero; opacity: 1;" transform=" translate(-17.6753, -723.6243)" d="m 27.272073 729.3654 q 0 4.09137 -2.903553 6.2219 q -2.545323 1.86657 -6.768673 1.86657 q -4.185641 0 -6.730964 -1.99855 q -2.7904278 -2.20595 -2.7904278 -6.27847 q 0 -4.27991 4.5061638 -6.29731 q -3.4691805 -2.20595 -3.4691805 -6.29732 q 0 -3.60116 2.8281365 -5.3546 q 2.319072 -1.43293 6.108774 -1.43293 q 3.450326 0 5.675127 1.67803 q 2.451051 1.88543 2.451051 5.24148 q 0 3.84627 -3.450326 6.14648 q 4.543872 1.92314 4.543872 6.50472 z m -5.863669 -11.93474 q 0 -3.52574 -3.770848 -3.52574 q -1.715736 0 -2.733865 0.92386 q -1.018129 0.905 -1.018129 2.60188 q 0 1.64032 1.074691 2.60189 q 1.01813 0.94271 2.677303 0.94271 q 1.621465 0 2.696156 -0.96157 q 1.074692 -0.96156 1.074692 -2.58303 z m 0.88615 11.76505 q 0 -1.96084 -1.338652 -3.0921 q -1.263234 -1.07469 -3.261783 -1.07469 q -1.960842 0 -3.224076 1.09355 q -1.357505 1.15011 -1.357505 3.07324 q 0 2.0174 1.319797 3.1298 q 1.225525 1.03699 3.280638 1.03699 q 2.036258 0 3.261784 -1.05584 q 1.319797 -1.1124 1.319797 -3.11095 z" stroke-linecap="round"/>
</g>
		<g transform="matrix(3.6162 0 0 3.6162 19.5707 0)" id="604123">
<g style="">
		<g transform="matrix(0.0095 0 0 0.0095 -0.0006 3.3517)" id="rect4124-6">
<rect style="stroke: none; stroke-width: 3.1813; stroke-dasharray: none; stroke-linecap: butt; stroke-dashoffset: 0; stroke-linejoin: miter; stroke-miterlimit: 4; is-custom-font: none; font-file-url: none; fill: rgb(0,0,0); fill-rule: nonzero; opacity: 1;" x="-42.6282" y="-147.84275" rx="0" ry="0" width="85.2564" height="295.6855"/>
</g>
		<g transform="matrix(0.0095 0 0 0.0095 0.0003 -0.3256)" id="path3979-1-6-1">
<path style="stroke: none; stroke-width: 3.1813; stroke-dasharray: none; stroke-linecap: butt; stroke-dashoffset: 0; stroke-linejoin: miter; stroke-miterlimit: 4; is-custom-font: none; font-file-url: none; fill: rgb(0,0,0); fill-rule: nonzero; opacity: 1;" transform=" translate(-2449.4023, -299.5777)" d="m 2917.8563 395.12877 c 67.135 120.80453 23.601 273.14486 -97.235 340.26188 c -120.8361 67.11691 -273.2161 23.5947 -340.3501 -97.20972 c -17.88 -32.17311 -28.44 -67.89332 -30.889 -104.57183 c -9.342 137.92083 -128.747 242.09126 -266.6621 232.71366 c -137.914 -9.37771 -242.111 -128.75233 -232.731 -266.63076 c 9.38 -137.87843 128.786 -242.04886 266.7 -232.67126 c 36.206 2.4619 71.4431 12.76531 103.7251 30.22171 c -118.1921 -70.88592 -156.8751 -224.529044 -85.9451 -343.145874 c 70.9301 -118.616826 224.6131 -157.289636 343.2611 -86.378126 c 118.647 70.911526 157.3301 224.554657 86.4 343.17148 c -21.341 35.68961 -51.243 65.49972 -86.812 86.88252 c 121.024 -66.97031 273.4041 -23.4481 340.5381 97.35632 z" stroke-linecap="round"/>
</g>
</g>
</g>
</g>
</g>
</svg>