<svg xmlns="http://www.w3.org/2000/svg" xmlns:xlink="http://www.w3.org/1999/xlink" version="1.1" width="80" height="80" viewBox="0 0 80 80" xml:space="preserve">
<desc>Created with Fabric.js 3.5.0</desc>
<defs>
</defs>
<rect x="0" y="0" width="100%" height="100%" fill="#fff"/>
<g transform="matrix(1 0 0 1 40 39.9999)" id="593762">
<g style="">
		<g transform="matrix(1.7272 0 0 1.8038 -19.7407 0)" id="824666">
<path style="stroke: none; stroke-width: 1; stroke-dasharray: none; stroke-linecap: butt; stroke-dashoffset: 0; stroke-linejoin: miter; stroke-miterlimit: 4; is-custom-font: none; font-file-url: none; fill: rgb(255,0,0); fill-rule: nonzero; opacity: 1;" transform=" translate(-17.5827, -725.4438)" d="m 27.203661 731.19934 q 0 4.10166 -2.910854 6.23754 q -2.551723 1.87127 -6.785692 1.87127 q -4.196166 0 -6.747889 -2.00358 q -2.7974443 -2.21149 -2.7974443 -6.29425 q 0 -4.29067 4.5174943 -6.31315 q -3.4779036 -2.21149 -3.4779036 -6.31315 q 0 -3.61021 2.8352476 -5.36807 q 2.324903 -1.43652 6.124134 -1.43652 q 3.459002 0 5.689397 1.68224 q 2.457215 1.89017 2.457215 5.25466 q 0 3.85594 -3.459002 6.16194 q 4.555297 1.92797 4.555297 6.52107 z M 21.325248 719.2346 q 0 -3.53461 -3.78033 -3.53461 q -1.72005 0 -2.740739 0.92618 q -1.020689 0.90728 -1.020689 2.60843 q 0 1.64444 1.077394 2.60842 q 1.020689 0.94509 2.684034 0.94509 q 1.625542 0 2.702936 -0.96399 q 1.077394 -0.96398 1.077394 -2.58952 z m 0.888378 11.79463 q 0 -1.96578 -1.342017 -3.09988 q -1.266411 -1.07739 -3.269986 -1.07739 q -1.965771 0 -3.232182 1.0963 q -1.360919 1.153 -1.360919 3.08097 q 0 2.02247 1.323116 3.13767 q 1.228607 1.03959 3.288887 1.03959 q 2.041378 0 3.269985 -1.05849 q 1.323116 -1.1152 1.323116 -3.11877 z" stroke-linecap="round"/>
</g>
		<g transform="matrix(0.6044 0 0 0.6044 19.8489 0)" id="47986">
<path style="stroke: none; stroke-width: 1; stroke-dasharray: none; stroke-linecap: butt; stroke-dashoffset: 0; stroke-linejoin: miter; stroke-miterlimit: 4; is-custom-font: none; font-file-url: none; fill: rgb(255,0,0); fill-rule: nonzero; opacity: 1;" transform=" translate(-117, -785.7397)" d="m 116.96746 814.07624 c -2.65321 -5.69589 -6.07814 -11.01838 -10.14737 -15.76947 c -2.62425 -3.06398 -5.50887 -5.88504 -8.431277 -8.65507 c -2.282813 -2.16375 -4.606141 -4.31575 -6.473991 -6.85891 c -1.261866 -1.71812 -2.314886 -3.62962 -2.816557 -5.7134 c -0.908631 -3.77411 0.07987 -7.82001 1.944736 -11.21027 c 1.092153 -1.98547 2.489526 -3.81145 4.210761 -5.26296 c 2.557404 -2.15664 5.894118 -3.44611 9.203118 -3.16466 c 3.03457 0.25811 5.87237 1.80791 8.0868 3.93638 c 1.95983 1.88375 3.48637 4.23197 4.45632 6.80491 c 0.96996 -2.57294 2.4965 -4.92116 4.45633 -6.80491 c 2.21443 -2.12847 5.05223 -3.67827 8.08677 -3.93638 c 3.309 -0.28145 6.64571 1.00802 9.20312 3.16466 c 1.72126 1.45151 3.1186 3.27749 4.21076 5.26296 c 1.8649 3.39026 2.8534 7.43616 1.94476 11.21027 c -0.50167 2.08378 -1.55472 3.99528 -2.81659 5.7134 c -1.86781 2.54316 -4.19117 4.69516 -6.47396 6.85891 c -2.9224 2.77003 -5.80706 5.59109 -8.43131 8.65507 c -4.06922 4.75109 -7.49415 10.07358 -10.14736 15.76947" stroke-linecap="round"/>
</g>
</g>
</g>
</svg>