<svg xmlns="http://www.w3.org/2000/svg" xmlns:xlink="http://www.w3.org/1999/xlink" version="1.1" width="320" height="456" viewBox="0 0 320 456" xml:space="preserve">
<desc>Created with Fabric.js 3.5.0</desc>
<defs>
</defs>
<rect x="0" y="0" width="100%" height="100%" fill="#fff"/>
<g transform="matrix(1.3733 0 0 1.3733 160.6761 228.6544)" id="948948">
<rect style="stroke: rgb(128,128,128); stroke-width: 0.7559; stroke-dasharray: none; stroke-linecap: butt; stroke-dashoffset: 0; stroke-linejoin: miter; stroke-miterlimit: 4; is-custom-font: none; font-file-url: none; fill: rgb(255,255,255); fill-rule: nonzero; opacity: 1;" x="-116.62205" y="-166.12205" rx="8.9191856" ry="8.9457436" width="233.2441" height="332.2441"/>
</g>
<g transform="matrix(5.8726 0 0 5.8726 58.2243 209.1882)" id="518685">
<path style="stroke: none; stroke-width: 1; stroke-dasharray: none; stroke-linecap: butt; stroke-dashoffset: 0; stroke-linejoin: miter; stroke-miterlimit: 4; is-custom-font: none; font-file-url: none; fill: rgb(255,0,0); fill-rule: nonzero; opacity: 1;" transform=" translate(-17.2056, -771.2565)" d="m 17.194709 780.70206 c -0.884404 -1.89863 -2.026046 -3.67278 -3.382435 -5.25648 c -0.87477 -1.02135 -1.836311 -1.96168 -2.810437 -2.88504 c -0.760948 -0.72123 -1.5353906 -1.43859 -2.1580074 -2.28629 c -0.4206116 -0.57272 -0.7716181 -1.20987 -0.9388522 -1.90446 c -0.3028667 -1.25806 0.026675 -2.60669 0.6482558 -3.73679 c 0.3640614 -0.66181 0.8298315 -1.27048 1.4035868 -1.7543 c 0.852458 -0.71887 1.964695 -1.14871 3.067706 -1.05488 c 1.011533 0.086 1.957446 0.60263 2.695611 1.3121 c 0.653277 0.62794 1.162103 1.41066 1.48543 2.26832 c 0.323328 -0.85766 0.832154 -1.64038 1.485431 -2.26832 c 0.738165 -0.70947 1.684078 -1.22609 2.695611 -1.3121 c 1.102986 -0.0939 2.215223 0.33601 3.06769 1.05488 c 0.573755 0.48382 1.039538 1.09249 1.403587 1.7543 c 0.621635 1.1301 0.951135 2.47873 0.648256 3.73679 c -0.167222 0.69459 -0.518241 1.33174 -0.938862 1.90446 c -0.622607 0.8477 -1.397059 1.56506 -2.157985 2.28629 c -0.974135 0.92336 -1.935695 1.86369 -2.810434 2.88504 c -1.35642 1.5837 -2.498062 3.35785 -3.382467 5.25648" stroke-linecap="round"/>
</g>
<g transform="matrix(9.2703 0 0 9.2703 205.911 326.3592)" id="617559">
<path style="stroke: none; stroke-width: 1; stroke-dasharray: none; stroke-linecap: butt; stroke-dashoffset: 0; stroke-linejoin: miter; stroke-miterlimit: 4; is-custom-font: none; font-file-url: none; fill: rgb(255,0,0); fill-rule: nonzero; opacity: 1;" transform=" translate(-17.2056, -771.2565)" d="m 17.194709 780.70206 c -0.884404 -1.89863 -2.026046 -3.67278 -3.382435 -5.25648 c -0.87477 -1.02135 -1.836311 -1.96168 -2.810437 -2.88504 c -0.760948 -0.72123 -1.5353906 -1.43859 -2.1580074 -2.28629 c -0.4206116 -0.57272 -0.7716181 -1.20987 -0.9388522 -1.90446 c -0.3028667 -1.25806 0.026675 -2.60669 0.6482558 -3.73679 c 0.3640614 -0.66181 0.8298315 -1.27048 1.4035868 -1.7543 c 0.852458 -0.71887 1.964695 -1.14871 3.067706 -1.05488 c 1.011533 0.086 1.957446 0.60263 2.695611 1.3121 c 0.653277 0.62794 1.162103 1.41066 1.48543 2.26832 c 0.323328 -0.85766 0.832154 -1.64038 1.485431 -2.26832 c 0.738165 -0.70947 1.684078 -1.22609 2.695611 -1.3121 c 1.102986 -0.0939 2.215223 0.33601 3.06769 1.05488 c 0.573755 0.48382 1.039538 1.09249 1.403587 1.7543 c 0.621635 1.1301 0.951135 2.47873 0.648256 3.73679 c -0.167222 0.69459 -0.518241 1.33174 -0.938862 1.90446 c -0.622607 0.8477 -1.397059 1.56506 -2.157985 2.28629 c -0.974135 0.92336 -1.935695 1.86369 -2.810434 2.88504 c -1.35642 1.5837 -2.498062 3.35785 -3.382467 5.25648" stroke-linecap="round"/>
</g>
<g transform="matrix(4.1376 0 0 4.3211 58.2243 71.5019)" id="257981">
<path style="stroke: none; stroke-width: 1; stroke-dasharray: none; stroke-linecap: butt; stroke-dashoffset: 0; stroke-linejoin: miter; stroke-miterlimit: 4; is-custom-font: none; font-file-url: none; fill: rgb(255,0,0); fill-rule: nonzero; opacity: 1;" transform=" translate(-17.5827, -725.4438)" d="m 27.203661 731.19934 q 0 4.10166 -2.910854 6.23754 q -2.551723 1.87127 -6.785692 1.87127 q -4.196166 0 -6.747889 -2.00358 q -2.7974443 -2.21149 -2.7974443 -6.29425 q 0 -4.29067 4.5174943 -6.31315 q -3.4779036 -2.21149 -3.4779036 -6.31315 q 0 -3.61021 2.8352476 -5.36807 q 2.324903 -1.43652 6.124134 -1.43652 q 3.459002 0 5.689397 1.68224 q 2.457215 1.89017 2.457215 5.25466 q 0 3.85594 -3.459002 6.16194 q 4.555297 1.92797 4.555297 6.52107 z M 21.325248 719.2346 q 0 -3.53461 -3.78033 -3.53461 q -1.72005 0 -2.740739 0.92618 q -1.020689 0.90728 -1.020689 2.60843 q 0 1.64444 1.077394 2.60842 q 1.020689 0.94509 2.684034 0.94509 q 1.625542 0 2.702936 -0.96399 q 1.077394 -0.96398 1.077394 -2.58952 z m 0.888378 11.79463 q 0 -1.96578 -1.342017 -3.09988 q -1.266411 -1.07739 -3.269986 -1.07739 q -1.965771 0 -3.232182 1.0963 q -1.360919 1.153 -1.360919 3.08097 q 0 2.02247 1.323116 3.13767 q 1.228607 1.03959 3.288887 1.03959 q 2.041378 0 3.269985 -1.05849 q 1.323116 -1.1152 1.323116 -3.11877 z" stroke-linecap="round"/>
</g>
</svg>