<svg xmlns="http://www.w3.org/2000/svg" xmlns:xlink="http://www.w3.org/1999/xlink" version="1.1" width="80" height="80" viewBox="0 0 80 80" xml:space="preserve">
<desc>Created with Fabric.js 3.5.0</desc>
<defs>
</defs>
<rect x="0" y="0" width="100%" height="100%" fill="#fff"/>
<g transform="matrix(1 0 0 1 40 40)" id="699825">
<g style="">
		<g transform="matrix(1.742 0 0 1.8284 -19.4162 0)" id="759527">
<path style="stroke: none; stroke-width: 1; stroke-dasharray: none; stroke-linecap: butt; stroke-dashoffset: 0; stroke-linejoin: miter; stroke-miterlimit: 4; is-custom-font: none; font-file-url: none; fill: rgb(0,0,0); fill-rule: nonzero; opacity: 1;" transform=" translate(-17.6753, -723.6243)" d="m 27.272073 729.3654 q 0 4.09137 -2.903553 6.2219 q -2.545323 1.86657 -6.768673 1.86657 q -4.185641 0 -6.730964 -1.99855 q -2.7904278 -2.20595 -2.7904278 -6.27847 q 0 -4.27991 4.5061638 -6.29731 q -3.4691805 -2.20595 -3.4691805 -6.29732 q 0 -3.60116 2.8281365 -5.3546 q 2.319072 -1.43293 6.108774 -1.43293 q 3.450326 0 5.675127 1.67803 q 2.451051 1.88543 2.451051 5.24148 q 0 3.84627 -3.450326 6.14648 q 4.543872 1.92314 4.543872 6.50472 z m -5.863669 -11.93474 q 0 -3.52574 -3.770848 -3.52574 q -1.715736 0 -2.733865 0.92386 q -1.018129 0.905 -1.018129 2.60188 q 0 1.64032 1.074691 2.60189 q 1.01813 0.94271 2.677303 0.94271 q 1.621465 0 2.696156 -0.96157 q 1.074692 -0.96156 1.074692 -2.58303 z m 0.88615 11.76505 q 0 -1.96084 -1.338652 -3.0921 q -1.263234 -1.07469 -3.261783 -1.07469 q -1.960842 0 -3.224076 1.09355 q -1.357505 1.15011 -1.357505 3.07324 q 0 2.0174 1.319797 3.1298 q 1.225525 1.03699 3.280638 1.03699 q 2.036258 0 3.261784 -1.05584 q 1.319797 -1.1124 1.319797 -3.11095 z" stroke-linecap="round"/>
</g>
		<g transform="matrix(1.7508 0 0 1.7508 19.6464 0)" id="99244">
<path style="stroke: none; stroke-width: 1; stroke-dasharray: none; stroke-linecap: butt; stroke-dashoffset: 0; stroke-linejoin: miter; stroke-miterlimit: 4; is-custom-font: none; font-file-url: none; fill: rgb(0,0,0); fill-rule: nonzero; opacity: 1;" transform=" translate(-17.2056, -771.2566)" d="m 12.898825 780.70209 c 0 -0.55605 -0.03079 -0.95768 -0.03079 -1.51377 c 1.149566 0 2.395148 0 3.544708 0 c 0 -1.3218 0 -1.41528 0 -2.73712 c -2.243931 0.0723 -4.67246 0.23894 -6.7739019 -0.687 c -1.6266179 -0.89273 -2.075448 -2.97087 -1.7474947 -4.67934 c 0.2807048 -1.92755 1.3522742 -3.6393 2.7501936 -4.95764 c 1.819108 -1.94577 4.139071 -3.2593 6.561151 -4.31616 c 2.472354 1.07475 4.843466 2.43125 6.685643 4.42831 c 1.659299 1.55933 2.764852 3.76316 2.730888 6.0706 c 0.03599 1.6655 -0.995685 3.42548 -2.697384 3.78891 c -1.903705 0.52719 -3.830472 0.43365 -5.784745 0.35232 c 0 1.32184 0 1.41532 0 2.73712 c 1.14956 0 2.203119 0 3.352688 0 c 0 0.55609 0.03079 0.95772 0.03079 1.51377 c -2.632285 -0.0186 -5.778625 -0.0186 -8.621752 0 z" stroke-linecap="round"/>
</g>
</g>
</g>
</svg>