<svg xmlns="http://www.w3.org/2000/svg" xmlns:xlink="http://www.w3.org/1999/xlink" version="1.1" width="80" height="80" viewBox="0 0 80 80" xml:space="preserve">
<desc>Created with Fabric.js 3.5.0</desc>
<defs>
</defs>
<rect x="0" y="0" width="100%" height="100%" fill="#fff"/>
<g transform="matrix(1 0 0 1 40.0001 40)" id="332248">
<g style="">
		<g transform="matrix(1.7405 0 0 1.773 -18.9553 0)" id="928485">
<path style="stroke: none; stroke-width: 1; stroke-dasharray: none; stroke-linecap: butt; stroke-dashoffset: 0; stroke-linejoin: miter; stroke-miterlimit: 4; is-custom-font: none; font-file-url: none; fill: rgb(255,0,0); fill-rule: nonzero; opacity: 1;" transform=" translate(-17.3655, -734.519)" d="m 26.867551 734.10756 q 0 5.99023 -2.12433 9.7413 q -2.660197 4.70797 -8.19111 4.70797 q -3.23434 0 -5.339532 -1.28225 q -2.5453681 -1.56932 -2.5453681 -4.63142 q 0 -0.66983 0.9377672 -0.66983 h 2.8324399 q 0.555005 0 0.937767 0.63155 q 0.574143 0.93777 0.880353 1.2057 q 0.784663 0.63156 2.296573 0.63156 q 2.545368 0 3.961588 -2.37312 q 1.11001 -1.91381 1.243977 -4.70798 q -2.239158 1.77985 -5.35867 1.77985 q -3.961588 0 -6.315575 -2.79417 q -2.2200206 -2.62192 -2.2200206 -6.66006 q 0 -4.24866 2.4305396 -6.71747 q 2.43054 -2.48796 6.660061 -2.48796 q 9.91354 0 9.91354 13.62633 z m -5.224704 -4.30607 q 0 -2.08605 -1.129148 -3.54055 q -1.243977 -1.6076 -3.253478 -1.6076 q -2.066916 0 -3.291754 1.56932 q -1.110011 1.43536 -1.110011 3.57883 q 0 2.18174 1.090872 3.59796 q 1.186563 1.55019 3.310893 1.55019 q 2.105192 0 3.291754 -1.56932 q 1.090872 -1.41622 1.090872 -3.57883 z" stroke-linecap="round"/>
</g>
		<g transform="matrix(1.7853 0 0 1.7853 18.6634 0)" id="155213">
<path style="stroke: none; stroke-width: 1; stroke-dasharray: none; stroke-linecap: butt; stroke-dashoffset: 0; stroke-linejoin: miter; stroke-miterlimit: 4; is-custom-font: none; font-file-url: none; fill: rgb(255,0,0); fill-rule: nonzero; opacity: 1;" transform=" translate(-17.2056, -771.2566)" d="m 17.205569 780.7021 l 9.414569 -9.44551 l -9.414569 -9.44552 l -9.4145688 9.44552 z" stroke-linecap="round"/>
</g>
</g>
</g>
</svg>