<svg xmlns="http://www.w3.org/2000/svg" xmlns:xlink="http://www.w3.org/1999/xlink" version="1.1" width="80" height="80" viewBox="0 0 80 80" xml:space="preserve">
<desc>Created with Fabric.js 3.5.0</desc>
<defs>
</defs>
<rect x="0" y="0" width="100%" height="100%" fill="#fff"/>
<g transform="matrix(1 0 0 1 40 40)" id="670226">
<g style="">
		<g transform="matrix(1.7765 0 0 1.7765 -19.4987 0)" id="229884">
<path style="stroke: none; stroke-width: 1; stroke-dasharray: none; stroke-linecap: butt; stroke-dashoffset: 0; stroke-linejoin: miter; stroke-miterlimit: 4; is-custom-font: none; font-file-url: none; fill: rgb(0,0,0); fill-rule: nonzero; opacity: 1;" transform=" translate(-17.2056, -741.3458)" d="m 26.620138 740.9305 q 0 6.04591 -2.104768 9.83184 q -2.6357 4.75173 -8.115681 4.75173 q -3.204556 0 -5.290362 -1.29417 q -2.5219291 -1.58391 -2.5219291 -4.67447 q 0 -0.67605 0.9291317 -0.67605 h 2.8063574 q 0.549894 0 0.929131 0.63742 q 0.568856 0.94648 0.872246 1.2169 q 0.777438 0.63743 2.275425 0.63743 q 2.521929 0 3.925107 -2.39517 q 1.099789 -1.9316 1.232522 -4.75174 q -2.218538 1.79639 -5.309324 1.79639 q -3.925107 0 -6.2574174 -2.82014 q -2.1995773 -2.64628 -2.1995773 -6.72196 q 0 -4.28814 2.4081577 -6.7799 q 2.408158 -2.51108 6.598731 -2.51108 q 9.82225 0 9.82225 13.75297 z m -5.176592 -4.34609 q 0 -2.10544 -1.11875 -3.57346 q -1.232521 -1.62254 -3.223518 -1.62254 q -2.047882 0 -3.261441 1.58391 q -1.09979 1.4487 -1.09979 3.61209 q 0 2.20202 1.080827 3.6314 q 1.175636 1.5646 3.280404 1.5646 q 2.085806 0 3.261442 -1.58391 q 1.080826 -1.42938 1.080826 -3.61209 z" stroke-linecap="round"/>
</g>
		<g transform="matrix(3.6162 0 0 3.6162 19.8814 0.0001)" id="632526">
<g style="">
		<g transform="matrix(0.0095 0 0 0.0095 -0.0006 3.3517)" id="rect4124-6">
<rect style="stroke: none; stroke-width: 3.1813; stroke-dasharray: none; stroke-linecap: butt; stroke-dashoffset: 0; stroke-linejoin: miter; stroke-miterlimit: 4; is-custom-font: none; font-file-url: none; fill: rgb(0,0,0); fill-rule: nonzero; opacity: 1;" x="-42.6282" y="-147.84275" rx="0" ry="0" width="85.2564" height="295.6855"/>
</g>
		<g transform="matrix(0.0095 0 0 0.0095 0.0003 -0.3256)" id="path3979-1-6-1">
<path style="stroke: none; stroke-width: 3.1813; stroke-dasharray: none; stroke-linecap: butt; stroke-dashoffset: 0; stroke-linejoin: miter; stroke-miterlimit: 4; is-custom-font: none; font-file-url: none; fill: rgb(0,0,0); fill-rule: nonzero; opacity: 1;" transform=" translate(-2449.4023, -299.5777)" d="m 2917.8563 395.12877 c 67.135 120.80453 23.601 273.14486 -97.235 340.26188 c -120.8361 67.11691 -273.2161 23.5947 -340.3501 -97.20972 c -17.88 -32.17311 -28.44 -67.89332 -30.889 -104.57183 c -9.342 137.92083 -128.747 242.09126 -266.6621 232.71366 c -137.914 -9.37771 -242.111 -128.75233 -232.731 -266.63076 c 9.38 -137.87843 128.786 -242.04886 266.7 -232.67126 c 36.206 2.4619 71.4431 12.76531 103.7251 30.22171 c -118.1921 -70.88592 -156.8751 -224.529044 -85.9451 -343.145874 c 70.9301 -118.616826 224.6131 -157.289636 343.2611 -86.378126 c 118.647 70.911526 157.3301 224.554657 86.4 343.17148 c -21.341 35.68961 -51.243 65.49972 -86.812 86.88252 c 121.024 -66.97031 273.4041 -23.4481 340.5381 97.35632 z" stroke-linecap="round"/>
</g>
</g>
</g>
</g>
</g>
</svg>