<svg xmlns="http://www.w3.org/2000/svg" xmlns:xlink="http://www.w3.org/1999/xlink" version="1.1" width="80" height="80" viewBox="0 0 80 80" xml:space="preserve">
<desc>Created with Fabric.js 3.5.0</desc>
<defs>
</defs>
<rect x="0" y="0" width="100%" height="100%" fill="#fff"/>
<g transform="matrix(1 0 0 1 40 40)" id="476079">
<g style="">
		<g transform="matrix(1.7405 0 0 1.773 -19.469 0)" id="267736">
<path style="stroke: none; stroke-width: 1; stroke-dasharray: none; stroke-linecap: butt; stroke-dashoffset: 0; stroke-linejoin: miter; stroke-miterlimit: 4; is-custom-font: none; font-file-url: none; fill: rgb(255,0,0); fill-rule: nonzero; opacity: 1;" transform=" translate(-17.3655, -734.519)" d="m 26.867551 734.10756 q 0 5.99023 -2.12433 9.7413 q -2.660197 4.70797 -8.19111 4.70797 q -3.23434 0 -5.339532 -1.28225 q -2.5453681 -1.56932 -2.5453681 -4.63142 q 0 -0.66983 0.9377672 -0.66983 h 2.8324399 q 0.555005 0 0.937767 0.63155 q 0.574143 0.93777 0.880353 1.2057 q 0.784663 0.63156 2.296573 0.63156 q 2.545368 0 3.961588 -2.37312 q 1.11001 -1.91381 1.243977 -4.70798 q -2.239158 1.77985 -5.35867 1.77985 q -3.961588 0 -6.315575 -2.79417 q -2.2200206 -2.62192 -2.2200206 -6.66006 q 0 -4.24866 2.4305396 -6.71747 q 2.43054 -2.48796 6.660061 -2.48796 q 9.91354 0 9.91354 13.62633 z m -5.224704 -4.30607 q 0 -2.08605 -1.129148 -3.54055 q -1.243977 -1.6076 -3.253478 -1.6076 q -2.066916 0 -3.291754 1.56932 q -1.110011 1.43536 -1.110011 3.57883 q 0 2.18174 1.090872 3.59796 q 1.186563 1.55019 3.310893 1.55019 q 2.105192 0 3.291754 -1.56932 q 1.090872 -1.41622 1.090872 -3.57883 z" stroke-linecap="round"/>
</g>
		<g transform="matrix(0.6044 0 0 0.6044 19.505 0)" id="230681">
<path style="stroke: none; stroke-width: 1; stroke-dasharray: none; stroke-linecap: butt; stroke-dashoffset: 0; stroke-linejoin: miter; stroke-miterlimit: 4; is-custom-font: none; font-file-url: none; fill: rgb(255,0,0); fill-rule: nonzero; opacity: 1;" transform=" translate(-117, -785.7397)" d="m 116.96746 814.07624 c -2.65321 -5.69589 -6.07814 -11.01838 -10.14737 -15.76947 c -2.62425 -3.06398 -5.50887 -5.88504 -8.431277 -8.65507 c -2.282813 -2.16375 -4.606141 -4.31575 -6.473991 -6.85891 c -1.261866 -1.71812 -2.314886 -3.62962 -2.816557 -5.7134 c -0.908631 -3.77411 0.07987 -7.82001 1.944736 -11.21027 c 1.092153 -1.98547 2.489526 -3.81145 4.210761 -5.26296 c 2.557404 -2.15664 5.894118 -3.44611 9.203118 -3.16466 c 3.03457 0.25811 5.87237 1.80791 8.0868 3.93638 c 1.95983 1.88375 3.48637 4.23197 4.45632 6.80491 c 0.96996 -2.57294 2.4965 -4.92116 4.45633 -6.80491 c 2.21443 -2.12847 5.05223 -3.67827 8.08677 -3.93638 c 3.309 -0.28145 6.64571 1.00802 9.20312 3.16466 c 1.72126 1.45151 3.1186 3.27749 4.21076 5.26296 c 1.8649 3.39026 2.8534 7.43616 1.94476 11.21027 c -0.50167 2.08378 -1.55472 3.99528 -2.81659 5.7134 c -1.86781 2.54316 -4.19117 4.69516 -6.47396 6.85891 c -2.9224 2.77003 -5.80706 5.59109 -8.43131 8.65507 c -4.06922 4.75109 -7.49415 10.07358 -10.14736 15.76947" stroke-linecap="round"/>
</g>
</g>
</g>
</svg>