<svg xmlns="http://www.w3.org/2000/svg" xmlns:xlink="http://www.w3.org/1999/xlink" version="1.1" width="80" height="80" viewBox="0 0 80 80" xml:space="preserve">
<desc>Created with Fabric.js 3.5.0</desc>
<defs>
</defs>
<rect x="0" y="0" width="100%" height="100%" fill="#fff"/>
<g transform="matrix(1 0 0 1 39.9999 40)" id="648290">
<g style="">
		<g transform="matrix(1.7765 0 0 1.7765 -18.8841 0)" id="330383">
<path style="stroke: none; stroke-width: 1; stroke-dasharray: none; stroke-linecap: butt; stroke-dashoffset: 0; stroke-linejoin: miter; stroke-miterlimit: 4; is-custom-font: none; font-file-url: none; fill: rgb(0,0,0); fill-rule: nonzero; opacity: 1;" transform=" translate(-17.2056, -741.3458)" d="m 26.620138 740.9305 q 0 6.04591 -2.104768 9.83184 q -2.6357 4.75173 -8.115681 4.75173 q -3.204556 0 -5.290362 -1.29417 q -2.5219291 -1.58391 -2.5219291 -4.67447 q 0 -0.67605 0.9291317 -0.67605 h 2.8063574 q 0.549894 0 0.929131 0.63742 q 0.568856 0.94648 0.872246 1.2169 q 0.777438 0.63743 2.275425 0.63743 q 2.521929 0 3.925107 -2.39517 q 1.099789 -1.9316 1.232522 -4.75174 q -2.218538 1.79639 -5.309324 1.79639 q -3.925107 0 -6.2574174 -2.82014 q -2.1995773 -2.64628 -2.1995773 -6.72196 q 0 -4.28814 2.4081577 -6.7799 q 2.408158 -2.51108 6.598731 -2.51108 q 9.82225 0 9.82225 13.75297 z m -5.176592 -4.34609 q 0 -2.10544 -1.11875 -3.57346 q -1.232521 -1.62254 -3.223518 -1.62254 q -2.047882 0 -3.261441 1.58391 q -1.09979 1.4487 -1.09979 3.61209 q 0 2.20202 1.080827 3.6314 q 1.175636 1.5646 3.280404 1.5646 q 2.085806 0 3.261442 -1.58391 q 1.080826 -1.42938 1.080826 -3.61209 z" stroke-linecap="round"/>
</g>
		<g transform="matrix(1.7508 0 0 1.7508 19.1388 0)" id="455865">
<path style="stroke: none; stroke-width: 1; stroke-dasharray: none; stroke-linecap: butt; stroke-dashoffset: 0; stroke-linejoin: miter; stroke-miterlimit: 4; is-custom-font: none; font-file-url: none; fill: rgb(0,0,0); fill-rule: nonzero; opacity: 1;" transform=" translate(-17.2056, -771.2566)" d="m 12.898825 780.70209 c 0 -0.55605 -0.03079 -0.95768 -0.03079 -1.51377 c 1.149566 0 2.395148 0 3.544708 0 c 0 -1.3218 0 -1.41528 0 -2.73712 c -2.243931 0.0723 -4.67246 0.23894 -6.7739019 -0.687 c -1.6266179 -0.89273 -2.075448 -2.97087 -1.7474947 -4.67934 c 0.2807048 -1.92755 1.3522742 -3.6393 2.7501936 -4.95764 c 1.819108 -1.94577 4.139071 -3.2593 6.561151 -4.31616 c 2.472354 1.07475 4.843466 2.43125 6.685643 4.42831 c 1.659299 1.55933 2.764852 3.76316 2.730888 6.0706 c 0.03599 1.6655 -0.995685 3.42548 -2.697384 3.78891 c -1.903705 0.52719 -3.830472 0.43365 -5.784745 0.35232 c 0 1.32184 0 1.41532 0 2.73712 c 1.14956 0 2.203119 0 3.352688 0 c 0 0.55609 0.03079 0.95772 0.03079 1.51377 c -2.632285 -0.0186 -5.778625 -0.0186 -8.621752 0 z" stroke-linecap="round"/>
</g>
</g>
</g>
</svg>