<svg xmlns="http://www.w3.org/2000/svg" xmlns:xlink="http://www.w3.org/1999/xlink" version="1.1" width="320" height="456" viewBox="0 0 320 456" xml:space="preserve">
<desc>Created with Fabric.js 3.5.0</desc>
<defs>
</defs>
<rect x="0" y="0" width="100%" height="100%" fill="rgba(255,255,255,0)"/>
<g transform="matrix(1 0 0 1 160.6761 228.6544)" id="869870">
<g style="">
		<g transform="matrix(1.3733 0 0 1.3733 0 0)" id="rect4266">
<rect style="stroke: rgb(128,128,128); stroke-width: 0.7559; stroke-dasharray: none; stroke-linecap: butt; stroke-dashoffset: 0; stroke-linejoin: miter; stroke-miterlimit: 4; is-custom-font: none; font-file-url: none; fill: rgb(255,255,255); fill-rule: nonzero; opacity: 1;" x="-116.62205" y="-166.12205" rx="8.9191856" ry="8.9457436" width="233.2441" height="332.2441"/>
</g>
		<g transform="matrix(3.2049 0 0 3.2049 48.6479 97.4849)" id="path4884-1-7">
<path style="stroke: none; stroke-width: 1; stroke-dasharray: none; stroke-linecap: butt; stroke-dashoffset: 0; stroke-linejoin: miter; stroke-miterlimit: 4; is-custom-font: none; font-file-url: none; fill: rgb(255,0,0); fill-rule: nonzero; opacity: 1;" transform=" translate(-117, -885.8622)" d="M 117 914.1987 L 145.24371 885.86217 L 117 857.52563 L 88.756294 885.86217 Z" stroke-linecap="round"/>
</g>
		<g transform="matrix(5.8504 0 0 5.8504 -102.1322 -23.5271)" id="path4884-1-4-5-3">
<path style="stroke: none; stroke-width: 1; stroke-dasharray: none; stroke-linecap: butt; stroke-dashoffset: 0; stroke-linejoin: miter; stroke-miterlimit: 4; is-custom-font: none; font-file-url: none; fill: rgb(255,0,0); fill-rule: nonzero; opacity: 1;" transform=" translate(-17.2056, -771.2566)" d="m 17.205569 780.7021 l 9.414569 -9.44551 l -9.414569 -9.44552 l -9.4145688 9.44552 z" stroke-linecap="round"/>
</g>
		<g transform="matrix(3.5331 0 0 5.1219 -102.1328 -155.9161)" id="path889">
<path style="stroke: none; stroke-width: 1; stroke-dasharray: none; stroke-linecap: butt; stroke-dashoffset: 0; stroke-linejoin: miter; stroke-miterlimit: 4; is-custom-font: none; font-file-url: none; fill: rgb(255,0,0); fill-rule: nonzero; opacity: 1;" transform=" translate(-20.716, -615.7211)" d="M 32.051408 627.48846 H 27.39565 l -1.839905 -4.84774 h -9.5995 l -1.919901 4.84774 H 9.3805865 l 9.0715285 -23.53477 h 4.543764 z m -8.175575 -9.21552 l -3.119838 -8.07958 l -3.135837 8.07958 z" stroke-linecap="round"/>
</g>
</g>
</g>
</svg>