<svg xmlns="http://www.w3.org/2000/svg" xmlns:xlink="http://www.w3.org/1999/xlink" version="1.1" width="320" height="456" viewBox="0 0 320 456" xml:space="preserve">
<desc>Created with Fabric.js 3.5.0</desc>
<defs>
</defs>
<rect x="0" y="0" width="100%" height="100%" fill="#fff"/>
<g transform="matrix(1 0 0 1 160.6761 228.6544)" id="964829">
<g style="">
		<g transform="matrix(1.3733 0 0 1.3733 0 0)" id="rect4266">
<rect style="stroke: rgb(128,128,128); stroke-width: 0.7559; stroke-dasharray: none; stroke-linecap: butt; stroke-dashoffset: 0; stroke-linejoin: miter; stroke-miterlimit: 4; is-custom-font: none; font-file-url: none; fill: rgb(255,255,255); fill-rule: nonzero; opacity: 1;" x="-116.62205" y="-166.12205" rx="8.9191856" ry="8.9457436" width="233.2441" height="332.2441"/>
</g>
		<g transform="matrix(3.5331 0 0 5.1219 -102.1328 -155.9161)" id="path889">
<path style="stroke: none; stroke-width: 1; stroke-dasharray: none; stroke-linecap: butt; stroke-dashoffset: 0; stroke-linejoin: miter; stroke-miterlimit: 4; is-custom-font: none; font-file-url: none; fill: rgb(255,0,0); fill-rule: nonzero; opacity: 1;" transform=" translate(-20.716, -615.7211)" d="M 32.051408 627.48846 H 27.39565 l -1.839905 -4.84774 h -9.5995 l -1.919901 4.84774 H 9.3805865 l 9.0715285 -23.53477 h 4.543764 z m -8.175575 -9.21552 l -3.119838 -8.07958 l -3.135837 8.07958 z" stroke-linecap="round"/>
</g>
		<g transform="matrix(5.8726 0 0 5.8726 -102.4518 -19.4662)" id="438248">
<path style="stroke: none; stroke-width: 1; stroke-dasharray: none; stroke-linecap: butt; stroke-dashoffset: 0; stroke-linejoin: miter; stroke-miterlimit: 4; is-custom-font: none; font-file-url: none; fill: rgb(255,0,0); fill-rule: nonzero; opacity: 1;" transform=" translate(-17.2056, -771.2565)" d="m 17.194709 780.70206 c -0.884404 -1.89863 -2.026046 -3.67278 -3.382435 -5.25648 c -0.87477 -1.02135 -1.836311 -1.96168 -2.810437 -2.88504 c -0.760948 -0.72123 -1.5353906 -1.43859 -2.1580074 -2.28629 c -0.4206116 -0.57272 -0.7716181 -1.20987 -0.9388522 -1.90446 c -0.3028667 -1.25806 0.026675 -2.60669 0.6482558 -3.73679 c 0.3640614 -0.66181 0.8298315 -1.27048 1.4035868 -1.7543 c 0.852458 -0.71887 1.964695 -1.14871 3.067706 -1.05488 c 1.011533 0.086 1.957446 0.60263 2.695611 1.3121 c 0.653277 0.62794 1.162103 1.41066 1.48543 2.26832 c 0.323328 -0.85766 0.832154 -1.64038 1.485431 -2.26832 c 0.738165 -0.70947 1.684078 -1.22609 2.695611 -1.3121 c 1.102986 -0.0939 2.215223 0.33601 3.06769 1.05488 c 0.573755 0.48382 1.039538 1.09249 1.403587 1.7543 c 0.621635 1.1301 0.951135 2.47873 0.648256 3.73679 c -0.167222 0.69459 -0.518241 1.33174 -0.938862 1.90446 c -0.622607 0.8477 -1.397059 1.56506 -2.157985 2.28629 c -0.974135 0.92336 -1.935695 1.86369 -2.810434 2.88504 c -1.35642 1.5837 -2.498062 3.35785 -3.382467 5.25648" stroke-linecap="round"/>
</g>
		<g transform="matrix(9.2703 0 0 9.2703 45.2349 97.7051)" id="468918">
<path style="stroke: none; stroke-width: 1; stroke-dasharray: none; stroke-linecap: butt; stroke-dashoffset: 0; stroke-linejoin: miter; stroke-miterlimit: 4; is-custom-font: none; font-file-url: none; fill: rgb(255,0,0); fill-rule: nonzero; opacity: 1;" transform=" translate(-17.2056, -771.2565)" d="m 17.194709 780.70206 c -0.884404 -1.89863 -2.026046 -3.67278 -3.382435 -5.25648 c -0.87477 -1.02135 -1.836311 -1.96168 -2.810437 -2.88504 c -0.760948 -0.72123 -1.5353906 -1.43859 -2.1580074 -2.28629 c -0.4206116 -0.57272 -0.7716181 -1.20987 -0.9388522 -1.90446 c -0.3028667 -1.25806 0.026675 -2.60669 0.6482558 -3.73679 c 0.3640614 -0.66181 0.8298315 -1.27048 1.4035868 -1.7543 c 0.852458 -0.71887 1.964695 -1.14871 3.067706 -1.05488 c 1.011533 0.086 1.957446 0.60263 2.695611 1.3121 c 0.653277 0.62794 1.162103 1.41066 1.48543 2.26832 c 0.323328 -0.85766 0.832154 -1.64038 1.485431 -2.26832 c 0.738165 -0.70947 1.684078 -1.22609 2.695611 -1.3121 c 1.102986 -0.0939 2.215223 0.33601 3.06769 1.05488 c 0.573755 0.48382 1.039538 1.09249 1.403587 1.7543 c 0.621635 1.1301 0.951135 2.47873 0.648256 3.73679 c -0.167222 0.69459 -0.518241 1.33174 -0.938862 1.90446 c -0.622607 0.8477 -1.397059 1.56506 -2.157985 2.28629 c -0.974135 0.92336 -1.935695 1.86369 -2.810434 2.88504 c -1.35642 1.5837 -2.498062 3.35785 -3.382467 5.25648" stroke-linecap="round"/>
</g>
</g>
</g>
</svg>