<svg xmlns="http://www.w3.org/2000/svg" xmlns:xlink="http://www.w3.org/1999/xlink" version="1.1" width="80" height="80" viewBox="0 0 80 80" xml:space="preserve">
<desc>Created with Fabric.js 3.5.0</desc>
<defs>
</defs>
<rect x="0" y="0" width="100%" height="100%" fill="#fff"/>
<g transform="matrix(1 0 0 1 40 40.0001)" id="373313">
<g style="">
		<g transform="matrix(0.5509 0 0 0.5509 25.0092 -3.211)" id="path15686-8">
<path style="stroke: rgb(19,31,103); stroke-width: 0.7559; stroke-dasharray: none; stroke-linecap: butt; stroke-dashoffset: 0; stroke-linejoin: miter; stroke-miterlimit: 4; is-custom-font: none; font-file-url: none; fill: rgb(255,255,255); fill-rule: nonzero; opacity: 1;" transform=" translate(-166.1423, -818.7255)" d="m 164.77006 822.39168 c -1.25964 -0.8637 -1.00255 -2.81514 -0.97441 -4.26995 c 0.0172 -0.88899 0.19311 -1.83145 0.696 -2.58777 c 0.2249 -0.33825 0.55611 -0.69295 0.97441 -0.77635 c 0.80392 -0.16028 1.78503 0.10653 2.3664 0.64694 c 0.58141 0.54043 0.67164 1.43569 0.696 2.19961 c 0.0184 0.57517 -0.31976 1.11386 -0.41759 1.68208 c -0.16202 0.94079 0.44639 2.17287 -0.2784 2.84655 c -0.72481 0.67371 -2.23755 0.82435 -3.06241 0.25878 z" stroke-linecap="round"/>
</g>
		<g transform="matrix(0.5509 0 0 0.5509 2.2929 29.043)" id="path3384-9">
<path style="stroke: rgb(0,0,0); stroke-width: 0.7559; stroke-dasharray: none; stroke-linecap: butt; stroke-dashoffset: 0; stroke-linejoin: miter; stroke-miterlimit: 4; is-custom-font: none; font-file-url: none; fill: rgb(0,0,0); fill-rule: nonzero; opacity: 1;" transform=" translate(-124.9067, -877.2743)" d="m 129.06393 880.38348 l -2.2911 -6.21835 l -6.02339 0.45667 l 2.06301 4.18735 z" stroke-linecap="round"/>
</g>
		<g transform="matrix(0.5509 0 0 0.5509 -6.4777 30.3334)" id="path4275-2">
<path style="stroke: rgb(0,0,0); stroke-width: 0.378; stroke-dasharray: none; stroke-linecap: butt; stroke-dashoffset: 0; stroke-linejoin: miter; stroke-miterlimit: 4; is-custom-font: none; font-file-url: none; fill: rgb(0,0,0); fill-rule: nonzero; opacity: 1;" transform=" translate(-108.9855, -879.6166)" d="m 92.995316 879.45602 c 0.933637 3.30188 -0.192556 2.26515 0.733844 4.59058 c 0.133207 0.33434 0.289153 0.66035 0.465924 0.98666 c 3.194062 0.0839 10.136546 0.11404 13.901656 -1.00756 c 4.39885 -1.31048 13.40432 -6.26654 13.40432 -6.26654 c 0.88265 1.11017 1.53488 1.95593 2.47818 2.73464 c 0.0348 -0.14254 0.0756 -0.31746 0.10286 -0.44239 c 0.58102 -2.65925 0.37496 -2.33648 0.89361 -5.81693 c -21.10368 -0.78172 -31.830332 5.19923 -31.980001 5.22133 z" stroke-linecap="round"/>
</g>
		<g transform="matrix(0.5509 0 0 0.5509 6.7023 21.216)" id="path3225-3">
<path style="stroke: rgb(19,31,103); stroke-opacity: 0.94; stroke-width: 0.7559; stroke-dasharray: none; stroke-linecap: butt; stroke-dashoffset: 0; stroke-linejoin: miter; stroke-miterlimit: 4; is-custom-font: none; font-file-url: none; fill: rgb(0,0,0); fill-rule: nonzero; opacity: 1;" transform=" translate(-132.9107, -863.0664)" d="m 140.0942 852.3241 l -0.91586 21.48273 c -1.76687 0.0562 -4.48734 -1.22853 -8.98364 -2.51683 c -5.13122 -1.47025 -3.39132 -10.60243 -4.46745 -12.63053 z" stroke-linecap="round"/>
</g>
		<g transform="matrix(0.5509 0 0 0.5509 16.365 10.0844)" id="path3223-3">
<path style="stroke: rgb(19,31,103); stroke-opacity: 0.94; stroke-width: 0.7559; stroke-dasharray: none; stroke-linecap: butt; stroke-dashoffset: 0; stroke-linejoin: miter; stroke-miterlimit: 4; is-custom-font: none; font-file-url: none; fill: rgb(212,0,0); fill-rule: nonzero; opacity: 1;" transform=" translate(-150.4508, -842.8596)" d="m 151.37392 827.16667 c 4.57893 -0.81215 11.09381 1.84402 12.74952 5.15031 c 1.67614 3.34688 1.52647 8.56455 -0.63449 11.68495 c -3.29934 4.76412 -18.48838 13.3446 -24.6174 14.64378 c -4.82408 1.02274 -3.27563 -12.69031 -1.54197 -18.07575 c 0.94416 -2.93307 4.68144 -4.46777 7.02196 -6.70165 c 2.34072 -2.23388 3.65137 -6.10386 7.02196 -6.70164 z" stroke-linecap="round"/>
</g>
		<g transform="matrix(0.5509 0 0 0.5509 3.494 6.8902)" id="path3207-4">
<path style="stroke: rgb(19,31,103); stroke-opacity: 0.94; stroke-width: 2.3909; stroke-dasharray: none; stroke-linecap: butt; stroke-dashoffset: 0; stroke-linejoin: miter; stroke-miterlimit: 4; is-custom-font: none; font-file-url: none; fill: rgb(0,0,0); fill-rule: nonzero; opacity: 1;" transform=" translate(-127.0867, -837.0613)" d="m 113.34481 824.52919 c 0 0 10.15058 -3.36687 14.81526 -1.34101 c 6.33598 2.75163 11.41419 11.23425 12.62128 17.69425 c 0.9299 4.97751 -12.19021 10.70061 -12.19021 10.70061 z" stroke-linecap="round"/>
</g>
		<g transform="matrix(0.5509 0 0 0.5509 21.238 4.7893)" id="path3227-1">
<path style="stroke: rgb(19,31,103); stroke-width: 0.7559; stroke-dasharray: none; stroke-linecap: butt; stroke-dashoffset: 0; stroke-linejoin: miter; stroke-miterlimit: 4; is-custom-font: none; font-file-url: none; fill: rgb(19,31,103); fill-rule: nonzero; opacity: 1;" transform=" translate(-159.2966, -833.2478)" d="m 157.71536 827.54345 c -2.01761 0.33063 -5.46018 4.62753 -5.46018 4.62753 c 0 0 0.95733 5.10938 3.0905 6.27632 c 2.06161 1.12802 5.06847 0.57086 7.15526 -0.51648 c 2.22609 -1.15995 3.8162 -3.99099 3.8369 -6.28501 c 0.0267 -2.95238 -5.02326 -4.69239 -8.62233 -4.10258 z" stroke-linecap="round"/>
</g>
		<g transform="matrix(0.5509 0 0 0.5509 -8.9654 15.4003)" id="path3199-1">
<path style="stroke: rgb(19,31,103); stroke-opacity: 0.94; stroke-width: 0.756; stroke-dasharray: none; stroke-linecap: butt; stroke-dashoffset: 0; stroke-linejoin: miter; stroke-miterlimit: 4; is-custom-font: none; font-file-url: none; fill: rgb(212,0,0); fill-rule: nonzero; opacity: 1;" transform=" translate(-104.4695, -852.509)" d="m 95.236448 821.48595 c -6.569442 1.97575 -11.954789 4.27612 -16.482271 6.82411 l 5.572433 30.01683 c -8.021699 2.68102 4.442902 15.60855 3.435599 23.58655 c 8.499159 2.20193 12.221391 2.0961 18.208531 0.0546 c 5.03885 -2.33945 9.69105 -4.97605 14.77901 -7.34652 c 3.96037 1.71776 5.24542 4.42791 8.31441 5.7615 l 1.12057 -14.8894 c 0 0 -0.17687 -14.17461 -0.85943 -21.22695 c -0.42383 -4.379 0.27218 -9.20435 -2.00587 -13.0573 c -1.65513 -2.79949 -5.12343 -4.62536 -7.83422 -6.22958 c -2.16085 -1.27849 -6.97558 -3.06346 -6.97558 -3.06346 z" stroke-linecap="round"/>
</g>
		<g transform="matrix(0.5509 0 0 0.5509 -4.3966 1.4431)" id="path3197-3">
<path style="stroke: rgb(0,0,0); stroke-width: 2.3909; stroke-dasharray: none; stroke-linecap: butt; stroke-dashoffset: 0; stroke-linejoin: miter; stroke-miterlimit: 4; is-custom-font: none; font-file-url: none; fill: rgb(0,0,0); fill-rule: nonzero; opacity: 1;" transform=" translate(-112.7635, -827.1738)" d="m 114.45953 830.21353 l -3.56044 -0.37979 l -0.40489 -2.96585 c -0.59664 -2.94691 -1.02293 -0.40338 0.38651 -0.64597 l 0.77925 -2.08788 l 3.93192 1.93746 z" stroke-linecap="round"/>
</g>
		<g transform="matrix(0.5509 0 0 0.5509 -2.5477 1.1891)" id="path3195-8">
<path style="stroke: rgb(0,0,0); stroke-width: 0.7559; stroke-dasharray: none; stroke-linecap: butt; stroke-dashoffset: 0; stroke-linejoin: miter; stroke-miterlimit: 4; is-custom-font: none; font-file-url: none; fill: rgb(0,0,0); fill-rule: nonzero; opacity: 1;" transform=" translate(-116.1198, -826.7127)" d="m 118.86384 823.02931 l -3.65784 6.73317 l -1.83032 0.63353 l 2.30326 -7.15523 z" stroke-linecap="round"/>
</g>
		<g transform="matrix(0.5509 0 0 0.5509 -8.3051 -9.3964)" id="path3115-7">
<path style="stroke: rgb(19,31,103); stroke-width: 0.7559; stroke-dasharray: none; stroke-linecap: butt; stroke-dashoffset: 0; stroke-linejoin: miter; stroke-miterlimit: 4; is-custom-font: none; font-file-url: none; fill: rgb(255,255,255); fill-rule: nonzero; opacity: 1;" transform=" translate(-105.6683, -807.4971)" d="m 90.278673 791.82815 c 0.26208 4.44059 -1.800508 11.9842 3.840912 12.91601 c 0 0 1.413981 8.98588 4.327532 11.62191 c 4.396133 3.97686 7.788233 5.91511 11.981683 9.41266 c 2.38504 1.98923 4.4277 2.61378 6.80681 2.26019 c 1.63852 -0.24351 4.386 -1.35421 3.93193 -2.83768 c -1.61171 -5.26408 -5.63948 -9.96153 -5.82345 -15.40023 c -0.10112 -2.99006 1.61288 -5.08112 1.60364 -8.07256 c -0.004 -1.1582 -0.0457 -2.74492 -0.0166 -3.90295 c 0.0432 -1.72109 1.8253 -3.16906 1.78706 -4.89019 c -0.0715 -3.21989 -5.58062 -6.0738 -5.58062 -6.0738 l -11.63089 0.49435 z" stroke-linecap="round"/>
</g>
		<g transform="matrix(0.5509 0 0 0.5509 -16.3914 -2.4163)" id="path3082-5-4-4">
<path style="stroke: rgb(19,31,103); stroke-width: 0.7559; stroke-dasharray: none; stroke-linecap: butt; stroke-dashoffset: 0; stroke-linejoin: miter; stroke-miterlimit: 4; is-custom-font: none; font-file-url: none; fill: rgb(19,31,103); fill-rule: nonzero; opacity: 1;" transform=" translate(-90.9898, -820.1679)" d="m 95.310503 816.33781 c -4.640121 0.96837 -6.123945 4.02686 -8.936861 7.66026 c 3.391385 -1.94888 5.152659 -2.99595 9.049892 -1.73949 c 0.379395 -3.2012 0.0797 -3.10577 -0.112736 -5.92055 z" stroke-linecap="round"/>
</g>
		<g transform="matrix(0.5509 0 0 0.5509 -16.2826 -7.0196)" id="path3123-2">
<path style="stroke: rgb(19,31,103); stroke-width: 0.7559; stroke-dasharray: none; stroke-linecap: butt; stroke-dashoffset: 0; stroke-linejoin: miter; stroke-miterlimit: 4; is-custom-font: none; font-file-url: none; fill: rgb(226,207,0); fill-rule: nonzero; opacity: 1;" transform=" translate(-91.1874, -811.8118)" d="m 91.451857 803.51636 c -0.248359 -1.95217 -0.465494 6.0151 -3.647395 8.63772 c -0.961272 0.79233 -3.240018 1.9121 -3.462221 3.35847 c 3.987268 -1.90761 6.141874 -2.52147 6.459142 -3.15116 c -1.129764 1.71138 -4.530209 3.78086 -3.312356 5.60462 c 0 0 3.508835 -3.19076 3.162259 -1.95125 c -0.358601 1.28254 1.260671 4.228 1.260671 4.228 c 1.016149 -1.28685 0.288333 -5.11091 0.971536 -4.46603 c 0.940534 0.8875 0.650475 4.48733 1.941874 4.63514 c 2.118087 -0.80424 1.824908 -3.49784 3.207161 -4.32284 c 0 0 -3.918281 -7.16321 -3.433029 -10.41404 c 0.145415 -0.97434 -3.03231 -1.25178 -3.147683 -2.15859 z" stroke-linecap="round"/>
</g>
		<g transform="matrix(0.5509 0 0 0.5509 -8.8498 -15.295)" id="path3119-7">
<path style="stroke: rgb(19,31,103); stroke-width: 0.7559; stroke-dasharray: none; stroke-linecap: butt; stroke-dashoffset: 0; stroke-linejoin: miter; stroke-miterlimit: 4; is-custom-font: none; font-file-url: none; fill: rgb(226,207,0); fill-rule: nonzero; opacity: 1;" transform=" translate(-104.6795, -796.7897)" d="m 101.92087 788.5929 l -5.754448 0.0653 l -5.898663 5.43399 l -0.218911 4.13337 c 0 0 0.910056 -3.12019 2.026649 -2.68297 c 1.104313 0.43239 3.125816 9.28948 3.125816 9.28948 c 0 0 1.390165 0.59767 1.016733 -0.55786 c -0.468884 -1.4509 -0.433843 -4.25147 -0.433843 -4.25147 c 0 0 0.153555 -1.24077 0.253488 -3.13874 c 0.119166 -2.26359 0.413889 -6.77338 0.413889 -6.77338 l 1.20885 1.44724 l 2.035687 -0.97409 l 1.776853 0.81103 z m 14.4446 0.40996 l 1.42033 3.91854 l 0.31789 -0.63963 l 1.20655 2.82445 l -0.7913 -4.76846 z" stroke-linecap="round"/>
</g>
		<g transform="matrix(0.5509 0 0 0.5509 -8.1593 -16.2096)" id="path3126-7">
<path style="stroke: rgb(19,31,103); stroke-width: 0.7559; stroke-dasharray: none; stroke-linecap: butt; stroke-dashoffset: 0; stroke-linejoin: miter; stroke-miterlimit: 4; is-custom-font: none; font-file-url: none; fill: rgb(19,31,103); fill-rule: nonzero; opacity: 1;" transform=" translate(-105.9331, -795.1296)" d="m 102.47434 795.80102 l -0.57147 0.99054 c 2.64087 -0.60712 5.49253 -1.82724 7.8007 -1.629 l 0.25978 -1.69487 c -2.57672 0.35191 -3.31477 0.14566 -6.30792 1.69291 z" stroke-linecap="round"/>
</g>
		<g transform="matrix(0.5509 0 0 0.5509 -3.3589 -16.3507)" id="path3128-9">
<path style="stroke: rgb(19,31,103); stroke-width: 0.7559; stroke-dasharray: none; stroke-linecap: butt; stroke-dashoffset: 0; stroke-linejoin: miter; stroke-miterlimit: 4; is-custom-font: none; font-file-url: none; fill: rgb(19,31,103); fill-rule: nonzero; opacity: 1;" transform=" translate(-114.6472, -794.8736)" d="m 112.67832 793.40121 l -0.49188 1.93934 c 1.25437 -0.1197 2.38831 -0.38142 4.92152 1.00608 l -0.16733 -0.76638 c -1.17264 -1.3783 -2.4587 -2.20711 -4.26205 -2.17904 z" stroke-linecap="round"/>
</g>
		<g transform="matrix(0.5509 0 0 0.5509 -8.0214 -14.2142)" id="path3130-3">
<path style="stroke: rgb(19,31,103); stroke-width: 0.7559; stroke-dasharray: none; stroke-linecap: butt; stroke-dashoffset: 0; stroke-linejoin: miter; stroke-miterlimit: 4; is-custom-font: none; font-file-url: none; fill: rgb(19,31,103); fill-rule: nonzero; opacity: 1;" transform=" translate(-106.1836, -798.752)" d="m 107.95829 797.37916 c -1.19353 0.22121 -2.73523 0.47272 -3.60885 1.49347 c -0.19956 0.23316 -0.35972 1.19918 -0.35972 1.19918 c 0 0 1.6094 0.097 2.40978 0.0326 c 0.57973 -0.0466 1.71608 -0.35621 1.71608 -0.35621 c 0 0 0.39441 -0.85555 0.21534 -1.47605 c -0.0598 -0.20711 -0.14648 -0.93492 -0.37265 -0.89297 z" stroke-linecap="round"/>
</g>
		<g transform="matrix(0.5509 0 0 0.5509 -5.1166 -12.0819)" id="path3138-1">
<path style="stroke: rgb(19,31,103); stroke-opacity: 0.94; stroke-width: 0.7559; stroke-dasharray: none; stroke-linecap: butt; stroke-dashoffset: 0; stroke-linejoin: miter; stroke-miterlimit: 4; is-custom-font: none; font-file-url: none; fill: rgb(19,31,103); fill-rule: nonzero; opacity: 1;" transform=" translate(-111.4565, -802.6224)" d="m 111.60257 795.52858 c 0 0 -1.05816 1.21813 -1.24993 2.22801 c -0.46892 2.46941 1.06705 7.57513 1.06705 7.57513 c 0 0 1.3892 1.21737 1.81045 2.12592 c 0.15689 0.33838 -0.27765 0.90362 -0.67401 0.91076 c -1.50663 0.0271 -3.73455 -0.25492 -3.73455 -0.25492 c 0 0 0.98095 1.13042 1.68319 1.35145 c 0.93979 0.29584 2.21155 0.42885 2.97139 -0.16422 c 0.77629 -0.6059 0.56796 -1.15962 0.61489 -2.10082 c 0.0334 -0.66998 -1.81142 -4.04968 -2.24106 -6.4042 c 0.44001 -0.10775 1.51442 -0.35326 2.05764 -0.82233 l -2.18735 -1.42797 z" stroke-linecap="round"/>
</g>
		<g transform="matrix(0.5509 0 0 0.5509 -4.433 -14.1568)" id="path3132-9">
<path style="stroke: rgb(19,31,103); stroke-width: 0.7559; stroke-dasharray: none; stroke-linecap: butt; stroke-dashoffset: 0; stroke-linejoin: miter; stroke-miterlimit: 4; is-custom-font: none; font-file-url: none; fill: rgb(19,31,103); fill-rule: nonzero; opacity: 1;" transform=" translate(-112.6974, -798.8562)" d="m 111.21281 798.00157 c -0.25753 0.51297 -0.21978 1.62314 -0.21978 1.62314 c 0 0 1.20702 0.26717 1.9377 0.38758 c 0.3466 0.0571 1.47299 0.27286 1.47299 0.27286 c 0 0 -0.0528 -0.52115 -0.22017 -0.8341 c -0.46495 -0.86928 -1.34515 -1.8946 -2.26206 -2.01803 c -0.41868 -0.0564 -0.57673 0.30574 -0.70871 0.56858 z" stroke-linecap="round"/>
</g>
		<g transform="matrix(0.5509 0 0 0.5509 -6.3346 -4.8903)" id="path3134-8">
<path style="stroke: rgb(19,31,103); stroke-width: 0.7559; stroke-dasharray: none; stroke-linecap: butt; stroke-dashoffset: 0; stroke-linejoin: miter; stroke-miterlimit: 4; is-custom-font: none; font-file-url: none; fill: rgb(0,0,0); fill-rule: nonzero; opacity: 1;" transform=" translate(-109.2456, -815.677)" d="m 110.4177 812.75114 c -1.36394 -0.2539 -4.95817 -1.88496 -5.65078 -0.76371 c -0.90277 1.46137 1.57713 4.59746 2.71212 5.91149 c 1.11352 1.28914 3.02573 2.15262 4.75393 1.76265 c 0.76593 -0.1728 1.5414 -0.84291 1.65731 -1.56756 c 0.18416 -1.15136 -0.59392 -1.96665 -0.82411 -3.11084 c -0.19621 -0.97539 0.82006 -2.20765 0.22902 -3.03396 c -0.40204 -0.5621 -2.87781 0.80207 -2.87781 0.80207 z" stroke-linecap="round"/>
</g>
		<g transform="matrix(0.5509 0 0 0.5509 -5.5782 -3.5264)" id="path3136-6">
<path style="stroke: rgb(19,31,103); stroke-width: 0.7559; stroke-dasharray: none; stroke-linecap: butt; stroke-dashoffset: 0; stroke-linejoin: miter; stroke-miterlimit: 4; is-custom-font: none; font-file-url: none; fill: rgb(255,255,255); fill-rule: nonzero; opacity: 1;" transform=" translate(-110.6185, -818.153)" d="m 107.72443 817.21455 c 0.002 0.8874 2.2724 2.48224 3.89112 2.25689 c 0.87934 -0.1224 1.73039 -0.28687 1.67282 -1.57861 c -0.0162 -0.36475 0.74718 -0.58252 -0.45446 -1.07991 c 0 0 -0.80276 0.42352 -0.95531 0.83153 c 0.23041 0.267 -0.47484 0.29498 -0.93668 0.36272 c -1.61092 0.2526 -3.21749 -0.79262 -3.21749 -0.79262 z" stroke-linecap="round"/>
</g>
		<g transform="matrix(0.5509 0 0 0.5509 -15.7298 -13.7907)" id="path3159-5">
<path style="stroke: rgb(19,31,103); stroke-width: 0.7559; stroke-dasharray: none; stroke-linecap: butt; stroke-dashoffset: 0; stroke-linejoin: miter; stroke-miterlimit: 4; is-custom-font: none; font-file-url: none; fill: rgb(19,31,103); fill-rule: nonzero; opacity: 1;" transform=" translate(-92.1909, -799.5206)" d="m 91.31544 797.62407 c 0.279164 -0.14087 0.691478 -0.002 0.929974 0.19326 c 0.905299 0.74008 1.233441 3.16047 1.233441 3.16047 l -0.668676 0.49685 c 0 0 -0.373486 -2.59447 -1.319659 -2.61961 c -0.30705 -0.008 -0.709209 0.6047 -0.552642 0.53456 c 0.156599 -0.0702 -0.166349 -1.49112 0.377525 -1.76555 z" stroke-linecap="round"/>
</g>
		<g transform="matrix(0.5509 0 0 0.5509 -18.2294 18.1423)" id="path3201-0">
<path style="stroke: rgb(19,31,103); stroke-width: 0.7559; stroke-dasharray: none; stroke-linecap: butt; stroke-dashoffset: 0; stroke-linejoin: miter; stroke-miterlimit: 4; is-custom-font: none; font-file-url: none; fill: rgb(19,31,103); fill-opacity: 0.94; fill-rule: nonzero; opacity: 1;" transform=" translate(-87.6533, -857.4863)" d="m 86.14719 826.77902 c -2.131687 -0.73824 -6.55736 -0.98826 -8.57633 -0.0138 c -2.231197 1.07698 -3.443357 3.6863 -3.942056 5.97706 c -1.459233 6.70201 2.927388 13.45292 3.311148 20.28173 c 0.543173 9.66627 -1.443643 29.00714 -1.443643 29.00714 c 1.514305 3.96889 3.326312 5.52565 5.17137 6.8154 l 0.792345 -8.47252 l 0.458597 -22.27469 l 2.605249 -4.87063 l 12.754975 7.02046 l 4.695075 -2.10328 l -4.503702 -3.10667 l -0.189471 -1.94449 l -2.291023 -1.15527 c 0 0 3.429558 -11.14477 1.458762 -15.92447 c -2.053892 -4.98149 -4.923088 -7.37333 -10.301418 -9.23586 z" stroke-linecap="round"/>
</g>
		<g transform="matrix(0.5509 0 0 0.5509 -4.0461 8.7813)" id="path4302-2">
<path style="stroke: rgb(19,31,103); stroke-width: 0.7559; stroke-dasharray: none; stroke-linecap: butt; stroke-dashoffset: 0; stroke-linejoin: miter; stroke-miterlimit: 4; is-custom-font: none; font-file-url: none; fill: rgb(19,31,103); fill-rule: nonzero; opacity: 1;" transform=" translate(-113.3997, -840.4943)" d="m 112.30024 831.25848 l 2.19893 18.4716 l -0.87958 -18.4716 z" stroke-linecap="round"/>
</g>
		<g transform="matrix(0.5509 0 0 0.5509 -4.4271 8.3672)" id="path3378-6">
<path style="stroke: rgb(19,31,103); stroke-width: 0.7559; stroke-dasharray: none; stroke-linecap: butt; stroke-dashoffset: 0; stroke-linejoin: miter; stroke-miterlimit: 4; is-custom-font: none; font-file-url: none; fill: rgb(19,31,103); fill-rule: nonzero; opacity: 1;" transform=" translate(-112.7079, -839.7425)" d="m 115.34429 834.36537 c -2.44038 0.0124 -4.90204 0.34696 -7.23126 0.9754 c -2.47125 0.66676 -6.57256 0.86123 -6.90074 3.23351 c -0.061 0.44051 0.6166 0.794 1.08287 0.89105 c 2.59173 0.53953 5.03573 -1.65693 7.6526 -2.0786 c 2.71422 -0.43736 5.48941 -0.53956 8.24308 -0.46091 c 1.92792 0.0551 4.28934 1.82819 5.74315 0.65002 c 0.3907 -0.31657 0.33053 -1.04321 0.0224 -1.43061 c -1.27827 -1.60701 -4.04807 -1.49093 -6.18904 -1.67555 c -0.80497 -0.0694 -1.60944 -0.10845 -2.42292 -0.10432 z m 1.00227 6.04119 c -1.65033 -0.0379 -3.321 0.19233 -4.89736 0.61343 c -2.20637 0.58952 -5.44381 0.91533 -6.10758 2.95807 c -0.12084 0.37182 0.20828 0.8916 0.59969 1.0276 c 1.76715 0.61408 3.47797 -1.42703 5.31987 -1.80609 c 2.03425 -0.41866 4.14239 -0.60684 6.22334 -0.50609 c 1.78698 0.0865 3.76175 1.83276 5.27699 0.94779 c 0.36185 -0.21136 0.51604 -0.80236 0.32601 -1.1582 c -0.8173 -1.53053 -3.29092 -1.68382 -5.10745 -1.94713 c -0.54013 -0.0783 -1.08346 -0.11678 -1.63357 -0.12941 z" stroke-linecap="round"/>
</g>
		<g transform="matrix(0.5448 0.0817 -0.0942 0.5427 8.9399 13.7909)" id="rect10679-0">
<rect style="stroke: rgb(0,0,0); stroke-width: 0.756; stroke-dasharray: none; stroke-linecap: butt; stroke-dashoffset: 0; stroke-linejoin: round; stroke-miterlimit: 4; is-custom-font: none; font-file-url: none; fill: rgb(0,0,0); fill-rule: nonzero; opacity: 1;" x="-1.0182" y="-34.24485" rx="0.27058026" ry="2.1503823" width="2.0364" height="68.4897"/>
</g>
		<g transform="matrix(0.5509 0 0 0.5509 6.6967 14.7319)" id="path3209-2">
<path style="stroke: rgb(19,31,103); stroke-opacity: 0.94; stroke-width: 0.7559; stroke-dasharray: none; stroke-linecap: butt; stroke-dashoffset: 0; stroke-linejoin: miter; stroke-miterlimit: 4; is-custom-font: none; font-file-url: none; fill: rgb(255,255,255); fill-rule: nonzero; opacity: 1;" transform=" translate(-132.9004, -851.2961)" d="m 119.80317 855.62095 c 0 0 4.25543 -2.13346 6.42095 -3.57251 c 1.00196 -0.66586 2.77624 -1.27063 3.32159 -2.29283 c 0.5993 -1.12328 -0.11266 -2.12556 0.53164 -3.22735 c 0.42585 -0.72824 1.7222 -1.44199 2.54246 -1.9534 c 1.30141 -0.81142 3.86141 -1.54115 3.86141 -1.54115 c 0 0 0.41252 1.66889 0.0663 2.51488 c -0.25442 0.62161 -1.99695 1.24004 -1.63256 1.81522 c 0.94217 1.48713 3.97909 0.40837 5.56815 -0.48718 c 1.02382 -0.57705 1.93517 -2.79905 1.93517 -2.79905 c 0 0 -3.37768 0.0825 -3.253 -0.66828 c 0.13759 -0.8286 2.52776 -1.44333 2.52776 -1.44333 c 0 0 3.50374 0.92561 3.97402 2.15903 c 0.37355 0.97971 -0.43454 1.80207 -0.44616 2.83768 c -0.0109 0.97112 0.83967 1.63697 0.7729 2.50045 c -0.10269 1.3282 -1.11971 2.45423 -1.76781 3.64247 c -0.7591 1.39177 -1.12212 3.14895 -2.47943 4.07576 c -2.72721 1.86236 -6.56594 2.26964 -9.95414 2.01014 c -1.77704 -0.13611 -3.22377 -1.57647 -4.98896 -1.3512 c -1.91802 0.24482 -4.57464 2.7859 -4.57464 2.7859 z" stroke-linecap="round"/>
</g>
		<g transform="matrix(0.5509 0 0 0.5509 -0.4992 19.847)" id="path3205-4">
<path style="stroke: rgb(19,31,103); stroke-opacity: 0.94; stroke-width: 0.7559; stroke-dasharray: none; stroke-linecap: butt; stroke-dashoffset: 0; stroke-linejoin: miter; stroke-miterlimit: 4; is-custom-font: none; font-file-url: none; fill: rgb(19,31,103); fill-rule: nonzero; opacity: 1;" transform=" translate(-119.8381, -860.5814)" d="m 113.17721 855.96512 c 0 0 2.66905 -1.39297 4.09796 -1.88652 c 0.78339 -0.27058 1.63093 -0.81345 2.42815 -0.58039 c 3.64077 1.06427 6.43146 5.24742 6.79005 8.77938 c 0.0709 0.69835 -0.54669 1.38167 -1.01982 1.92815 c -1.44683 1.6711 -4.56334 3.51552 -4.56334 3.51552 z" stroke-linecap="round"/>
</g>
		<g transform="matrix(0.5509 0 0 0.5509 -10.0454 22.9269)" id="path3203-8">
<path style="stroke: rgb(19,31,103); stroke-opacity: 0.94; stroke-width: 0.7559; stroke-dasharray: none; stroke-linecap: butt; stroke-dashoffset: 0; stroke-linejoin: miter; stroke-miterlimit: 4; is-custom-font: none; font-file-url: none; fill: rgb(212,0,0); fill-rule: nonzero; opacity: 1;" transform=" translate(-102.5092, -866.1719)" d="m 81.918269 858.09901 l 8.317138 16.5679 c 0 0 6.373786 3.98591 9.608425 4.32031 c 8.506948 0.87964 15.771338 -2.84789 21.685988 -8.5986 c 0.9852 -0.95786 1.56069 -3.70152 1.56069 -3.70152 c 0.16444 -0.39001 -1.80815 -7.853 -4.76212 -9.52642 c -2.11555 -1.19846 -4.3591 -2.5119 -4.3591 -2.5119 c -4.49513 -2.4175 -11.7872 1.38746 -16.691186 5.59991 L 84.52313 853.22823 Z" stroke-linecap="round"/>
</g>
		<g transform="matrix(0.5509 0 0 0.5509 23.9434 0.5411)" id="path3221-6">
<path style="stroke: rgb(19,31,103); stroke-width: 0.7559; stroke-dasharray: none; stroke-linecap: butt; stroke-dashoffset: 0; stroke-linejoin: miter; stroke-miterlimit: 4; is-custom-font: none; font-file-url: none; fill: rgb(255,255,255); fill-rule: nonzero; opacity: 1;" transform=" translate(-164.2075, -825.5362)" d="m 156.87347 825.18132 c 0 0 0.15166 1.54785 0.62604 2.15482 c 0.99783 1.27672 4.15837 1.28273 4.15837 1.28273 c 0 0 -3.72823 0.3899 -4.64285 1.57252 c -0.91083 1.17777 0.53686 3.30963 1.4751 4.10837 c 1.57347 1.33928 3.92296 0.72581 5.60829 -0.0264 c 2.94103 -1.31269 6.2666 -6.96757 6.2666 -6.96757 c 0 0 1.77918 -4.8844 1.2129 -7.24037 c -0.42363 -1.76233 -2.69595 -2.76464 -4.45304 -3.53523 c -2.13051 -0.93446 -5.93179 -0.38682 -5.93179 -0.38682 c 0 0 -0.39105 2.08549 0.28662 2.76344 c 0.80794 0.80827 3.50989 0.55851 3.50989 0.55851 c 2.83497 0.62799 2.34216 1.89626 2.70195 3.00052 c 0 0 -3.07309 -1.74442 -4.80656 -2.00694 c -1.27424 -0.19292 -4.62374 0.3463 -4.62374 0.3463 c 0 0 0.55478 1.6898 1.06256 2.36514 c 0.64229 0.85424 2.62724 0.75096 2.62724 0.75096 l 2.17627 1.46031 c 0 0 -2.52858 -0.74588 -3.83647 -0.76733 c -1.15701 -0.019 -3.41755 0.56702 -3.41755 0.56702 z" stroke-linecap="round"/>
</g>
		<g transform="matrix(0.5509 0 0 0.5509 -6.3926 33.944)" id="path3235-5">
<path style="stroke: rgb(0,0,0); stroke-width: 0.7559; stroke-dasharray: none; stroke-linecap: butt; stroke-dashoffset: 0; stroke-linejoin: miter; stroke-miterlimit: 4; is-custom-font: none; font-file-url: none; fill: rgb(0,0,0); fill-rule: nonzero; opacity: 1;" transform=" translate(-109.1401, -886.1711)" d="m 93.860587 885.64394 c -0.465337 0.57934 -0.604365 1.72388 -0.06332 4.04642 c 14.542033 0.65785 25.710673 -1.05984 30.838383 -3.12425 c 0.25653 -1.4764 0.45692 -2.93872 -0.714 -4.05692 c -3.92725 1.57806 -16.49747 3.7968 -30.061205 3.13475 z" stroke-linecap="round"/>
</g>
		<g transform="matrix(0.5509 0 0 0.5509 -2.4614 34.323)" id="path3233-0">
<path style="stroke: rgb(0,0,0); stroke-width: 0.7559; stroke-dasharray: none; stroke-linecap: butt; stroke-dashoffset: 0; stroke-linejoin: miter; stroke-miterlimit: 4; is-custom-font: none; font-file-url: none; fill: rgb(226,207,0); fill-rule: nonzero; opacity: 1;" transform=" translate(-116.2763, -886.859)" d="m 111.60647 884.36868 c 0.14197 1.76942 0.0696 3.99642 0.76686 5.64738 c 0.32319 0.7653 1.35602 1.43112 2.23396 1.33109 c 1.61993 -0.18456 3.73003 -0.36066 5.2996 -0.79559 c 0.73377 -0.20334 0.87837 -1.23099 0.96337 -1.93829 c 0.21338 -1.7758 -0.0248 -3.48951 -0.54722 -4.77716 c -0.19027 -0.46902 -0.38988 -1.12154 -0.91361 -1.24099 c -2.22796 -0.50807 -5.0521 -0.15122 -7.0087 0.7002 c -0.42309 0.18415 -0.82907 0.64028 -0.7943 1.07332 z" stroke-linecap="round"/>
</g>
		<g transform="matrix(0.5509 0 0 0.5509 -21.9902 8.6212)" id="path3361-9">
<path style="stroke: rgb(0,0,0); stroke-width: 1.5; stroke-dasharray: none; stroke-linecap: butt; stroke-dashoffset: 0; stroke-linejoin: miter; stroke-miterlimit: 4; is-custom-font: none; font-file-url: none; fill: rgb(255,255,255); fill-rule: nonzero; opacity: 1;" transform=" translate(-80.8267, -840.2035)" d="m 77.954387 827.17754 c -1.878423 11.24367 4.510718 17.06278 6.569054 26.05193 c 0 0 -8.292585 -16.2922 -7.313112 -24.52633 c 0.153489 -1.29012 0.744058 -1.52553 0.744058 -1.52553 z" stroke-linecap="round"/>
</g>
		<g transform="matrix(0.5509 0 0 0.5509 -22.1391 8.7522)" id="path3363-0">
<path style="stroke: rgb(0,0,0); stroke-width: 0.25; stroke-dasharray: none; stroke-linecap: butt; stroke-dashoffset: 0; stroke-linejoin: miter; stroke-miterlimit: 4; is-custom-font: none; font-file-url: none; fill: rgb(0,0,0); fill-rule: nonzero; opacity: 1;" transform=" translate(-80.5563, -840.4415)" d="m 78.550722 827.69923 c -0.740666 -0.0123 -1.699364 0.23819 -2.220241 0.4708 c -0.879616 0.39279 -1.123999 1.73765 -1.123999 1.73765 c 1.928311 -1.43025 3.820529 -0.7311 5.720154 -0.33403 c 0 0 -0.951722 -1.41507 -1.723529 -1.75826 c -0.173774 -0.0773 -0.405548 -0.11212 -0.652423 -0.11614 z m -0.317554 4.30619 c -1.023596 0.0128 -2.097857 0.48709 -2.63686 1.27004 c -0.178877 0.25982 -0.183493 1.09046 0.100874 0.93145 c 0.682706 -0.38175 2.639939 -0.97746 4.069121 -0.57101 c 0.639522 0.18188 0.641471 -0.72117 0.133056 -1.12502 c -0.456102 -0.36232 -1.052047 -0.51314 -1.666156 -0.50546 z m 2.364338 5.07604 c -1.364909 0.002 -3.292052 0.87733 -4.098354 1.21451 c -0.465531 0.19465 0.03641 1.42272 0.537211 1.33084 c 1.057347 -0.19394 3.342056 -1.12278 4.524363 -1.36971 c 0.418525 -0.0874 -0.0096 -1.01594 -0.425115 -1.1147 c -0.167517 -0.0398 -0.342844 -0.0612 -0.537832 -0.0609 z m 1.381591 3.93593 c -1.04363 0.008 -1.85114 1.11444 -3.453531 1.81344 c -0.57942 0.25275 0.308023 1.22041 0.308023 1.22041 c 0 0 1.748668 -0.55014 3.661505 -1.57814 c 0.590177 -0.31715 0.370121 -1.34496 -0.304659 -1.43499 c -0.07206 -0.01 -0.141771 -0.0213 -0.211338 -0.0207 z m 1.56778 4.3319 c -1.365339 0.065 -3.173407 1.54165 -3.762454 1.88083 c -0.287236 0.16539 -0.139782 0.90819 0.197065 0.93275 c 0.843991 0.0616 2.798572 -1.31634 4.312723 -1.37257 c 0.573185 -0.0213 -0.174257 -1.46829 -0.747137 -1.44101 z m 0.924281 4.87751 c -0.91138 0.0732 -1.9363 0.52091 -2.679537 1.53775 c -0.286118 0.39145 0.426477 1.78761 0.306341 1.32772 c -0.157735 -0.60394 1.322072 -1.21556 3.547774 -1.68697 c 0.507859 -0.10757 0.201791 -1.03822 -0.30942 -1.131 c -0.262208 -0.0476 -0.561375 -0.0719 -0.865192 -0.0475 z" stroke-linecap="round"/>
</g>
		<g transform="matrix(0.5509 0 0 0.5509 -19.2243 24.615)" id="path3386-0">
<path style="stroke: rgb(0,0,0); stroke-width: 0.7559; stroke-dasharray: none; stroke-linecap: butt; stroke-dashoffset: 0; stroke-linejoin: miter; stroke-miterlimit: 4; is-custom-font: none; font-file-url: none; fill: rgb(0,0,0); fill-rule: nonzero; opacity: 1;" transform=" translate(-85.8476, -869.2364)" d="m 81.918269 858.09901 l -0.458593 22.27469 c 1.972509 -3.07588 5.423931 -4.33009 8.775888 -5.70715 z" stroke-linecap="round"/>
</g>
		<g transform="matrix(0.5509 0 0 0.5509 -16.0833 -17.165)" id="path3009-6">
<path style="stroke: rgb(0,0,0); stroke-width: 2.3909; stroke-dasharray: none; stroke-linecap: butt; stroke-dashoffset: 0; stroke-linejoin: miter; stroke-miterlimit: 4; is-custom-font: none; font-file-url: none; fill: rgb(255,255,255); fill-rule: nonzero; opacity: 1;" transform=" translate(-91.5493, -793.3954)" d="M 91.549298 793.39542" stroke-linecap="round"/>
</g>
		<g transform="matrix(0.5509 0 0 0.5509 -25.3023 -23.6074)" id="path3082-1">
<path style="stroke: rgb(0,0,0); stroke-width: 0.7559; stroke-dasharray: none; stroke-linecap: butt; stroke-dashoffset: 0; stroke-linejoin: miter; stroke-miterlimit: 4; is-custom-font: none; font-file-url: none; fill: rgb(0,0,0); fill-rule: nonzero; opacity: 1;" transform=" translate(-74.8145, -781.7008)" d="m 71.329714 773.60883 c -2.451761 4.76701 -0.16767 10.57888 1.180395 16.18387 c 1.33326 -4.59602 2.889037 -9.53294 6.87385 -11.69183 c -1.986891 -3.15747 -5.302329 -3.27174 -8.05444 -4.49204 z" stroke-linecap="round"/>
</g>
		<g transform="matrix(0.5509 0 0 0.5509 -10.7775 -29.3522)" id="path3084-8">
<path style="stroke: rgb(0,0,0); stroke-width: 0.7559; stroke-dasharray: none; stroke-linecap: butt; stroke-dashoffset: 0; stroke-linejoin: miter; stroke-miterlimit: 4; is-custom-font: none; font-file-url: none; fill: rgb(0,0,0); fill-rule: nonzero; opacity: 1;" transform=" translate(-101.1805, -771.2723)" d="m 96.206958 782.94334 c -0.719113 -7.55846 -0.480227 -15.04628 1.340431 -22.41707 l 1.962533 -0.92496 l 6.631028 6.27667 c -0.0119 5.20358 -1.16235 10.33216 0.38984 15.63935 z" stroke-linecap="round"/>
</g>
		<g transform="matrix(0.5509 0 0 0.5509 4.5402 -29.5118)" id="path3088-93">
<path style="stroke: rgb(0,0,0); stroke-width: 0.7559; stroke-dasharray: none; stroke-linecap: butt; stroke-dashoffset: 0; stroke-linejoin: miter; stroke-miterlimit: 4; is-custom-font: none; font-file-url: none; fill: rgb(0,0,0); fill-rule: nonzero; opacity: 1;" transform=" translate(-128.986, -770.9828)" d="m 130.52554 761.86667 c 0.60763 6.25132 0.65215 12.07151 4.22112 18.23226 c -4.47447 -2.83673 -8.53579 -6.0988 -11.52138 -10.46004 c 1.40705 -3.47872 4.89932 -5.05214 7.30026 -7.77222 z" stroke-linecap="round"/>
</g>
		<g transform="matrix(0.5509 0 0 0.5509 -1.3767 -29.1265)" id="path3086-4">
<path style="stroke: rgb(19,31,103); stroke-width: 0.756; stroke-dasharray: none; stroke-linecap: butt; stroke-dashoffset: 0; stroke-linejoin: miter; stroke-miterlimit: 4; is-custom-font: none; font-file-url: none; fill: rgb(19,31,103); fill-rule: nonzero; opacity: 1;" transform=" translate(-118.2453, -771.6821)" d="m 105.93543 781.87277 c 3.39576 -6.73534 5.96999 -13.66196 11.27153 -19.95313 c 5.0751 -0.79429 8.32104 -0.25629 13.3482 -0.17137 c -5.20411 6.4792 -10.51735 11.58676 -12.3317 20.0995 z" stroke-linecap="round"/>
</g>
		<g transform="matrix(0.5509 0 0 0.5509 -9.375 -19.762)" id="path3072-4">
<path style="stroke: rgb(19,31,103); stroke-width: 0.7559; stroke-dasharray: none; stroke-linecap: butt; stroke-dashoffset: 0; stroke-linejoin: miter; stroke-miterlimit: 4; is-custom-font: none; font-file-url: none; fill: rgb(19,31,103); fill-rule: nonzero; opacity: 1;" transform=" translate(-103.7262, -788.6813)" d="m 89.900603 794.27651 c 9.256856 -5.1496 18.973237 -5.85353 28.953887 -3.99933 c -0.15638 -1.79815 -0.42067 -3.6258 0.21352 -5.20792 c -10.4316 -3.16642 -20.944267 -3.07563 -30.683648 4.23844 c 1.031309 1.58364 1.403844 3.25825 1.516175 4.96881 z" stroke-linecap="round"/>
</g>
		<g transform="matrix(0.5509 0 0 0.5509 -9.121 -32.474)" id="path3090-6">
<path style="stroke: rgb(212,0,0); stroke-width: 0.7559; stroke-dasharray: none; stroke-linecap: butt; stroke-dashoffset: 0; stroke-linejoin: miter; stroke-miterlimit: 4; is-custom-font: none; font-file-url: none; fill: rgb(212,0,0); fill-rule: nonzero; opacity: 1;" transform=" translate(-104.1875, -765.6056)" d="m 97.649079 761.166 c 1.538821 5.30429 5.178771 9.29565 10.407041 12.29396 c 0.0699 -4.32357 -0.51698 -8.52107 2.77235 -13.46053 c -2.37163 -1.63408 -4.23322 -2.00995 -7.39419 -2.24809 l -5.887748 2.77489 z" stroke-linecap="round"/>
</g>
		<g transform="matrix(0.5509 0 0 0.5509 -9.65 -21.7314)" id="path3074-06">
<path style="stroke: rgb(212,0,0); stroke-width: 1; stroke-dasharray: none; stroke-linecap: butt; stroke-dashoffset: 0; stroke-linejoin: miter; stroke-miterlimit: 4; is-custom-font: none; font-file-url: none; fill: rgb(212,0,0); fill-rule: nonzero; opacity: 1;" transform=" translate(-103.227, -785.1062)" d="m 88.688443 789.18633 c 9.618943 -3.90078 19.465517 -5.04236 30.053407 -4.12504 c -0.24982 -1.23653 0.18462 -2.32228 0.90896 -3.34412 c -11.2614 -1.37522 -22.644021 -1.10382 -32.84761 4.61594 c 1.212901 0.68383 1.525958 1.77903 1.885475 2.85297 z" stroke-linecap="round"/>
</g>
		<g transform="matrix(0.5509 0 0 0.5509 23.0717 -4.3133)" id="path15561-1">
<path style="stroke: rgb(19,31,103); stroke-width: 0.7559; stroke-dasharray: none; stroke-linecap: butt; stroke-dashoffset: 0; stroke-linejoin: miter; stroke-miterlimit: 4; is-custom-font: none; font-file-url: none; fill: rgb(255,255,255); fill-rule: nonzero; opacity: 1;" transform=" translate(-162.6254, -816.7244)" d="m 161.2505 817.0479 l 2.39112 0.12939 l 0.35867 -0.90573 h -2.51066 z" stroke-linecap="round"/>
</g>
		<g transform="matrix(0.5509 0 0 0.5509 21.2892 -1.7303)" id="path15563-8">
<path style="stroke: rgb(19,31,103); stroke-width: 0.7559; stroke-dasharray: none; stroke-linecap: butt; stroke-dashoffset: 0; stroke-linejoin: miter; stroke-miterlimit: 4; is-custom-font: none; font-file-url: none; fill: rgb(255,255,255); fill-rule: nonzero; opacity: 1;" transform=" translate(-159.3897, -821.4133)" d="m 158.85347 822.17068 l 1.30219 -0.27541 l 0.0766 -1.23936 l -1.68521 0.13771 z" stroke-linecap="round"/>
</g>
		<g transform="matrix(0.5509 0 0 0.5509 20.4301 0.8042)" id="path15565-4">
<path style="stroke: rgb(19,31,103); stroke-width: 0.7559; stroke-dasharray: none; stroke-linecap: butt; stroke-dashoffset: 0; stroke-linejoin: miter; stroke-miterlimit: 4; is-custom-font: none; font-file-url: none; fill: rgb(255,255,255); fill-rule: nonzero; opacity: 1;" transform=" translate(-157.8303, -826.0141)" d="m 157.19308 826.40223 l 1.11515 0.51757 l 0.23896 -1.16451 l -0.15931 -0.64694 l -1.27444 0.38816 z" stroke-linecap="round"/>
</g>
		<g transform="matrix(0.5509 0 0 0.5509 10.7121 -2.433)" id="path3082-2-5">
<path style="stroke: rgb(212,0,0); stroke-width: 0.7559; stroke-dasharray: none; stroke-linecap: butt; stroke-dashoffset: 0; stroke-linejoin: miter; stroke-miterlimit: 4; is-custom-font: none; font-file-url: none; fill: rgb(212,0,0); fill-rule: nonzero; opacity: 1;" transform=" translate(-140.1895, -820.1376)" d="m 138.89373 816.86313 c -1.93875 1.68498 -0.795 3.99679 -1.0066 6.54912 c 1.36546 -1.76356 2.46689 -4.22285 4.75004 -4.59819 c -0.8588 -1.26446 -2.58775 -1.06357 -3.74328 -1.95104 z" stroke-linecap="round"/>
</g>
		<g transform="matrix(0.5509 0 0 0.5509 13.497 -1.7414)" id="path3088-9-9">
<path style="stroke: rgb(19,31,103); stroke-width: 0.7559; stroke-dasharray: none; stroke-linecap: butt; stroke-dashoffset: 0; stroke-linejoin: miter; stroke-miterlimit: 4; is-custom-font: none; font-file-url: none; fill: rgb(19,31,103); fill-rule: nonzero; opacity: 1;" transform=" translate(-145.2448, -821.393)" d="m 147.35547 817.92826 c -0.59742 2.98133 -0.64595 3.60697 0.26979 6.92953 c -1.85581 -1.89615 -3.87962 -3.85368 -4.76095 -6.26508 c 1.21669 -1.43315 2.8814 0.28816 4.49123 -0.66434 z" stroke-linecap="round"/>
</g>
		<g transform="matrix(0.5509 0 0 0.5509 8.2203 -3.8139)" id="path3082-5-8">
<path style="stroke: rgb(19,31,103); stroke-width: 0.7559; stroke-dasharray: none; stroke-linecap: butt; stroke-dashoffset: 0; stroke-linejoin: miter; stroke-miterlimit: 4; is-custom-font: none; font-file-url: none; fill: rgb(19,31,103); fill-rule: nonzero; opacity: 1;" transform=" translate(-135.6663, -817.6312)" d="m 135.26894 814.93212 c -2.29383 1.37902 -1.64452 2.93071 -2.38534 5.39813 c 1.73499 -1.53557 3.19769 -3.07755 5.56542 -3.12725 c -0.15026 -1.63538 -2.20485 -1.24212 -3.18023 -2.27095 z" stroke-linecap="round"/>
</g>
		<g transform="matrix(0.5509 0 0 0.5509 15.7888 -3.091)" id="path3082-5-5-4">
<path style="stroke: rgb(212,0,0); stroke-width: 1; stroke-dasharray: none; stroke-linecap: butt; stroke-dashoffset: 0; stroke-linejoin: miter; stroke-miterlimit: 4; is-custom-font: none; font-file-url: none; fill: rgb(212,0,0); fill-rule: nonzero; opacity: 1;" transform=" translate(-149.405, -818.9434)" d="m 149.64728 816.81966 c 0.64342 0.84178 2.02964 1.22794 2.86339 4.24749 c -2.18396 -2.31261 -2.87423 -1.61901 -6.21126 -2.73497 c 1.57675 -1.04151 2.04665 -0.91587 3.34787 -1.5126 z" stroke-linecap="round"/>
</g>
		<g transform="matrix(0.5509 0 0 0.5509 11.9173 -4.3896)" id="path3074-0-0">
<path style="stroke: rgb(212,0,0); stroke-width: 0.7559; stroke-dasharray: none; stroke-linecap: butt; stroke-dashoffset: 0; stroke-linejoin: miter; stroke-miterlimit: 4; is-custom-font: none; font-file-url: none; fill: rgb(212,0,0); fill-rule: nonzero; opacity: 1;" transform=" translate(-142.3772, -816.5858)" d="m 146.67339 815.08791 c -3.88909 1.04963 -2.90763 1.4851 -6.37378 -0.84653 c -0.0676 0.55673 -4.72509 0.41693 -5.17722 0.76389 c 4.2488 3.97795 10.67949 5.52746 14.50969 1.81098 c -0.42009 -0.43848 -0.93138 0.0511 -2.95853 -1.72831 z" stroke-linecap="round"/>
</g>
		<g transform="matrix(0.5509 0 0 0.5509 12.9139 -8.2681)" id="path13374-7">
<path style="stroke: rgb(0,0,0); stroke-width: 0.378; stroke-dasharray: none; stroke-linecap: butt; stroke-dashoffset: 0; stroke-linejoin: miter; stroke-miterlimit: 4; is-custom-font: none; font-file-url: none; fill: rgb(255,255,255); fill-rule: nonzero; opacity: 1;" transform=" translate(-144.1863, -809.5454)" d="m 148.4507 810.18514 c -0.76947 4.43149 -3.30255 7.73779 -5.6577 7.38449 c -2.35515 -0.35331 -3.64066 -4.23214 -2.87115 -8.66393 c 0.76946 -4.4315 3.30255 -7.7378 5.6577 -7.38449 c 2.35515 0.3533 3.64065 4.23213 2.87115 8.66393 z" stroke-linecap="round"/>
</g>
		<g transform="matrix(0.5509 0 0 0.5509 12.3951 -7.2303)" id="path584-7-6">
<path style="stroke: rgb(19,31,103); stroke-width: 0.378; stroke-dasharray: none; stroke-linecap: butt; stroke-dashoffset: 0; stroke-linejoin: miter; stroke-miterlimit: 4; is-custom-font: none; font-file-url: none; fill: rgb(255,255,255); fill-rule: evenodd; opacity: 1;" transform=" translate(-143.2446, -811.4293)" d="m 143.92556 810.1825 c -0.43423 0.21535 -0.53619 0.29424 -0.80244 0.5647 c -0.0976 0.10515 -0.28943 0.35634 -0.3607 0.53347 c -0.0712 0.1771 -0.14689 0.43823 -0.17119 0.57887 c -0.0823 0.47663 0.029 0.80005 0.20905 0.81638 c 0.16218 0.007 0.39163 -0.11704 0.75956 -0.42155" stroke-linecap="round"/>
</g>
		<g transform="matrix(0.5509 0 0 0.5509 13.0274 -7.1478)" id="path585-6-3">
<path style="stroke: rgb(19,31,103); stroke-width: 0.378; stroke-dasharray: none; stroke-linecap: butt; stroke-dashoffset: 0; stroke-linejoin: bevel; stroke-miterlimit: 4; is-custom-font: none; font-file-url: none; fill: rgb(255,255,255); fill-rule: evenodd; opacity: 1;" transform=" translate(-144.3925, -811.5792)" d="m 144.2023 810.2296 c 0.3393 0.33139 0.4094 0.43609 0.57061 0.77066 c 0.0571 0.12836 0.15413 0.42287 0.16184 0.61184 c 0.008 0.18893 -0.009 0.45891 -0.0334 0.59951 c -0.0832 0.47649 -0.29832 0.75096 -0.47473 0.71379 c -0.15629 -0.0409 -0.33213 -0.22562 -0.57833 -0.62224" stroke-linecap="round"/>
</g>
		<g transform="matrix(0.5509 0 0 0.5509 13.246 -10.4231)" id="path573-6-6">
<path style="stroke: rgb(19,31,103); stroke-width: 0.378; stroke-dasharray: none; stroke-linecap: round; stroke-dashoffset: 0; stroke-linejoin: round; stroke-miterlimit: 4; is-custom-font: none; font-file-url: none; fill: rgb(255,255,255); fill-rule: nonzero; opacity: 1;" transform=" translate(-144.7891, -805.6336)" d="m 139.15877 808.54857 c -0.64354 -0.80425 -0.96918 -2.08132 -0.81877 -3.3851 c 0.16696 -1.43655 1.21964 -2.73 2.56904 -3.35495 c 1.50893 -0.68321 3.81702 -0.58854 5.21424 -0.31104 c 0.95406 0.14376 2.99969 0.9225 3.65979 1.55441 c 1.16165 1.0869 1.64823 2.45527 1.44731 3.9015 c -0.17865 1.45623 -1.02473 2.45886 -1.94601 3.02567" stroke-linecap="round"/>
</g>
		<g transform="matrix(0.5509 0 0 0.5509 11.2701 -5.5177)" id="path613-8-1">
<path style="stroke: rgb(19,31,103); stroke-width: 0.378; stroke-dasharray: none; stroke-linecap: butt; stroke-dashoffset: 0; stroke-linejoin: miter; stroke-miterlimit: 4; is-custom-font: none; font-file-url: none; fill: rgb(255,255,255); fill-rule: nonzero; opacity: 1;" transform=" translate(-141.2024, -814.538)" d="m 139.6031 811.48312 c 0.16866 0.66404 0.35659 1.31515 0.27351 1.95727 c -0.21662 0.4954 -0.2833 1.10832 -0.2289 1.6127 c 0.0619 0.69028 0.61711 1.58118 1.26346 1.94739 c 0.66692 0.3455 1.09901 0.47369 1.8905 0.59241" stroke-linecap="round"/>
</g>
		<g transform="matrix(0.5509 0 0 0.5509 10.8285 -6.2542)" id="path611-1-5">
<path style="stroke: rgb(19,31,103); stroke-width: 0.378; stroke-dasharray: none; stroke-linecap: butt; stroke-dashoffset: 0; stroke-linejoin: miter; stroke-miterlimit: 4; is-custom-font: none; font-file-url: none; fill: rgb(255,255,255); fill-rule: nonzero; opacity: 1;" transform=" translate(-140.4009, -813.2012)" d="m 140.24621 811.86715 c 0.14106 0.5288 0.17862 0.72737 0.25664 1.24515 c 0.0603 0.47656 0.0633 0.76252 0.037 1.42297" stroke-linecap="round"/>
</g>
		<g transform="matrix(0.5509 0 0 0.5509 10.6211 -8.6299)" id="path580-4-4">
<path style="stroke: rgb(19,31,103); stroke-width: 0.378; stroke-dasharray: none; stroke-linecap: butt; stroke-dashoffset: 0; stroke-linejoin: round; stroke-miterlimit: 4; is-custom-font: none; font-file-url: none; fill: rgb(255,255,255); fill-rule: nonzero; opacity: 1;" transform=" translate(-140.0243, -808.8887)" d="m 139.90712 804.50179 c -0.35288 0.20507 -0.37951 0.58894 -0.42177 1.16139 c -0.0305 0.43522 0.1905 0.90124 0.138 1.29515 c -0.0353 0.84251 -0.44153 1.62933 -0.68252 2.2862 c -0.21977 0.7632 -0.0961 1.46735 0.16817 1.77239 c 0.26488 0.30148 0.64564 0.467 1.04429 0.64879 c 0.3649 0.14978 0.53452 0.34048 0.78798 0.5834 c 0.28446 0.39026 0.31771 0.68277 0.25008 1.02648" stroke-linecap="round"/>
</g>
		<g transform="matrix(0.5509 0 0 0.5509 13.5353 -5.1541)" id="path614-9-2">
<path style="stroke: rgb(19,31,103); stroke-width: 0.378; stroke-dasharray: none; stroke-linecap: butt; stroke-dashoffset: 0; stroke-linejoin: miter; stroke-miterlimit: 4; is-custom-font: none; font-file-url: none; fill: rgb(255,255,255); fill-rule: nonzero; opacity: 1;" transform=" translate(-145.3143, -815.1983)" d="m 147.86217 812.72215 c -0.38484 0.58101 -0.78358 1.14412 -0.92203 1.77791 c 0.038 0.53358 -0.10619 1.13487 -0.32854 1.59773 c -0.29237 0.63713 -1.1252 1.2961 -1.86267 1.45467 c -0.73743 0.15861 -1.19092 0.15392 -1.98241 0.0352" stroke-linecap="round"/>
</g>
		<g transform="matrix(0.022 0.0033 -0.0035 0.0204 12.5165 -5.9697)" id="path588-9-9">
<path style="stroke: rgb(19,31,103); stroke-width: 9.7024; stroke-dasharray: none; stroke-linecap: butt; stroke-dashoffset: 0; stroke-linejoin: miter; stroke-miterlimit: 4; is-custom-font: none; font-file-url: none; fill: rgb(255,255,255); fill-rule: nonzero; opacity: 1;" transform=" translate(-298.7025, -354.4721)" d="m 236.52 349.73 c 14.718 9.027 40.161 10.419 62.956 10.009 c 25.394 -0.129 47.133 -1.963 61.409 -10.597" stroke-linecap="round"/>
</g>
		<g transform="matrix(0.022 0.0033 -0.0035 0.0204 12.4193 -5.4571)" id="path608-5-7">
<path style="stroke: rgb(19,31,103); stroke-width: 9.7024; stroke-dasharray: none; stroke-linecap: butt; stroke-dashoffset: 0; stroke-linejoin: miter; stroke-miterlimit: 4; is-custom-font: none; font-file-url: none; fill: rgb(255,255,255); fill-rule: nonzero; opacity: 1;" transform=" translate(-298.3335, -379.6306)" d="m 241.67 373.28 c 16.238 10.204 35.334 13.708 57.326 12.878 c 22.842 -0.556 40.351 -2.478 56.001 -13.172" stroke-linecap="round"/>
</g>
		<g transform="matrix(0.022 0.0033 -0.0035 0.0204 12.3429 -5.0767)" id="path609-9-7">
<path style="stroke: rgb(19,31,103); stroke-width: 9.7024; stroke-dasharray: none; stroke-linecap: butt; stroke-dashoffset: 0; stroke-linejoin: miter; stroke-miterlimit: 4; is-custom-font: none; font-file-url: none; fill: rgb(255,255,255); fill-rule: nonzero; opacity: 1;" transform=" translate(-297.886, -398.3319)" d="m 229.89 385.64 c 17.367 20.948 41.608 24.585 69.173 25.315 c 29.519 1.077 59.166 -10.645 66.819 -25.314" stroke-linecap="round"/>
</g>
		<g transform="matrix(0.022 0.0033 -0.0035 0.0204 11.1826 -5.7428)" id="path589-0-6">
<path style="stroke: rgb(19,31,103); stroke-width: 9.7024; stroke-dasharray: none; stroke-linecap: butt; stroke-dashoffset: 0; stroke-linejoin: miter; stroke-miterlimit: 4; is-custom-font: none; font-file-url: none; fill: rgb(255,255,255); fill-rule: nonzero; opacity: 1;" transform=" translate(-241.232, -374.866)" d="m 241.44 354.26 l -0.416 41.212" stroke-linecap="round"/>
</g>
		<g transform="matrix(0.022 0.0033 -0.0035 0.0204 11.4615 -5.5789)" id="path592-0-0">
<path style="stroke: rgb(19,31,103); stroke-width: 9.7024; stroke-dasharray: none; stroke-linecap: butt; stroke-dashoffset: 0; stroke-linejoin: miter; stroke-miterlimit: 4; is-custom-font: none; font-file-url: none; fill: rgb(255,255,255); fill-rule: nonzero; opacity: 1;" transform=" translate(-254.866, -380.693)" d="m 254.97 358.63 l -0.208 44.126" stroke-linecap="round"/>
</g>
		<g transform="matrix(0.022 0.0033 -0.0035 0.0204 11.7783 -5.4704)" id="path593-7-1">
<path style="stroke: rgb(19,31,103); stroke-width: 9.7024; stroke-dasharray: none; stroke-linecap: butt; stroke-dashoffset: 0; stroke-linejoin: miter; stroke-miterlimit: 4; is-custom-font: none; font-file-url: none; fill: rgb(255,255,255); fill-rule: nonzero; opacity: 1;" transform=" translate(-269.752, -383.604)" d="m 269.96 360.5 l -0.416 46.208" stroke-linecap="round"/>
</g>
		<g transform="matrix(0.022 0.0033 -0.0035 0.0204 12.0731 -5.3978)" id="path594-2-6">
<path style="stroke: rgb(19,31,103); stroke-width: 9.7024; stroke-dasharray: none; stroke-linecap: butt; stroke-dashoffset: 0; stroke-linejoin: miter; stroke-miterlimit: 4; is-custom-font: none; font-file-url: none; fill: rgb(255,255,255); fill-rule: nonzero; opacity: 1;" transform=" translate(-283.3855, -384.956)" d="m 283.49 361.54 l -0.209 46.832" stroke-linecap="round"/>
</g>
		<g transform="matrix(0.022 0.0033 -0.0035 0.0204 12.4077 -5.3389)" id="path595-5-5">
<path style="stroke: rgb(19,31,103); stroke-width: 9.7024; stroke-dasharray: none; stroke-linecap: butt; stroke-dashoffset: 0; stroke-linejoin: miter; stroke-miterlimit: 4; is-custom-font: none; font-file-url: none; fill: rgb(255,255,255); fill-rule: nonzero; opacity: 1;" transform=" translate(-298.68, -385.376)" d="m 298.68 361.96 v 46.832" stroke-linecap="round"/>
</g>
		<g transform="matrix(0.022 0.0033 -0.0035 0.0204 12.7309 -5.2947)" id="path598-5-7">
<path style="stroke: rgb(19,31,103); stroke-width: 9.7024; stroke-dasharray: none; stroke-linecap: butt; stroke-dashoffset: 0; stroke-linejoin: miter; stroke-miterlimit: 4; is-custom-font: none; font-file-url: none; fill: rgb(255,255,255); fill-rule: nonzero; opacity: 1;" transform=" translate(-313.354, -385.166)" d="m 313.25 361.75 l 0.208 46.832" stroke-linecap="round"/>
</g>
		<g transform="matrix(0.022 0.0033 -0.0035 0.0204 13.0273 -5.2852)" id="path599-2-5">
<path style="stroke: rgb(19,31,103); stroke-width: 9.7024; stroke-dasharray: none; stroke-linecap: butt; stroke-dashoffset: 0; stroke-linejoin: miter; stroke-miterlimit: 4; is-custom-font: none; font-file-url: none; fill: rgb(255,255,255); fill-rule: nonzero; opacity: 1;" transform=" translate(-326.988, -383.5)" d="m 326.78 360.5 l 0.416 46" stroke-linecap="round"/>
</g>
		<g transform="matrix(0.022 0.0033 -0.0035 0.0204 13.371 -5.3056)" id="path604-1-4">
<path style="stroke: rgb(19,31,103); stroke-width: 9.7024; stroke-dasharray: none; stroke-linecap: butt; stroke-dashoffset: 0; stroke-linejoin: miter; stroke-miterlimit: 4; is-custom-font: none; font-file-url: none; fill: rgb(255,255,255); fill-rule: nonzero; opacity: 1;" transform=" translate(-341.664, -380.063)" d="m 341.56 358 l 0.208 44.126" stroke-linecap="round"/>
</g>
		<g transform="matrix(0.022 0.0033 -0.0035 0.0204 13.6989 -5.3959)" id="path606-4-1">
<path style="stroke: rgb(19,31,103); stroke-width: 9.7024; stroke-dasharray: none; stroke-linecap: butt; stroke-dashoffset: 0; stroke-linejoin: miter; stroke-miterlimit: 4; is-custom-font: none; font-file-url: none; fill: rgb(255,255,255); fill-rule: nonzero; opacity: 1;" transform=" translate(-355.5085, -373.404)" d="m 355.3 352.59 l 0.417 41.628" stroke-linecap="round"/>
</g>
		<g transform="matrix(0.5509 0 0 0.5509 14.1968 -5.7643)" id="path612-6-2">
<path style="stroke: rgb(0,0,0); stroke-width: 0.378; stroke-dasharray: none; stroke-linecap: butt; stroke-dashoffset: 0; stroke-linejoin: miter; stroke-miterlimit: 4; is-custom-font: none; font-file-url: none; fill: rgb(255,255,255); fill-rule: nonzero; opacity: 1;" transform=" translate(-146.5152, -814.0904)" d="m 147.10603 812.86707 c -0.31288 0.46072 -0.41572 0.63821 -0.66501 1.10687 c -0.21857 0.43471 -0.31814 0.70531 -0.51671 1.33989" stroke-linecap="round"/>
</g>
		<g transform="matrix(0.5509 0 0 0.5509 11.5687 -8.5814)" id="path586-7-0">
<path style="stroke: rgb(19,31,103); stroke-width: 0.378; stroke-dasharray: none; stroke-linecap: butt; stroke-dashoffset: 0; stroke-linejoin: miter; stroke-miterlimit: 4; is-custom-font: none; font-file-url: none; fill: rgb(19,31,103); fill-rule: evenodd; opacity: 1;" transform=" translate(-141.7444, -808.9768)" d="m 140.99845 807.60661 c 0.5521 -0.007 1.08218 0.0145 1.6289 0.0385 c 0.73154 -0.0592 0.95628 0.73997 0.66516 1.27171 c -0.33017 0.46253 -0.74928 0.84837 -1.21551 1.21128 c -0.35981 0.2733 -0.73143 0.27051 -1.05848 0.1104 c -0.26665 -0.1138 -0.49675 -0.31202 -0.70917 -0.72396 c -0.0663 -0.33728 -0.14291 -0.51772 -0.22913 -0.9371 c -0.0583 -0.38356 0.22598 -0.90196 0.91824 -0.97084 z" stroke-linecap="round"/>
</g>
		<g transform="matrix(0.5509 0 0 0.5509 14.9959 -8.0358)" id="path581-6-0">
<path style="stroke: rgb(19,31,103); stroke-width: 0.378; stroke-dasharray: none; stroke-linecap: butt; stroke-dashoffset: 0; stroke-linejoin: round; stroke-miterlimit: 4; is-custom-font: none; font-file-url: none; fill: rgb(255,255,255); fill-rule: nonzero; opacity: 1;" transform=" translate(-147.9656, -809.9672)" d="m 149.97857 805.9908 c 0.26556 0.29785 0.16092 0.66998 0.007 1.22577 c -0.11837 0.42203 -0.48583 0.79979 -0.56932 1.18904 c -0.25164 0.81004 -0.13232 1.67574 -0.12589 2.36967 c -0.0497 0.7887 -0.4054 1.42097 -0.7595 1.63324 c -0.35346 0.20871 -0.9431 0.26082 -1.21083 0.31047 c -0.31088 0.0516 -0.64186 0.17983 -0.9481 0.33879 c -0.37747 0.24346 -0.52996 0.53978 -0.58211 0.8858" stroke-linecap="round"/>
</g>
		<g transform="matrix(0.5509 0 0 0.5509 14.3863 -8.2166)" id="path587-8-1">
<path style="stroke: rgb(19,31,103); stroke-width: 0.378; stroke-dasharray: none; stroke-linecap: butt; stroke-dashoffset: 0; stroke-linejoin: miter; stroke-miterlimit: 4; is-custom-font: none; font-file-url: none; fill: rgb(19,31,103); fill-rule: evenodd; opacity: 1;" transform=" translate(-146.8592, -809.6389)" d="m 147.86217 808.63552 c -0.52174 -0.16801 -1.03217 -0.30264 -1.55925 -0.43975 c -0.67437 -0.27011 -1.15814 0.42279 -1.06179 1.01264 c 0.15687 0.53561 0.4241 1.02441 0.74382 1.50521 c 0.24905 0.36464 0.60277 0.47065 0.96739 0.41431 c 0.29163 -0.0301 0.57713 -0.15092 0.91821 -0.47985 c 0.17713 -0.30075 0.31086 -0.44964 0.53467 -0.82251 c 0.18517 -0.34702 0.0908 -0.92225 -0.54305 -1.19005 z" stroke-linecap="round"/>
</g>
		<g transform="matrix(0.5509 0 0 0.5509 6.6507 -15.5978)" id="path3082-0-4">
<path style="stroke: rgb(0,0,0); stroke-width: 0.7559; stroke-dasharray: none; stroke-linecap: butt; stroke-dashoffset: 0; stroke-linejoin: miter; stroke-miterlimit: 4; is-custom-font: none; font-file-url: none; fill: rgb(0,0,0); fill-rule: nonzero; opacity: 1;" transform=" translate(-132.8171, -796.2403)" d="m 132.28336 793.26898 c -1.70754 1.42166 -1.50019 3.77434 -1.6713 5.94264 c 1.19891 -1.49165 2.38893 -2.9961 4.41016 -3.30227 c -0.43649 -1.36576 -1.59476 -1.82257 -2.62471 -2.58349 z" stroke-linecap="round"/>
</g>
		<g transform="matrix(0.5509 0 0 0.5509 14.0403 -15.4635)" id="path3084-9-6">
<path style="stroke: rgb(0,0,0); stroke-width: 0.7559; stroke-dasharray: none; stroke-linecap: butt; stroke-dashoffset: 0; stroke-linejoin: miter; stroke-miterlimit: 4; is-custom-font: none; font-file-url: none; fill: rgb(0,0,0); fill-rule: nonzero; opacity: 1;" transform=" translate(-146.231, -796.4841)" d="m 142.76797 800.09271 c 0.71974 -2.7934 1.86903 -5.44522 3.72761 -7.86387 l 1.02858 -0.0934 l 2.16997 3.05067 c -0.72804 1.86173 -1.9678 3.55852 -1.99282 5.64666 z" stroke-linecap="round"/>
</g>
		<g transform="matrix(0.5509 0 0 0.5509 21.6001 -13.3187)" id="path3088-5-0">
<path style="stroke: rgb(0,0,0); stroke-width: 0.7559; stroke-dasharray: none; stroke-linecap: butt; stroke-dashoffset: 0; stroke-linejoin: miter; stroke-miterlimit: 4; is-custom-font: none; font-file-url: none; fill: rgb(0,0,0); fill-rule: nonzero; opacity: 1;" transform=" translate(-159.9538, -800.3773)" d="m 162.20542 796.46728 c -0.6143 2.51252 -1.40006 4.98185 -0.71833 7.82003 c -1.54089 -1.65161 -3.10298 -3.75441 -3.78491 -5.81947 c 1.09832 -1.18548 3.08127 -1.23193 4.50332 -2.00064 z" stroke-linecap="round"/>
</g>
		<g transform="matrix(0.5509 0 0 0.5509 18.7458 -14.3034)" id="path3086-3-7">
<path style="stroke: rgb(19,31,103); stroke-width: 0.7559; stroke-dasharray: none; stroke-linecap: butt; stroke-dashoffset: 0; stroke-linejoin: miter; stroke-miterlimit: 4; is-custom-font: none; font-file-url: none; fill: rgb(19,31,103); fill-rule: nonzero; opacity: 1;" transform=" translate(-154.7725, -798.59)" d="m 147.26193 800.70498 c 2.60736 -2.42488 4.1767 -3.85694 7.60465 -5.84084 c 2.08789 0.2713 5.08719 0.86783 7.4164 1.56745 c -3.41096 2.07694 -7.15097 2.49256 -9.29193 5.88432 z" stroke-linecap="round"/>
</g>
		<g transform="matrix(0.5509 0 0 0.5509 13.5845 -11.7327)" id="path3072-1-1">
<path style="stroke: rgb(19,31,103); stroke-width: 0.7559; stroke-dasharray: none; stroke-linecap: butt; stroke-dashoffset: 0; stroke-linejoin: miter; stroke-miterlimit: 4; is-custom-font: none; font-file-url: none; fill: rgb(19,31,103); fill-rule: nonzero; opacity: 1;" transform=" translate(-145.4035, -803.2563)" d="m 138.41822 803.90038 c 4.7629 -1.04477 9.06744 -0.10897 13.10888 1.96652 c 0.19803 -0.79737 0.35377 -1.62125 0.86165 -2.22425 c -4.04223 -2.70044 -8.6005 -4.00294 -13.89191 -2.084 c 0.21192 0.81631 0.1256 1.58785 -0.0785 2.34173 z" stroke-linecap="round"/>
</g>
		<g transform="matrix(0.5509 0 0 0.5509 15.8384 -16.3195)" id="path3090-4-7">
<path style="stroke: rgb(212,0,0); stroke-width: 0.7559; stroke-dasharray: none; stroke-linecap: butt; stroke-dashoffset: 0; stroke-linejoin: miter; stroke-miterlimit: 4; is-custom-font: none; font-file-url: none; fill: rgb(212,0,0); fill-rule: nonzero; opacity: 1;" transform=" translate(-149.495, -794.9303)" d="m 146.55646 792.38716 c -0.0477 2.08306 0.99382 3.94208 2.85891 5.63144 c 0.61368 -1.5423 0.92533 -3.11671 3.01972 -4.50182 c -0.80907 -0.8646 -1.56645 -1.21805 -2.90646 -1.67472 l -2.93023 0.30364 z" stroke-linecap="round"/>
</g>
		<g transform="matrix(0.5509 0 0 0.5509 9.3422 -15.7907)" id="path3080-1-7">
<path style="stroke: rgb(19,31,103); stroke-width: 0.7559; stroke-dasharray: none; stroke-linecap: butt; stroke-dashoffset: 0; stroke-linejoin: miter; stroke-miterlimit: 4; is-custom-font: none; font-file-url: none; fill: rgb(19,31,103); fill-rule: nonzero; opacity: 1;" transform=" translate(-137.7029, -795.8902)" d="m 138.4611 800.13981 c -1.20242 -2.67765 -3.82461 -4.80024 -6.24815 -6.89754 c 1.12816 -1.10759 2.5046 -1.22396 4.08847 -1.60171 c 3.5841 2.42238 5.51163 5.35899 6.89139 8.46599 z" stroke-linecap="round"/>
</g>
		<g transform="matrix(0.5509 0 0 0.5509 13.7435 -12.6382)" id="path3074-7-7">
<path style="stroke: rgb(212,0,0); stroke-width: 0.7559; stroke-dasharray: none; stroke-linecap: butt; stroke-dashoffset: 0; stroke-linejoin: miter; stroke-miterlimit: 4; is-custom-font: none; font-file-url: none; fill: rgb(212,0,0); fill-rule: nonzero; opacity: 1;" transform=" translate(-145.692, -801.6127)" d="m 138.64429 801.54188 c 4.73483 -0.4587 9.16058 0.30456 13.60231 2.05252 c 0.0747 -0.56648 0.42289 -0.98044 0.88698 -1.32979 c -4.66545 -2.03191 -9.62674 -3.36742 -14.88307 -2.19686 c 0.42336 0.45048 0.11176 0.90688 0.10853 1.41706 z" stroke-linecap="round"/>
</g>
		<g transform="matrix(0.5509 0 0 0.5509 -0.6305 -2.3501)" id="path16597-7">
<path style="stroke: rgb(19,31,103); stroke-width: 0.7559; stroke-dasharray: none; stroke-linecap: butt; stroke-dashoffset: 0; stroke-linejoin: miter; stroke-miterlimit: 4; is-custom-font: none; font-file-url: none; fill: rgb(19,31,103); fill-rule: nonzero; opacity: 1;" transform=" translate(-119.5999, -820.2881)" d="m 120.01754 821.80839 l 0.55681 -2.1507 l -1.9488 -0.88993 l 1.39199 3.04067 z" stroke-linecap="round"/>
</g>
		<g transform="matrix(0.5509 0 0 0.5509 -12.5281 0.7029)" id="path3082-5-2-3">
<path style="stroke: rgb(19,31,103); stroke-width: 0.7559; stroke-dasharray: none; stroke-linecap: butt; stroke-dashoffset: 0; stroke-linejoin: miter; stroke-miterlimit: 4; is-custom-font: none; font-file-url: none; fill: rgb(19,31,103); fill-rule: nonzero; opacity: 1;" transform=" translate(-98.0028, -825.8302)" d="m 95.571644 821.75043 c -3.936209 2.75989 -0.05212 4.89997 -0.613447 8.1595 c 2.804265 -2.66428 2.715165 -3.64754 7.260883 -4.88766 c -1.14208 -1.19328 -4.406652 -2.55378 -6.647395 -3.27181 z" stroke-linecap="round"/>
</g>
		<g transform="matrix(0.5509 0 0 0.5509 -9.15 2.9857)" id="path3082-5-81-5">
<path style="stroke: rgb(19,31,103); stroke-width: 0.7559; stroke-dasharray: none; stroke-linecap: butt; stroke-dashoffset: 0; stroke-linejoin: miter; stroke-miterlimit: 4; is-custom-font: none; font-file-url: none; fill: rgb(19,31,103); fill-rule: nonzero; opacity: 1;" transform=" translate(-104.1349, -829.9739)" d="m 102.30674 824.87337 c -3.599884 2.9444 -0.77306 6.13647 -1.2129 10.20101 c 2.54678 -2.98542 2.51747 -4.84817 6.72457 -5.77201 c -1.54868 -2.07625 -4.09952 -3.45256 -5.51202 -4.429 z" stroke-linecap="round"/>
</g>
		<g transform="matrix(0.5509 0 0 0.5509 -0.3387 2.3443)" id="path3088-9-8-9">
<path style="stroke: rgb(19,31,103); stroke-width: 0.7559; stroke-dasharray: none; stroke-linecap: butt; stroke-dashoffset: 0; stroke-linejoin: miter; stroke-miterlimit: 4; is-custom-font: none; font-file-url: none; fill: rgb(19,31,103); fill-rule: nonzero; opacity: 1;" transform=" translate(-120.1294, -828.8097)" d="m 121.42458 825.89141 c 1.26849 2.90944 2.37755 2.04715 3.99117 5.83649 c -3.62405 -1.97271 -6.71756 -2.54614 -10.57269 -3.54439 c 1.65329 -1.04677 5.41574 -0.53989 6.58152 -2.29203 z" stroke-linecap="round"/>
</g>
		<g transform="matrix(0.5509 0 0 0.5509 -26.8775 -18.9228)" id="path9399-4-2-9">
<path style="stroke: rgb(19,31,103); stroke-opacity: 0.94; stroke-width: 0.7559; stroke-dasharray: none; stroke-linecap: butt; stroke-dashoffset: 0; stroke-linejoin: round; stroke-miterlimit: 4; is-custom-font: none; font-file-url: none; fill: rgb(226,207,0); fill-rule: nonzero; opacity: 1;" transform=" translate(-71.9552, -790.2044)" d="m 74.086929 789.90998 c 0.174961 1.0944 -0.637658 2.11333 -1.814962 2.27595 c -1.177383 0.16263 -2.273578 -0.59272 -2.448529 -1.68704 c -0.174963 -1.09439 0.637655 -2.11332 1.814963 -2.27594 c 1.17738 -0.16263 2.273577 0.59271 2.448528 1.68703 z" stroke-linecap="round"/>
</g>
		<g transform="matrix(0.5509 0 0 0.5509 2.0447 4.2973)" id="path9399-4-2-4-8">
<path style="stroke: rgb(19,31,103); stroke-width: 0.7559; stroke-dasharray: none; stroke-linecap: butt; stroke-dashoffset: 0; stroke-linejoin: round; stroke-miterlimit: 4; is-custom-font: none; font-file-url: none; fill: rgb(226,207,0); fill-rule: nonzero; opacity: 1;" transform=" translate(-124.4562, -832.3547)" d="m 126.58792 832.06028 c 0.17496 1.0944 -0.63766 2.11333 -1.81496 2.27595 c -1.17739 0.16263 -2.27358 -0.59272 -2.44853 -1.68704 c -0.17496 -1.0944 0.63766 -2.11332 1.81496 -2.27595 c 1.17738 -0.16262 2.27358 0.59272 2.44853 1.68704 z" stroke-linecap="round"/>
</g>
		<g transform="matrix(0.5509 0 0 0.5509 -10.5612 5.7941)" id="path9399-4-2-4-9-1">
<path style="stroke: rgb(0,0,0); stroke-width: 0.7559; stroke-dasharray: none; stroke-linecap: butt; stroke-dashoffset: 0; stroke-linejoin: round; stroke-miterlimit: 4; is-custom-font: none; font-file-url: none; fill: rgb(226,207,0); fill-rule: nonzero; opacity: 1;" transform=" translate(-101.5732, -835.0719)" d="m 103.70497 834.77746 c 0.17496 1.09439 -0.63766 2.11332 -1.81496 2.27594 c -1.17738 0.16263 -2.273578 -0.59271 -2.448529 -1.68703 c -0.174963 -1.0944 0.637659 -2.11333 1.814959 -2.27595 c 1.17738 -0.16263 2.27358 0.59271 2.44853 1.68704 z" stroke-linecap="round"/>
</g>
		<g transform="matrix(0.5509 0 0 0.5509 -13.8593 3.3712)" id="path9399-4-2-4-0-8">
<path style="stroke: rgb(0,0,0); stroke-width: 0.7559; stroke-dasharray: none; stroke-linecap: butt; stroke-dashoffset: 0; stroke-linejoin: round; stroke-miterlimit: 4; is-custom-font: none; font-file-url: none; fill: rgb(226,207,0); fill-rule: nonzero; opacity: 1;" transform=" translate(-95.5865, -830.6737)" d="m 97.71822 830.37925 c 0.174963 1.0944 -0.637655 2.11333 -1.814963 2.27595 c -1.17738 0.16263 -2.273578 -0.59271 -2.448529 -1.68703 c -0.17496 -1.0944 0.637659 -2.11333 1.814963 -2.27596 c 1.177383 -0.16262 2.273581 0.59272 2.448529 1.68704 z" stroke-linecap="round"/>
</g>
		<g transform="matrix(0.5509 0 0 0.5509 6.6246 -1.6183)" id="path9399-4-2-4-2-2">
<path style="stroke: rgb(19,31,103); stroke-opacity: 0.94; stroke-width: 0.7559; stroke-dasharray: none; stroke-linecap: butt; stroke-dashoffset: 0; stroke-linejoin: round; stroke-miterlimit: 4; is-custom-font: none; font-file-url: none; fill: rgb(226,207,0); fill-rule: nonzero; opacity: 1;" transform=" translate(-132.7698, -821.6165)" d="m 134.90155 821.322 c 0.17496 1.09439 -0.63766 2.11332 -1.81496 2.27594 c -1.17738 0.16263 -2.27358 -0.59271 -2.44853 -1.68703 c -0.17496 -1.0944 0.63766 -2.11333 1.81496 -2.27595 c 1.17738 -0.16263 2.27358 0.59271 2.44853 1.68704 z" stroke-linecap="round"/>
</g>
		<g transform="matrix(0.5509 0 0 0.5509 5.5424 -13.4511)" id="path9399-4-2-4-21-6">
<path style="stroke: rgb(19,31,103); stroke-opacity: 0.94; stroke-width: 0.7559; stroke-dasharray: none; stroke-linecap: butt; stroke-dashoffset: 0; stroke-linejoin: round; stroke-miterlimit: 4; is-custom-font: none; font-file-url: none; fill: rgb(226,207,0); fill-rule: nonzero; opacity: 1;" transform=" translate(-130.8054, -800.137)" d="m 132.93715 799.84253 c 0.17496 1.0944 -0.63766 2.11333 -1.81496 2.27595 c -1.17739 0.16263 -2.27358 -0.59271 -2.44853 -1.68704 c -0.17496 -1.0944 0.63766 -2.11332 1.81496 -2.27595 c 1.17738 -0.16262 2.27358 0.59272 2.44853 1.68704 z" stroke-linecap="round"/>
</g>
		<g transform="matrix(0.5509 0 0 0.5509 15.5868 -13.9501)" id="path9399-4-2-4-5-6">
<path style="stroke: rgb(19,31,103); stroke-opacity: 0.94; stroke-width: 0.7559; stroke-dasharray: none; stroke-linecap: butt; stroke-dashoffset: 0; stroke-linejoin: round; stroke-miterlimit: 4; is-custom-font: none; font-file-url: none; fill: rgb(226,207,0); fill-rule: nonzero; opacity: 1;" transform=" translate(-149.0385, -799.2313)" d="m 151.17024 798.93681 c 0.17496 1.09439 -0.63767 2.11332 -1.81497 2.27594 c -1.17738 0.16263 -2.27358 -0.59271 -2.44853 -1.68703 c -0.17496 -1.0944 0.63766 -2.11333 1.81496 -2.27595 c 1.17739 -0.16263 2.27358 0.59271 2.44854 1.68704 z" stroke-linecap="round"/>
</g>
		<g transform="matrix(0.5509 0 0 0.5509 22.4899 -10.6711)" id="path9399-4-2-4-4-0">
<path style="stroke: rgb(19,31,103); stroke-opacity: 0.94; stroke-width: 0.7559; stroke-dasharray: none; stroke-linecap: butt; stroke-dashoffset: 0; stroke-linejoin: round; stroke-miterlimit: 4; is-custom-font: none; font-file-url: none; fill: rgb(226,207,0); fill-rule: nonzero; opacity: 1;" transform=" translate(-161.5693, -805.1833)" d="m 163.7011 804.88887 c 0.17496 1.0944 -0.63766 2.11333 -1.81497 2.27595 c -1.17738 0.16263 -2.27358 -0.59272 -2.44853 -1.68704 c -0.17496 -1.09439 0.63766 -2.11332 1.81496 -2.27595 c 1.17739 -0.16262 2.27358 0.59272 2.44854 1.68704 z" stroke-linecap="round"/>
</g>
		<g transform="matrix(0.5509 0 0 0.5509 17.5364 -1.1912)" id="path9399-4-2-4-44-3">
<path style="stroke: rgb(19,31,103); stroke-opacity: 0.94; stroke-width: 0.7559; stroke-dasharray: none; stroke-linecap: butt; stroke-dashoffset: 0; stroke-linejoin: round; stroke-miterlimit: 4; is-custom-font: none; font-file-url: none; fill: rgb(226,207,0); fill-rule: nonzero; opacity: 1;" transform=" translate(-152.5775, -822.3918)" d="m 154.70928 822.0973 c 0.17496 1.0944 -0.63766 2.11332 -1.81497 2.27594 c -1.17738 0.16263 -2.27357 -0.59271 -2.44853 -1.68703 c -0.17496 -1.0944 0.63766 -2.11333 1.81497 -2.27595 c 1.17738 -0.16263 2.27358 0.59271 2.44853 1.68704 z" stroke-linecap="round"/>
</g>
		<g transform="matrix(0.5509 0 0 0.5509 14.5991 0.5152)" id="path9399-4-2-4-25-8">
<path style="stroke: rgb(19,31,103); stroke-opacity: 0.94; stroke-width: 0.7559; stroke-dasharray: none; stroke-linecap: butt; stroke-dashoffset: 0; stroke-linejoin: round; stroke-miterlimit: 4; is-custom-font: none; font-file-url: none; fill: rgb(226,207,0); fill-rule: nonzero; opacity: 1;" transform=" translate(-147.2456, -825.4893)" d="m 149.37733 825.19488 c 0.17496 1.0944 -0.63766 2.11332 -1.81497 2.27595 c -1.17738 0.16262 -2.27357 -0.59272 -2.44853 -1.68704 c -0.17496 -1.0944 0.63766 -2.11333 1.81497 -2.27595 c 1.17738 -0.16263 2.27357 0.59272 2.44853 1.68704 z" stroke-linecap="round"/>
</g>
		<g transform="matrix(0.5509 0 0 0.5509 9.3901 0.15)" id="path9399-4-2-4-25-0-0">
<path style="stroke: rgb(19,31,103); stroke-opacity: 0.94; stroke-width: 0.7559; stroke-dasharray: none; stroke-linecap: butt; stroke-dashoffset: 0; stroke-linejoin: round; stroke-miterlimit: 4; is-custom-font: none; font-file-url: none; fill: rgb(226,207,0); fill-rule: nonzero; opacity: 1;" transform=" translate(-137.7899, -824.8263)" d="m 139.92169 824.53189 c 0.17496 1.09439 -0.63766 2.11332 -1.81496 2.27594 c -1.17738 0.16263 -2.27358 -0.59271 -2.44853 -1.68703 c -0.17496 -1.0944 0.63766 -2.11333 1.81496 -2.27595 c 1.17738 -0.16263 2.27358 0.59271 2.44853 1.68704 z" stroke-linecap="round"/>
</g>
		<g transform="matrix(0.5509 0 0 0.5509 -19.3045 -0.335)" id="path9399-4-2-4-0-2-1">
<path style="stroke: rgb(19,31,103); stroke-width: 0.7559; stroke-dasharray: none; stroke-linecap: butt; stroke-dashoffset: 0; stroke-linejoin: round; stroke-miterlimit: 4; is-custom-font: none; font-file-url: none; fill: rgb(226,207,0); fill-rule: nonzero; opacity: 1;" transform=" translate(-85.7021, -823.946)" d="m 87.833848 823.65152 c 0.17496 1.0944 -0.637658 2.11333 -1.814963 2.27595 c -1.177383 0.16263 -2.273577 -0.59271 -2.448528 -1.68704 c -0.174964 -1.09439 0.637655 -2.11332 1.814962 -2.27594 c 1.17738 -0.16263 2.273578 0.59271 2.448529 1.68703 z" stroke-linecap="round"/>
</g>
		<g transform="matrix(0.5509 0 0 0.5509 -6.8037 -27.5643)" id="path9399-4-2-4-0-1-2">
<path style="stroke: rgb(19,31,103); stroke-opacity: 0.94; stroke-width: 0.7559; stroke-dasharray: none; stroke-linecap: butt; stroke-dashoffset: 0; stroke-linejoin: round; stroke-miterlimit: 4; is-custom-font: none; font-file-url: none; fill: rgb(226,207,0); fill-rule: nonzero; opacity: 1;" transform=" translate(-108.3941, -774.518)" d="m 110.52582 774.22354 c 0.17496 1.09439 -0.63767 2.11332 -1.81497 2.27594 c -1.17738 0.16263 -2.27358 -0.59271 -2.44853 -1.68703 c -0.17496 -1.0944 0.63766 -2.11333 1.81496 -2.27595 c 1.17739 -0.16263 2.27358 0.59271 2.44854 1.68704 z" stroke-linecap="round"/>
</g>
		<g transform="matrix(0.5509 0 0 0.5509 7.4598 -24.428)" id="path9399-4-2-4-0-27-5">
<path style="stroke: rgb(19,31,103); stroke-opacity: 0.94; stroke-width: 0.7559; stroke-dasharray: none; stroke-linecap: butt; stroke-dashoffset: 0; stroke-linejoin: round; stroke-miterlimit: 4; is-custom-font: none; font-file-url: none; fill: rgb(226,207,0); fill-rule: nonzero; opacity: 1;" transform=" translate(-134.286, -780.2112)" d="m 136.41773 779.91671 c 0.17496 1.0944 -0.63766 2.11333 -1.81496 2.27595 c -1.17739 0.16263 -2.27358 -0.59271 -2.44854 -1.68704 c -0.17496 -1.09439 0.63767 -2.11332 1.81497 -2.27594 c 1.17738 -0.16263 2.27358 0.59271 2.44853 1.68703 z" stroke-linecap="round"/>
</g>
		<g transform="matrix(0.5509 0 0 0.5509 -6.3534 1.4334)" id="path4452-1">
<path style="stroke: rgb(0,0,0); stroke-width: 0.5669; stroke-dasharray: none; stroke-linecap: butt; stroke-dashoffset: 0; stroke-linejoin: miter; stroke-miterlimit: 4; is-custom-font: none; font-file-url: none; fill: none; fill-rule: nonzero; opacity: 1;" transform=" translate(-109.2115, -827.1561)" d="m 109.61356 830.68686 l -0.80406 -7.06153" stroke-linecap="round"/>
</g>
		<g transform="matrix(0.5509 0 0 0.5509 -9.7096 -0.8032)" id="path3188">
<path style="stroke: rgb(19,31,103); stroke-opacity: 0.94; stroke-width: 0.7559; stroke-dasharray: none; stroke-linecap: butt; stroke-dashoffset: 0; stroke-linejoin: miter; stroke-miterlimit: 4; is-custom-font: none; font-file-url: none; fill: rgb(19,31,103); fill-rule: nonzero; opacity: 1;" transform=" translate(-103.119, -823.096)" d="m 95.933222 816.29825 c -0.14875 0.40462 -0.70001 2.9181 -0.0607 5.04646 c 0 0 2.79825 1.4918 4.256398 2.26325 c 3.39556 1.79659 9.40409 6.28575 9.40409 6.28575 l 1.13449 -0.62899 l -0.35516 -6.63331 l -1.89705 0.53303 c -4.34479 -1.00596 -8.775118 -4.32624 -12.481898 -6.86609 z" stroke-linecap="round"/>
</g>
		<g transform="matrix(0.5509 0 0 0.5509 -9.8761 -3.0922)" id="path15558">
<path style="stroke: rgb(19,31,103); stroke-width: 0.7559; stroke-dasharray: none; stroke-linecap: butt; stroke-dashoffset: 0; stroke-linejoin: miter; stroke-miterlimit: 4; is-custom-font: none; font-file-url: none; fill: rgb(0,0,0); fill-rule: nonzero; opacity: 1;" transform=" translate(-102.8168, -818.9411)" d="m 109.84446 822.20946 l -3.07441 -0.95809 c -4.00228 -2.49787 -3.27259 -1.83567 -5.4619 -3.28775 l -2.879057 -2.78607 l -2.550033 -0.39913 l -0.08998 1.12705 l 5.60905 4.15803 l 6.74764 3.04019 z" stroke-linecap="round"/>
</g>
		<g transform="matrix(0.5509 0 0 0.5509 -20.1002 -26.2387)" id="path3086-4-2">
<path style="stroke: rgb(19,31,103); stroke-width: 0.756; stroke-dasharray: none; stroke-linecap: butt; stroke-dashoffset: 0; stroke-linejoin: miter; stroke-miterlimit: 4; is-custom-font: none; font-file-url: none; fill: rgb(19,31,103); fill-rule: nonzero; opacity: 1;" transform=" translate(-84.2573, -776.9243)" d="m 96.809183 781.42854 c -4.52498 -6.25139 -9.03501 -7.85454 -16.11104 -13.50045 c -4.91378 0.33493 -5.0947 2.97005 -8.99264 5.31341 c 5.20411 6.4792 12.61447 6.2633 14.75146 12.67892 z" stroke-linecap="round"/>
</g>
</g>
</g>
</svg>