<svg xmlns="http://www.w3.org/2000/svg" xmlns:xlink="http://www.w3.org/1999/xlink" version="1.1" width="320" height="456" viewBox="0 0 320 456" xml:space="preserve">
<desc>Created with Fabric.js 3.5.0</desc>
<defs>
</defs>
<rect x="0" y="0" width="100%" height="100%" fill="#fff"/>
<g transform="matrix(1.3733 0 0 1.3733 160.6761 228.6544)" id="396097">
<rect style="stroke: rgb(128,128,128); stroke-width: 0.7559; stroke-dasharray: none; stroke-linecap: butt; stroke-dashoffset: 0; stroke-linejoin: miter; stroke-miterlimit: 4; is-custom-font: none; font-file-url: none; fill: rgb(255,255,255); fill-rule: nonzero; opacity: 1;" x="-116.62205" y="-166.12205" rx="8.9191856" ry="8.9457436" width="233.2441" height="332.2441"/>
</g>
<g transform="matrix(5.8726 0 0 5.8726 58.2243 209.1882)" id="654735">
<path style="stroke: none; stroke-width: 1; stroke-dasharray: none; stroke-linecap: butt; stroke-dashoffset: 0; stroke-linejoin: miter; stroke-miterlimit: 4; is-custom-font: none; font-file-url: none; fill: rgb(255,0,0); fill-rule: nonzero; opacity: 1;" transform=" translate(-17.2056, -771.2565)" d="m 17.194709 780.70206 c -0.884404 -1.89863 -2.026046 -3.67278 -3.382435 -5.25648 c -0.87477 -1.02135 -1.836311 -1.96168 -2.810437 -2.88504 c -0.760948 -0.72123 -1.5353906 -1.43859 -2.1580074 -2.28629 c -0.4206116 -0.57272 -0.7716181 -1.20987 -0.9388522 -1.90446 c -0.3028667 -1.25806 0.026675 -2.60669 0.6482558 -3.73679 c 0.3640614 -0.66181 0.8298315 -1.27048 1.4035868 -1.7543 c 0.852458 -0.71887 1.964695 -1.14871 3.067706 -1.05488 c 1.011533 0.086 1.957446 0.60263 2.695611 1.3121 c 0.653277 0.62794 1.162103 1.41066 1.48543 2.26832 c 0.323328 -0.85766 0.832154 -1.64038 1.485431 -2.26832 c 0.738165 -0.70947 1.684078 -1.22609 2.695611 -1.3121 c 1.102986 -0.0939 2.215223 0.33601 3.06769 1.05488 c 0.573755 0.48382 1.039538 1.09249 1.403587 1.7543 c 0.621635 1.1301 0.951135 2.47873 0.648256 3.73679 c -0.167222 0.69459 -0.518241 1.33174 -0.938862 1.90446 c -0.622607 0.8477 -1.397059 1.56506 -2.157985 2.28629 c -0.974135 0.92336 -1.935695 1.86369 -2.810434 2.88504 c -1.35642 1.5837 -2.498062 3.35785 -3.382467 5.25648" stroke-linecap="round"/>
</g>
<g transform="matrix(9.2703 0 0 9.2703 205.911 326.3592)" id="695993">
<path style="stroke: none; stroke-width: 1; stroke-dasharray: none; stroke-linecap: butt; stroke-dashoffset: 0; stroke-linejoin: miter; stroke-miterlimit: 4; is-custom-font: none; font-file-url: none; fill: rgb(255,0,0); fill-rule: nonzero; opacity: 1;" transform=" translate(-17.2056, -771.2565)" d="m 17.194709 780.70206 c -0.884404 -1.89863 -2.026046 -3.67278 -3.382435 -5.25648 c -0.87477 -1.02135 -1.836311 -1.96168 -2.810437 -2.88504 c -0.760948 -0.72123 -1.5353906 -1.43859 -2.1580074 -2.28629 c -0.4206116 -0.57272 -0.7716181 -1.20987 -0.9388522 -1.90446 c -0.3028667 -1.25806 0.026675 -2.60669 0.6482558 -3.73679 c 0.3640614 -0.66181 0.8298315 -1.27048 1.4035868 -1.7543 c 0.852458 -0.71887 1.964695 -1.14871 3.067706 -1.05488 c 1.011533 0.086 1.957446 0.60263 2.695611 1.3121 c 0.653277 0.62794 1.162103 1.41066 1.48543 2.26832 c 0.323328 -0.85766 0.832154 -1.64038 1.485431 -2.26832 c 0.738165 -0.70947 1.684078 -1.22609 2.695611 -1.3121 c 1.102986 -0.0939 2.215223 0.33601 3.06769 1.05488 c 0.573755 0.48382 1.039538 1.09249 1.403587 1.7543 c 0.621635 1.1301 0.951135 2.47873 0.648256 3.73679 c -0.167222 0.69459 -0.518241 1.33174 -0.938862 1.90446 c -0.622607 0.8477 -1.397059 1.56506 -2.157985 2.28629 c -0.974135 0.92336 -1.935695 1.86369 -2.810434 2.88504 c -1.35642 1.5837 -2.498062 3.35785 -3.382467 5.25648" stroke-linecap="round"/>
</g>
<g transform="matrix(4.7872 0 0 3.7123 49.8768 71.8617)" id="831196">
<path style="stroke: none; stroke-width: 1; stroke-dasharray: none; stroke-linecap: butt; stroke-dashoffset: 0; stroke-linejoin: miter; stroke-miterlimit: 4; is-custom-font: none; font-file-url: none; fill: rgb(255,0,0); fill-rule: nonzero; opacity: 1;" transform=" translate(-15.1509, -841.885)" d="m 23.441122 846.62229 q 0 3.88373 -0.405444 5.63354 q -0.704192 3.0515 -2.987484 4.52391 q -1.813829 1.19499 -4.353191 1.19499 q -5.185418 0 -8.8344162 -4.54524 l 4.3105122 -4.03311 q 2.411327 2.73142 4.37453 2.73142 q 1.344368 0 1.728473 -1.66446 q 0.170713 -0.72553 0.170713 -2.71007 v -21.95801 h 5.996307 z" stroke-linecap="round"/>
</g>
</svg>