<svg xmlns="http://www.w3.org/2000/svg" xmlns:xlink="http://www.w3.org/1999/xlink" version="1.1" width="80" height="80" viewBox="0 0 80 80" xml:space="preserve">
<desc>Created with Fabric.js 3.5.0</desc>
<defs>
</defs>
<rect x="0" y="0" width="100%" height="100%" fill="#fff"/>
<g transform="matrix(1 0 0 1 40.0001 40.0001)" id="157904">
<g style="">
		<g transform="matrix(1.7006 0 0 1.8599 -18.8861 0)" id="353523">
<path style="stroke: none; stroke-width: 1; stroke-dasharray: none; stroke-linecap: butt; stroke-dashoffset: 0; stroke-linejoin: miter; stroke-miterlimit: 4; is-custom-font: none; font-file-url: none; fill: rgb(255,0,0); fill-rule: nonzero; opacity: 1;" transform=" translate(-17.9933, -708.892)" d="M 27.838832 722.44 H 21.723338 L 13.360585 710.41164 V 722.44 H 8.147679 v -27.09606 h 5.212906 v 9.32061 l 7.349644 -9.32061 h 6.207595 l -9.467963 12.08363 z" stroke-linecap="round"/>
</g>
		<g transform="matrix(0.6044 0 0 0.6044 19.1071 0)" id="166426">
<path style="stroke: none; stroke-width: 1; stroke-dasharray: none; stroke-linecap: butt; stroke-dashoffset: 0; stroke-linejoin: miter; stroke-miterlimit: 4; is-custom-font: none; font-file-url: none; fill: rgb(255,0,0); fill-rule: nonzero; opacity: 1;" transform=" translate(-117, -785.7397)" d="m 116.96746 814.07624 c -2.65321 -5.69589 -6.07814 -11.01838 -10.14737 -15.76947 c -2.62425 -3.06398 -5.50887 -5.88504 -8.431277 -8.65507 c -2.282813 -2.16375 -4.606141 -4.31575 -6.473991 -6.85891 c -1.261866 -1.71812 -2.314886 -3.62962 -2.816557 -5.7134 c -0.908631 -3.77411 0.07987 -7.82001 1.944736 -11.21027 c 1.092153 -1.98547 2.489526 -3.81145 4.210761 -5.26296 c 2.557404 -2.15664 5.894118 -3.44611 9.203118 -3.16466 c 3.03457 0.25811 5.87237 1.80791 8.0868 3.93638 c 1.95983 1.88375 3.48637 4.23197 4.45632 6.80491 c 0.96996 -2.57294 2.4965 -4.92116 4.45633 -6.80491 c 2.21443 -2.12847 5.05223 -3.67827 8.08677 -3.93638 c 3.309 -0.28145 6.64571 1.00802 9.20312 3.16466 c 1.72126 1.45151 3.1186 3.27749 4.21076 5.26296 c 1.8649 3.39026 2.8534 7.43616 1.94476 11.21027 c -0.50167 2.08378 -1.55472 3.99528 -2.81659 5.7134 c -1.86781 2.54316 -4.19117 4.69516 -6.47396 6.85891 c -2.9224 2.77003 -5.80706 5.59109 -8.43131 8.65507 c -4.06922 4.75109 -7.49415 10.07358 -10.14736 15.76947" stroke-linecap="round"/>
</g>
</g>
</g>
</svg>