<svg xmlns="http://www.w3.org/2000/svg" xmlns:xlink="http://www.w3.org/1999/xlink" version="1.1" width="320" height="456" viewBox="0 0 320 456" xml:space="preserve">
<desc>Created with Fabric.js 3.5.0</desc>
<defs>
</defs>
<rect x="0" y="0" width="100%" height="100%" fill="#fff"/>
<g transform="matrix(1.3733 0 0 1.3733 160.6761 228.6544)" id="101559">
<rect style="stroke: rgb(128,128,128); stroke-width: 0.7559; stroke-dasharray: none; stroke-linecap: butt; stroke-dashoffset: 0; stroke-linejoin: miter; stroke-miterlimit: 4; is-custom-font: none; font-file-url: none; fill: rgb(255,255,255); fill-rule: nonzero; opacity: 1;" x="-116.62205" y="-166.12205" rx="8.9191856" ry="8.9457436" width="233.2441" height="332.2441"/>
</g>
<g transform="matrix(3.2049 0 0 3.2049 209.324 326.1393)" id="227739">
<path style="stroke: none; stroke-width: 1; stroke-dasharray: none; stroke-linecap: butt; stroke-dashoffset: 0; stroke-linejoin: miter; stroke-miterlimit: 4; is-custom-font: none; font-file-url: none; fill: rgb(255,0,0); fill-rule: nonzero; opacity: 1;" transform=" translate(-117, -885.8622)" d="M 117 914.1987 L 145.24371 885.86217 L 117 857.52563 L 88.756294 885.86217 Z" stroke-linecap="round"/>
</g>
<g transform="matrix(5.8504 0 0 5.8504 58.5439 205.1273)" id="266409">
<path style="stroke: none; stroke-width: 1; stroke-dasharray: none; stroke-linecap: butt; stroke-dashoffset: 0; stroke-linejoin: miter; stroke-miterlimit: 4; is-custom-font: none; font-file-url: none; fill: rgb(255,0,0); fill-rule: nonzero; opacity: 1;" transform=" translate(-17.2056, -771.2566)" d="m 17.205569 780.7021 l 9.414569 -9.44551 l -9.414569 -9.44552 l -9.4145688 9.44552 z" stroke-linecap="round"/>
</g>
<g transform="matrix(3.5209 0 0 5.1877 58.5442 68.9683)" id="241335">
<path style="stroke: none; stroke-width: 1; stroke-dasharray: none; stroke-linecap: butt; stroke-dashoffset: 0; stroke-linejoin: miter; stroke-miterlimit: 4; is-custom-font: none; font-file-url: none; fill: rgb(255,0,0); fill-rule: nonzero; opacity: 1;" transform=" translate(-20.8849, -610.741)" d="m 32.31276 622.41319 h -4.772381 l -1.868704 -2.40057 q -2.314318 1.26497 -5.160497 1.26497 q -4.686134 0 -7.877305 -3.20555 q -3.176796 -3.21992 -3.176796 -7.90605 q 0 -3.0043 1.451839 -5.54861 q 1.451839 -2.54431 4.05365 -4.05365 q 2.558686 -1.49496 5.505488 -1.49496 q 4.599886 0 7.776682 3.27741 q 3.176796 3.27742 3.176796 7.89168 q 0 4.29802 -2.78868 7.41732 z m -4.916128 -12.20408 q 0 -2.96117 -1.969326 -5.05987 q -2.01245 -2.14182 -4.959252 -2.14182 q -3.061799 0 -5.016751 2.08432 q -1.940576 2.06995 -1.940576 5.14612 q 0 3.50742 2.515562 5.54862 q 1.969326 1.59558 4.470514 1.59558 q 1.437465 0 2.702433 -0.56061 l -3.780531 -4.873 h 4.801131 l 1.897453 2.45806 q 1.279343 -1.89745 1.279343 -4.1974 z" stroke-linecap="round"/>
</g>
</svg>