<svg xmlns="http://www.w3.org/2000/svg" xmlns:xlink="http://www.w3.org/1999/xlink" version="1.1" width="80" height="80" viewBox="0 0 80 80" xml:space="preserve">
<desc>Created with Fabric.js 3.5.0</desc>
<defs>
</defs>
<rect x="0" y="0" width="100%" height="100%" fill="#fff"/>
<g transform="matrix(1 0 0 1 40 40)" id="702068">
<g style="">
		<g transform="matrix(1.4523 0 0 2.1399 -19.1723 0)" id="72929">
<path style="stroke: none; stroke-width: 1; stroke-dasharray: none; stroke-linecap: butt; stroke-dashoffset: 0; stroke-linejoin: miter; stroke-miterlimit: 4; is-custom-font: none; font-file-url: none; fill: rgb(255,0,0); fill-rule: nonzero; opacity: 1;" transform=" translate(-20.8849, -610.741)" d="m 32.31276 622.41319 h -4.772381 l -1.868704 -2.40057 q -2.314318 1.26497 -5.160497 1.26497 q -4.686134 0 -7.877305 -3.20555 q -3.176796 -3.21992 -3.176796 -7.90605 q 0 -3.0043 1.451839 -5.54861 q 1.451839 -2.54431 4.05365 -4.05365 q 2.558686 -1.49496 5.505488 -1.49496 q 4.599886 0 7.776682 3.27741 q 3.176796 3.27742 3.176796 7.89168 q 0 4.29802 -2.78868 7.41732 z m -4.916128 -12.20408 q 0 -2.96117 -1.969326 -5.05987 q -2.01245 -2.14182 -4.959252 -2.14182 q -3.061799 0 -5.016751 2.08432 q -1.940576 2.06995 -1.940576 5.14612 q 0 3.50742 2.515562 5.54862 q 1.969326 1.59558 4.470514 1.59558 q 1.437465 0 2.702433 -0.56061 l -3.780531 -4.873 h 4.801131 l 1.897453 2.45806 q 1.279343 -1.89745 1.279343 -4.1974 z" stroke-linecap="round"/>
</g>
		<g transform="matrix(1.7853 0 0 1.7853 18.7947 0)" id="263369">
<path style="stroke: none; stroke-width: 1; stroke-dasharray: none; stroke-linecap: butt; stroke-dashoffset: 0; stroke-linejoin: miter; stroke-miterlimit: 4; is-custom-font: none; font-file-url: none; fill: rgb(255,0,0); fill-rule: nonzero; opacity: 1;" transform=" translate(-17.2056, -771.2566)" d="m 17.205569 780.7021 l 9.414569 -9.44551 l -9.414569 -9.44552 l -9.4145688 9.44552 z" stroke-linecap="round"/>
</g>
</g>
</g>
</svg>