<svg xmlns="http://www.w3.org/2000/svg" xmlns:xlink="http://www.w3.org/1999/xlink" version="1.1" width="80" height="80" viewBox="0 0 80 80" xml:space="preserve">
<desc>Created with Fabric.js 3.5.0</desc>
<defs>
</defs>
<rect x="0" y="0" width="100%" height="100%" fill="#fff"/>
<g transform="matrix(1 0 0 1 40.0001 40)" id="590029">
<g style="">
		<g transform="matrix(1.4598 0 0 2.1509 -18.9045 0)" id="12166">
<path style="stroke: none; stroke-width: 1; stroke-dasharray: none; stroke-linecap: butt; stroke-dashoffset: 0; stroke-linejoin: miter; stroke-miterlimit: 4; is-custom-font: none; font-file-url: none; fill: rgb(0,0,0); fill-rule: nonzero; opacity: 1;" transform=" translate(-20.8849, -610.741)" d="m 32.31276 622.41319 h -4.772381 l -1.868704 -2.40057 q -2.314318 1.26497 -5.160497 1.26497 q -4.686134 0 -7.877305 -3.20555 q -3.176796 -3.21992 -3.176796 -7.90605 q 0 -3.0043 1.451839 -5.54861 q 1.451839 -2.54431 4.05365 -4.05365 q 2.558686 -1.49496 5.505488 -1.49496 q 4.599886 0 7.776682 3.27741 q 3.176796 3.27742 3.176796 7.89168 q 0 4.29802 -2.78868 7.41732 z m -4.916128 -12.20408 q 0 -2.96117 -1.969326 -5.05987 q -2.01245 -2.14182 -4.959252 -2.14182 q -3.061799 0 -5.016751 2.08432 q -1.940576 2.06995 -1.940576 5.14612 q 0 3.50742 2.515562 5.54862 q 1.969326 1.59558 4.470514 1.59558 q 1.437465 0 2.702433 -0.56061 l -3.780531 -4.873 h 4.801131 l 1.897453 2.45806 q 1.279343 -1.89745 1.279343 -4.1974 z" stroke-linecap="round"/>
</g>
		<g transform="matrix(3.6162 0 0 3.6162 19.0863 0)" id="29603">
<g style="">
		<g transform="matrix(0.0095 0 0 0.0095 -0.0006 3.3517)" id="rect4124-6">
<rect style="stroke: none; stroke-width: 3.1813; stroke-dasharray: none; stroke-linecap: butt; stroke-dashoffset: 0; stroke-linejoin: miter; stroke-miterlimit: 4; is-custom-font: none; font-file-url: none; fill: rgb(0,0,0); fill-rule: nonzero; opacity: 1;" x="-42.6282" y="-147.84275" rx="0" ry="0" width="85.2564" height="295.6855"/>
</g>
		<g transform="matrix(0.0095 0 0 0.0095 0.0003 -0.3256)" id="path3979-1-6-1">
<path style="stroke: none; stroke-width: 3.1813; stroke-dasharray: none; stroke-linecap: butt; stroke-dashoffset: 0; stroke-linejoin: miter; stroke-miterlimit: 4; is-custom-font: none; font-file-url: none; fill: rgb(0,0,0); fill-rule: nonzero; opacity: 1;" transform=" translate(-2449.4023, -299.5777)" d="m 2917.8563 395.12877 c 67.135 120.80453 23.601 273.14486 -97.235 340.26188 c -120.8361 67.11691 -273.2161 23.5947 -340.3501 -97.20972 c -17.88 -32.17311 -28.44 -67.89332 -30.889 -104.57183 c -9.342 137.92083 -128.747 242.09126 -266.6621 232.71366 c -137.914 -9.37771 -242.111 -128.75233 -232.731 -266.63076 c 9.38 -137.87843 128.786 -242.04886 266.7 -232.67126 c 36.206 2.4619 71.4431 12.76531 103.7251 30.22171 c -118.1921 -70.88592 -156.8751 -224.529044 -85.9451 -343.145874 c 70.9301 -118.616826 224.6131 -157.289636 343.2611 -86.378126 c 118.647 70.911526 157.3301 224.554657 86.4 343.17148 c -21.341 35.68961 -51.243 65.49972 -86.812 86.88252 c 121.024 -66.97031 273.4041 -23.4481 340.5381 97.35632 z" stroke-linecap="round"/>
</g>
</g>
</g>
</g>
</g>
</svg>