<svg xmlns="http://www.w3.org/2000/svg" xmlns:xlink="http://www.w3.org/1999/xlink" version="1.1" width="80" height="80" viewBox="0 0 80 80" xml:space="preserve">
<desc>Created with Fabric.js 3.5.0</desc>
<defs>
</defs>
<rect x="0" y="0" width="100%" height="100%" fill="#fff"/>
<g transform="matrix(1 0 0 1 40 40)" id="648925">
<g style="">
		<g transform="matrix(1.4523 0 0 2.1399 -19.3356 0)" id="593413">
<path style="stroke: none; stroke-width: 1; stroke-dasharray: none; stroke-linecap: butt; stroke-dashoffset: 0; stroke-linejoin: miter; stroke-miterlimit: 4; is-custom-font: none; font-file-url: none; fill: rgb(255,0,0); fill-rule: nonzero; opacity: 1;" transform=" translate(-20.8849, -610.741)" d="m 32.31276 622.41319 h -4.772381 l -1.868704 -2.40057 q -2.314318 1.26497 -5.160497 1.26497 q -4.686134 0 -7.877305 -3.20555 q -3.176796 -3.21992 -3.176796 -7.90605 q 0 -3.0043 1.451839 -5.54861 q 1.451839 -2.54431 4.05365 -4.05365 q 2.558686 -1.49496 5.505488 -1.49496 q 4.599886 0 7.776682 3.27741 q 3.176796 3.27742 3.176796 7.89168 q 0 4.29802 -2.78868 7.41732 z m -4.916128 -12.20408 q 0 -2.96117 -1.969326 -5.05987 q -2.01245 -2.14182 -4.959252 -2.14182 q -3.061799 0 -5.016751 2.08432 q -1.940576 2.06995 -1.940576 5.14612 q 0 3.50742 2.515562 5.54862 q 1.969326 1.59558 4.470514 1.59558 q 1.437465 0 2.702433 -0.56061 l -3.780531 -4.873 h 4.801131 l 1.897453 2.45806 q 1.279343 -1.89745 1.279343 -4.1974 z" stroke-linecap="round"/>
</g>
		<g transform="matrix(0.6044 0 0 0.6044 19.2857 0)" id="679708">
<path style="stroke: none; stroke-width: 1; stroke-dasharray: none; stroke-linecap: butt; stroke-dashoffset: 0; stroke-linejoin: miter; stroke-miterlimit: 4; is-custom-font: none; font-file-url: none; fill: rgb(255,0,0); fill-rule: nonzero; opacity: 1;" transform=" translate(-117, -785.7397)" d="m 116.96746 814.07624 c -2.65321 -5.69589 -6.07814 -11.01838 -10.14737 -15.76947 c -2.62425 -3.06398 -5.50887 -5.88504 -8.431277 -8.65507 c -2.282813 -2.16375 -4.606141 -4.31575 -6.473991 -6.85891 c -1.261866 -1.71812 -2.314886 -3.62962 -2.816557 -5.7134 c -0.908631 -3.77411 0.07987 -7.82001 1.944736 -11.21027 c 1.092153 -1.98547 2.489526 -3.81145 4.210761 -5.26296 c 2.557404 -2.15664 5.894118 -3.44611 9.203118 -3.16466 c 3.03457 0.25811 5.87237 1.80791 8.0868 3.93638 c 1.95983 1.88375 3.48637 4.23197 4.45632 6.80491 c 0.96996 -2.57294 2.4965 -4.92116 4.45633 -6.80491 c 2.21443 -2.12847 5.05223 -3.67827 8.08677 -3.93638 c 3.309 -0.28145 6.64571 1.00802 9.20312 3.16466 c 1.72126 1.45151 3.1186 3.27749 4.21076 5.26296 c 1.8649 3.39026 2.8534 7.43616 1.94476 11.21027 c -0.50167 2.08378 -1.55472 3.99528 -2.81659 5.7134 c -1.86781 2.54316 -4.19117 4.69516 -6.47396 6.85891 c -2.9224 2.77003 -5.80706 5.59109 -8.43131 8.65507 c -4.06922 4.75109 -7.49415 10.07358 -10.14736 15.76947" stroke-linecap="round"/>
</g>
</g>
</g>
</svg>