<svg xmlns="http://www.w3.org/2000/svg" xmlns:xlink="http://www.w3.org/1999/xlink" version="1.1" width="320" height="456" viewBox="0 0 320 456" xml:space="preserve">
<desc>Created with Fabric.js 3.5.0</desc>
<defs>
</defs>
<rect x="0" y="0" width="100%" height="100%" fill="#fff"/>
<g transform="matrix(1.3733 0 0 1.3733 160.6761 228.6544)" id="498631">
<rect style="stroke: rgb(128,128,128); stroke-width: 0.7559; stroke-dasharray: none; stroke-linecap: butt; stroke-dashoffset: 0; stroke-linejoin: miter; stroke-miterlimit: 4; is-custom-font: none; font-file-url: none; fill: rgb(255,255,255); fill-rule: nonzero; opacity: 1;" x="-116.62205" y="-166.12205" rx="8.9191856" ry="8.9457436" width="233.2441" height="332.2441"/>
</g>
<g transform="matrix(5.8726 0 0 5.8726 58.2243 205.5733)" id="630904">
<path style="stroke: none; stroke-width: 1; stroke-dasharray: none; stroke-linecap: butt; stroke-dashoffset: 0; stroke-linejoin: miter; stroke-miterlimit: 4; is-custom-font: none; font-file-url: none; fill: rgb(0,0,0); fill-rule: nonzero; opacity: 1;" transform=" translate(-17.2056, -51.8944)" d="m 12.898825 61.339964 c 0 -0.55606 -0.03079 -0.95769 -0.03079 -1.51377 c 1.149566 0 2.395148 0 3.544708 0 c 0 -1.32181 0 -1.41529 0 -2.73713 c -2.243931 0.0723 -4.67246 0.23894 -6.7739019 -0.687 c -1.6266179 -0.89273 -2.0754481 -2.97087 -1.7474947 -4.67934 c 0.2807048 -1.92755 1.3522742 -3.63929 2.7501936 -4.95763 c 1.819108 -1.94578 4.139071 -3.25931 6.561151 -4.31616 c 2.472354 1.07474 4.843466 2.43124 6.685643 4.4283 c 1.659299 1.55933 2.764852 3.76316 2.730888 6.07061 c 0.03599 1.66549 -0.995685 3.42547 -2.697384 3.78891 c -1.903705 0.52718 -3.830472 0.43364 -5.784745 0.35231 c 0 1.32184 0 1.41532 0 2.73713 c 1.14956 0 2.203119 0 3.352688 0 c 0 0.55608 0.03079 0.95771 0.03079 1.51377 c -2.632285 -0.0186 -5.778625 -0.0186 -8.621752 0 z" stroke-linecap="round"/>
</g>
<g transform="matrix(9.2967 0 0 9.2967 209.2719 331.5268)" id="91582">
<path style="stroke: none; stroke-width: 1; stroke-dasharray: none; stroke-linecap: butt; stroke-dashoffset: 0; stroke-linejoin: miter; stroke-miterlimit: 4; is-custom-font: none; font-file-url: none; fill: rgb(0,0,0); fill-rule: nonzero; opacity: 1;" transform=" translate(-17.2056, -51.8944)" d="m 12.898825 61.339964 c 0 -0.55606 -0.03079 -0.95769 -0.03079 -1.51377 c 1.149566 0 2.395148 0 3.544708 0 c 0 -1.32181 0 -1.41529 0 -2.73713 c -2.243931 0.0723 -4.67246 0.23894 -6.7739019 -0.687 c -1.6266179 -0.89273 -2.0754481 -2.97087 -1.7474947 -4.67934 c 0.2807048 -1.92755 1.3522742 -3.63929 2.7501936 -4.95763 c 1.819108 -1.94578 4.139071 -3.25931 6.561151 -4.31616 c 2.472354 1.07474 4.843466 2.43124 6.685643 4.4283 c 1.659299 1.55933 2.764852 3.76316 2.730888 6.07061 c 0.03599 1.66549 -0.995685 3.42547 -2.697384 3.78891 c -1.903705 0.52718 -3.830472 0.43364 -5.784745 0.35231 c 0 1.32184 0 1.41532 0 2.73713 c 1.14956 0 2.203119 0 3.352688 0 c 0 0.55608 0.03079 0.95771 0.03079 1.51377 c -2.632285 -0.0186 -5.778625 -0.0186 -8.621752 0 z" stroke-linecap="round"/>
</g>
<g transform="matrix(3.5118 0 0 5.1743 58.2248 68.5979)" id="50455">
<path style="stroke: none; stroke-width: 1; stroke-dasharray: none; stroke-linecap: butt; stroke-dashoffset: 0; stroke-linejoin: miter; stroke-miterlimit: 4; is-custom-font: none; font-file-url: none; fill: rgb(0,0,0); fill-rule: nonzero; opacity: 1;" transform=" translate(-20.8849, -610.741)" d="m 32.31276 622.41319 h -4.772381 l -1.868704 -2.40057 q -2.314318 1.26497 -5.160497 1.26497 q -4.686134 0 -7.877305 -3.20555 q -3.176796 -3.21992 -3.176796 -7.90605 q 0 -3.0043 1.451839 -5.54861 q 1.451839 -2.54431 4.05365 -4.05365 q 2.558686 -1.49496 5.505488 -1.49496 q 4.599886 0 7.776682 3.27741 q 3.176796 3.27742 3.176796 7.89168 q 0 4.29802 -2.78868 7.41732 z m -4.916128 -12.20408 q 0 -2.96117 -1.969326 -5.05987 q -2.01245 -2.14182 -4.959252 -2.14182 q -3.061799 0 -5.016751 2.08432 q -1.940576 2.06995 -1.940576 5.14612 q 0 3.50742 2.515562 5.54862 q 1.969326 1.59558 4.470514 1.59558 q 1.437465 0 2.702433 -0.56061 l -3.780531 -4.873 h 4.801131 l 1.897453 2.45806 q 1.279343 -1.89745 1.279343 -4.1974 z" stroke-linecap="round"/>
</g>
</svg>