<svg xmlns="http://www.w3.org/2000/svg" xmlns:xlink="http://www.w3.org/1999/xlink" version="1.1" width="50" height="50" viewBox="0 0 50 50" xml:space="preserve">
<desc>Created with Fabric.js 3.5.0</desc>
<defs>
</defs>
<rect x="0" y="0" width="100%" height="100%" fill="#ffffff"/>
<g transform="matrix(4.0649 0 0 4.0649 25.0226 25.0226)" id="151757">
<path style="stroke: none; stroke-width: 1; stroke-dasharray: none; stroke-linecap: butt; stroke-dashoffset: 0; stroke-linejoin: miter; stroke-miterlimit: 4; is-custom-font: none; font-file-url: none; fill: rgb(27,20,100); fill-rule: nonzero; opacity: 1;" vector-effect="non-scaling-stroke" transform=" translate(-12, -12.0001)" d="M 17.414 6.586 c -0.78 -0.781 -2.048 -0.781 -2.828 0 L 12 9.172 L 9.414 6.586 c -0.78 -0.781 -2.048 -0.781 -2.828 0 c -0.781 0.781 -0.781 2.047 0 2.828 L 9.171 12 l -2.585 2.586 c -0.781 0.781 -0.781 2.047 0 2.828 C 6.976 17.805 7.488 18 8 18 s 1.024 -0.195 1.414 -0.586 L 12 14.828 l 2.586 2.586 C 14.976 17.805 15.488 18 16 18 s 1.024 -0.195 1.414 -0.586 c 0.781 -0.781 0.781 -2.047 0 -2.828 L 14.829 12 l 2.585 -2.586 C 18.195 8.633 18.195 7.367 17.414 6.586 z" stroke-linecap="round"/>
</g>
</svg>